<svg width="720" height="640" viewBox="0 0 720 640" fill="black" xmlns="http://www.w3.org/2000/svg">
  <g xmlns="http://www.w3.org/2000/svg" fill="none" fill-rule="evenodd">
    <rect width="720" height="640"/>
  </g>
<g transform="translate(120, 80)"><path xmlns="http://www.w3.org/2000/svg" d="M226.1 79.2l-7.5 24.5-2.2 5.7s3.2 4.1 10.8 5.7c5.2 1.1 8.7 1.2 11 1 1.9-.2 4.2-.6 3-4.1-1.7-5.2-1.1-8.5-1.1-8.5l2.7-14.7-16.7-9.6z" fill="#ea9d7d"/><linearGradient xmlns="http://www.w3.org/2000/svg" id="hd-A" gradientUnits="userSpaceOnUse" x1="229.34" y1="96.12" x2="236.21" y2="87.27"><stop offset="0" stop-color="#bc5a32" stop-opacity="0"/><stop offset=".99" stop-color="#bc5a32"/></linearGradient><path xmlns="http://www.w3.org/2000/svg" d="M225 92.4a26.6 26.6 0 0 0 9.4 8.2c3.5 1.7 6 2.1 6 2.1l2.3-12.2-16.4-11.3-.9 1.7-.7 2.8c-.3 0-2 5.2.3 8.7z" fill="url(#hd-A)"/><path xmlns="http://www.w3.org/2000/svg" d="M217 109.5h-.1c-.2-.1-.3-.3-.3-.5l4.7-14.4c.9-3 3.6-13.1 3.6-13.1.1-.2.3-.3.5-.3.2.1.3.3.3.5l-3.6 13.1c-.8 2.7-4.7 14.3-4.7 14.3 0 .3-.2.4-.4.4z" fill="#cf7653"/><g xmlns="http://www.w3.org/2000/svg" fill="#a84d3b"><path d="M228.9 85l.2.5.4-.5z"/><path d="M228.9 84.3l-.2.9 1-.1zm5.4 3.9v1.1l1.1-.5zm-2.7-1.7l-.2 1 1.2-.3zm-1.5-1.1l-.2 1 1.2-.3z"/><path d="M228.3 83.4l-.5 1h1.2zm7.4 7.1l-.4-.6-.4.8zm-1.3-1.1l-.6-.7-.3.8zm4.1 2.2l-.7-.8-.3.9zm2.9 1l-.6-.7-.3.8zm-5.2-3.5l-.7-.3v.8zm1.4 3.1l-.5-.6-.4.8zm-3.9-4.1l-.7-.3v.8z"/><path d="M238.9 90.2l-.9-.4v1.3zm2 .4l-.8-.2.2 1zm1.2 1.6l-.7-.1.3.8zm-2.7-.3l-.4-.6-.5.7zm2.4 2.3l.1-.7-.8.3zm-.3 1.4l.2-.7-.8.2zm-1.7 0l-.4.3.6.3zm.4-3.9l-.4.3.5.3zm2.2-.7l-.5-.1.1.6zm-1.8 5.7l-.4.4.5.2zm-10-10.4l-.4.3.6.3zm-3.3-4.6l-.4.4.5.2zm10.1 9.5l-.3-.3-.2.5zm-2.9-.8l.2-.5-.5.1zm1.5.9l.1-.4h-.5zm2.1 1.9l.2.5.4-.4zm2.9-1.9l-.4.2.5.3z"/><path d="M241.2 90.7l-.6.4.7.4zm-1.3.5l-.4.2.5.3zm.4 7.1l-.4.2.5.3zm-1-1.2l.1.4.4-.3zm-.1-2.4l.1.4.4-.3zm1.9 1l-.3-.3-.2.5zM227.2 91l.2.2.2-.4zm1.8-1.3l-.2.2.4.1zm2.1 3.6l-.3-.1v.3zm-1-1.7l-.2.3h.4zm6.8 3.2v.5l.6-.2zm-.9-4.6v.5l.6-.2zm.1-1v.6l.5-.3zm-7.8-3v.5l.6-.2zm12 7.3l-.4.1.3.4zm-1.5 4.1l-.2-.4-.3.4zm.4-5.2l.2.5.4-.5zm1.5.6l.3.5.4-.5zm1.1-1.8l-.3.3.5.2zm-.6 3.1l-.4-.2v.5zm-11.3-8.8l-.6.4.7.4zm-2 .7l-.3-.2-.1.4zm-2-1l-.3-.2-.1.4zm-.6 3.1l.1-.3h-.4z"/><path d="M229.2 86.1l.2.4.3-.4zm-1.2-1l.2.7.6-.6zm-.3-2.7l-.3.6.8.1zm3.1 4.9l-.3.2.4.2zm.7-.4l-.3.2.4.2zm.8.4l-.3.2.4.2zm-1.4 2.6l-.3-.2-.1.4zm-6-3.4l.2.4.3-.4zm2.2-2.3l-.2.3.3.1zM227 88l-.3-.2v.4zm.4-4.2l.2.4.3-.4zm.9.6l.2.4.3-.4zm-2.3-1.1l-.2.3.3.2zm.4-1l-.3-.2-.1.5zm5.3 5.5v.5l.4-.2zm1.8.9l-.3.1.2.3zm-.8-.8l-.3.1.2.3zm6.7 3l-.3.1.2.3zm-1.4-.7l-.4.1.3.3zm-4.7.8l-.2-.4-.3.4zm5.6 4.9l-.2-.3-.3.3zm-6.2-6l-.2-.3-.2.3zm2.6-.5v.4l.5-.2zm1.7.3v.5l.4-.2zm1.7.9l-.3.1.2.4zm-1.3 2.1l-.2-.3-.2.3zm-4.4-.1v.4l.5-.2zm2-1.1l-.4.1.3.3zm3.4.8l-.2-.3-.2.3z"/></g><path xmlns="http://www.w3.org/2000/svg" d="M250.4 55.2s2.9 4.7 3.4 6.9a20.1 20.1 0 0 1 .6 4.9c0 4.2-.3 10.1-.8 13.4-1 5.7-3.7 9.1-6.9 10.1s-9-1.1-12.9-3.1c-3.3-1.7-5.2-3.5-5.7-5.6-.5-2.2-1.5-5-1.5-5l.2-6.5 7.7-16.4 15.9 1.3z" fill="#ea9d7d"/><linearGradient xmlns="http://www.w3.org/2000/svg" id="hd-B" gradientUnits="userSpaceOnUse" x1="241.25" y1="65.52" x2="237.59" y2="57.05"><stop offset="0" stop-color="#bc5a32" stop-opacity="0"/><stop offset=".99" stop-color="#bc5a32"/></linearGradient><path xmlns="http://www.w3.org/2000/svg" d="M230.6 73.3s5.8-6.5 9.5-7.9c7.1-2.9 14-2.6 14-2.6l-1.1-3.5-20.2-2.7-4.4 12.6 2.2 4.1z" fill="url(#hd-B)"/><ellipse xmlns="http://www.w3.org/2000/svg" cx="224.5" cy="75.7" rx="5.3" ry="5.7" fill="#ea9d7d"/><path xmlns="http://www.w3.org/2000/svg" d="M224.5 81.8c-3.2 0-5.8-2.8-5.8-6.1 0-3.4 2.6-6.1 5.8-6.1s5.8 2.8 5.8 6.1-2.6 6.1-5.8 6.1zm0-11.4c-2.7 0-4.9 2.4-4.9 5.3s2.2 5.3 4.9 5.3 4.9-2.4 4.9-5.3c0-3-2.2-5.3-4.9-5.3z" fill="#b76349"/><linearGradient xmlns="http://www.w3.org/2000/svg" id="hd-C" gradientUnits="userSpaceOnUse" x1="224.49" y1="79" x2="224.83" y2="73.67"><stop offset="0" stop-color="#cc7a5e" stop-opacity="0"/><stop offset=".92" stop-color="#aa5f4b"/></linearGradient><ellipse xmlns="http://www.w3.org/2000/svg" cx="224.7" cy="75.7" rx="2.4" ry="2.5" fill="url(#hd-C)"/><path xmlns="http://www.w3.org/2000/svg" d="M230.3 72.1l-1.7 1.5-.7 5.6.3 1.6s2.4-1.3 2.6-3.9-.5-4.8-.5-4.8z" fill="#ea9d7d"/><path xmlns="http://www.w3.org/2000/svg" d="M243.4 90.9c-1.1 0-2-.2-4-.7a26.5 26.5 0 0 1-10-5.5c-2.2-2.2-2-4.3-2-4.4 0-.2 0-.5.2-.5s.3.2.4.4c.1.4.1 2.1 1.9 3.9a25.8 25.8 0 0 0 9.6 5.3c3.1.7 3.7.9 6 .7 2.2-.2 3.5-1.1 3.5-1.1.3-.2.6-.3.4 0-.2.2-1.8 1.5-3.8 1.8-.9.1-1.5.1-2.2.1z" fill="#b76349"/><g xmlns="http://www.w3.org/2000/svg" fill="#f4b9a6"><path d="M243.8 75.8l.7-.6-.9-.3zm-8.8-.4l-.2-.5-.5.5zm11.6 1l1 .6.1-1.2zm-2.6-5.1l1.3.8.2-1.6z"/><path d="M244 70.5l1.3-.8-1.3-1zm3 8.9l1.3-.8-1.3-.9zm1.3-1.6l.5-1.4h-1.7zm-4.8-2.9l-.8.2.5.7zm.6-1.1l-.9.2.6.7zm-.2 4.3l.3.8.7-.7zm.4 1.5l.7.4.2-.8zm4.1 2.4l-.8.3.6.7zm-3.3-17.1l-.3.7.9-.1zm.8 5l-.7-.1.3.7zm.7-2.5l-.7-.1.2.7zm-5.8 1.4l-.1.9.9-.4zm1.9-1.4l-.7.5.8.5zm-3.3 1.2h-.5l.3.5zm7.6 13.5l-.7.2.5.5zm-.8-.5l-.7.2.5.6zm-6-4.4l-.7.1.4.7zm1.7 1.3l-.7.2.4.6zm-2.3-3.5l-.1.6.8-.2zm3.6-.8l-.3-.6-.5.6zm7.3 5.8l.4-.4-.7-.1zm-2.8-2l.4.1v-.5zm4.5-4.6v.4l.4-.2zm-2.1 2.2l.5.1-.2-.5z"/><path d="M252.4 74.1l.1-.4-.5.1zm-14.6-3.8l-.3.5h.6zm6.5-3.2l.9-.2-.7-.7zm.9 10.3l1.8-.5-1.5-1.5zm-1.4-6.8l-.7-.1.1.7zm-5.2 4.8v-.6l-.8.3zm4-6.8l.1.9.8-.6zm-1.1 1.5l.1.8.8-.4zm.9-.6l.1.9.8-.5zm7.5-.9l.7.3v-.8zm-6 4.3l-.4-.5-.5.7zm3.4 8.3l-.7.2.5.6zm-3.1-4.3l-.2.5h.7zm.7 3.5l-.3-.5-.3.6zm1 .5l.4-.4-.6-.2zm.3-1.3l.5-.4-.7-.3z"/><path d="M246.1 78.9l.6-.5-.8-.3zm-.4-3.1l.5-.4-.7-.3zm-1.4.3l.5.3.2-.5zm6 4.7l-.6.1.4.5zm-3.2-5.6l-.2.5.7-.1zm1.6 6.1l-.4-.5-.3.6zm-3.5 2l.1.7.6-.5zm-1.8-3.2l-.5.2.5.4zm-6.2-6.7l-.4-.5-.3.7zm6.7 8.1l.4.2.1-.6zm-1.8-1l.4.2.1-.7zm-3.2.7l-.2.6.7-.1zm2.2 2.2h-.6l.2.6zm-2.1.8l-.5-.1.1.6zm5.7-9.4l1.2-.3-1-1zm-.9-2.8l.3.5.4-.5zm.1 1.1l.6.9.8-1.1zm3.4-2l-.8.7 1.2.4zm-7.4 2v-.6l-.6.3zm6.3-.5l-.4.4.6.2zm-2.3-3.5l.7-.1-.5-.6zm4.5 1.6l.7-.2-.6-.6zm-4.9 0l.8-.2-.6-.5zm5-3.3l.7-.2-.5-.6zm-2.4-1.6l-.5.4.7.2zm-5.5 2.1v-.6l-.6.3zm.8 8.8l-.1.8.9-.3zm-1.1-.3l-.7.1.4.6zm1.5 3l-.1.8.8-.3zm1-2.9v.8l.9-.5zm-.7 1.5l.1.8.8-.5zm-.9-2.2v-.6l-.6.3z"/><path d="M250.1 71l.7-.2-.6-.6zm-2.6-2.3l.3.4.4-.5zm5.2 8l.6-.3-.5-.4zm-10.8-8.9v-.6l-.6.3zm4.2 1.2v.7l.8-.2zm-.8-1.3l-.1.7.8-.3zm.5 6.7l1.2.8.4-1.5zm2.9 0l1.3-.4-.9-1.2zm-3.2.7l.4.1-.1-.5zm-.6-2.8l-.2.5h.7zm1.2-1.5l-.7.1.4.6zm2.2.3l-.7.1.4.6z"/><path d="M245.6 72.1l1.5-.8-1.6-1zm2.2-5.7l.4-.8h-1zm-1.1 11.4l.3-.7h-.9zm-1.3-3.8l1.3-.7-1.4-.9zm.8-5.9l.5.4.2-.6zm1.6 1.1l-.7 1.1 1.5.1zm1-1.4l-.3.4.7.1zm.7 4.3l.4.4.2-.6zm-1.9-4.9l-.3.4.7.1zm-8.9 5.9l-.7.2.6.6zm1-3l-.3.6h.8zm1.5 0l-.1-.6-.5.5zm-.8 3.2l-.1-.6-.6.5z"/></g><g xmlns="http://www.w3.org/2000/svg" fill="#a84d3b"><path d="M243.2 61.1l-.1.5h.4zm.2 1.3l-.3-.4-.1.5zm3.9-.7l-.3-.3-.2.4zm3.4-.9l.3.3.2-.5zm1.8-.5l.3.3.1-.5zm-.6.6l.4-.1-.3-.4zm-7.5.8l-.3-.3-.2.4zm4.7-.3l-.4-.3-.1.5zm-6.5.5l-.3-.4-.2.5zm-9.3-4.3v1.1l1-.6zm6.2 2.7l-.2.5.6-.1zm-4.1-1.5v.5l.5-.2zm-.2 1.9l-.1.5.6-.2zm.5 1.1l.1.6.5-.4zm4.8-.8l-.4-.3-.2.4zm.3-.4l.1.7.7-.5z"/><path d="M246.1 61.2l.3.4.4-.5zm-3.7-.2l.3.5.4-.5zm-5.6-1l.2.8.7-.6zm10.8 1.1l.3.5.4-.6zm-3.1 0l.2.7.7-.5zm-6.2-.5l.2.4.4-.3zm-1.8 1.8l-.1.5.5-.2zm-.5.4l-.1.4.5-.1zm3.5-1.9l.2.2.1-.2zm2.2.3l.2.2.2-.3zm3.8.3l.1.2.2-.2zm-10 1.6l-.3.1.2.2zm.3-4.1l.1.7.8-.4zm-.1 3.6l-.4.1.3.3z"/><path d="M235.4 62.7l-.1-.5-.5.4zm.5-3l.4.2v-.5zm2.9.8l.4.1-.1-.5zm-3.9-1.2v.3l.4-.1zm.9 1.2l.4.1-.1-.5zm-.1 3.6v.3l.3-.1zm-.9-3.8l-.4.1.3.3zm.1 2.8v.7l.7-.4z"/><path d="M235.1 64.2l.4-.3-.5-.2zm0-3.9l.3-.3-.4-.1zm-.6 1.1l.4-.3-.6-.3zm2.3-.3l.3.2.1-.4zm-1.7 4.2l.4-.2-.4-.3zm-1.1 2.2l.4-.2-.4-.3zm.6-9.3l.1.8.7-.2zm-.9 1.7l.3.3.2-.5zm4-.2l.2.9.8-.5zm-3.7-.4l.3.3.2-.4zm6.2 2.3l.5.2-.1-.5zm9.5-.3l.4.2V61zm-14.9 1l.7-.3-.7-.6zm-.6-4.1l-.4.7.8.1z"/><path d="M236.2 61.3l-.4-.1.1.4zm-2.4-2.4l-.4.2.4.3zm3.6.8l-.1.4.4-.1zm-2.6.4l-.7-.3v.8z"/><path d="M235.3 59h-.4l.2.4zm-1.5.3l-.1.3.4-.1zm3.3.4l-.5-.4-.1.7z"/></g><g xmlns="http://www.w3.org/2000/svg" fill="#964c38"><path d="M227 76.2v-.4l-.4.1zm-1.7-2.9l-.5.1.3.4z"/><path d="M225.2 73.4l-.5.6.8.2zm-.9-.1l-.6.2.5.5zm2.6 1.4l-.3.3.4.1zm-.9-.4l-.3.3.4.1z"/><path d="M226.6 75l-.2.3.4.1zm-2.2-.9l-.3.3.4.1z"/><path d="M223.9 73.9l-.4.4.7.3zm1.6 1.8l.3.1.1-.3zm1.2-1.3l-.1.2h.3zm.2 1l-.1.2h.3z"/><path d="M223.3 73.7l-.4.4.6.2zm.8 1.6h-.2l.1.2zm.6.8l-.1-.2-.2.1zm.7-2.4l.3-.3-.4-.1zm-1.1 0l-.3.2.4.1zm-.5.2l-.3-.1v.4z"/><path d="M223.8 73.9v-.3l-.3.1zm2.4.5l.2.3.2-.4zm-.4-.9l-.1.7.7-.2z"/><path d="M225.5 73.9l.3.3.1-.4zm-2.4 1l-.2.3h.3zm1.8-1.6l-.3-.1v.3zm-.6 1.8l.2.2.2-.3zm.8 1.2l-.2.3.4.1zm-2.1-2.1l-.2.3h.4z"/><path d="M223.9 76.3l-.3-.1.1.4zm-1.1-1.6h.3l-.2-.3z"/><path d="M222.5 75.9l.2-.1-.1-.3zm.2-1.1h.2l-.1-.3zm.7-.3v.3l.3-.2zm-1 .9h.4l-.2-.4zm.6.1v.3l.3-.2zm2-1.2l-.3.1.3.3zm1.4 1.5l.1.3.3-.2zm-2-2.2l.1.3.3-.2zm1 1.1l-.2-.3-.1.4z"/></g><path xmlns="http://www.w3.org/2000/svg" d="M238.3 68.1c-.1 0-.3 0-.4-.1-.3-.2-.4-.7-.2-1 .1-.1 1.7-2.5 5.3-2.2.4 0 .7.4.7.8s-.4.7-.8.7c-2.7-.2-3.9 1.5-3.9 1.6-.3.1-.5.2-.7.2zm14.8-2.1c-.1 0-.3 0-.4-.1-.8-.6-2-.2-2.1-.2-.4.1-.8-.1-.9-.5s.1-.8.5-.9c.1 0 1.9-.6 3.3.4.3.2.4.7.2 1-.2.2-.4.3-.6.3z" fill="#af361a"/><g xmlns="http://www.w3.org/2000/svg" fill="#4f2b23"><circle cx="241.9" cy="72" r="1.4"/><circle cx="252.3" cy="71.3" r="1.4"/></g><path xmlns="http://www.w3.org/2000/svg" d="M247.7 80.5c-.3 0-.6-.2-.7-.6s.2-.8.6-.8c0 0 1.1-.2 1.2-1.1s-.8-3.4-1.3-4.7c-.2-.4 0-.8.4-.9.4-.2.8 0 .9.4.2.4 1.5 3.8 1.4 5.4-.1 1.5-1.5 2.3-2.3 2.4-.1-.1-.2-.1-.2-.1z" fill="#b4603f"/><path xmlns="http://www.w3.org/2000/svg" d="M244.3 84.7h0a6.1 6.1 0 0 1-5.8-4.4c-.1-.4.1-.8.5-.9s.8.1.9.5a4.6 4.6 0 0 0 4.4 3.3c.4 0 .7.4.7.7 0 .5-.3.8-.7.8z" fill="#cf7653"/><g xmlns="http://www.w3.org/2000/svg" fill="#fff"><path d="M242.8 80.2c-2.8 0-5-3-5-6.6s2.3-6.6 5-6.6 5 3 5 6.6-2.3 6.6-5 6.6zm0-12.2c-2.2 0-4 2.5-4 5.6s1.8 5.6 4 5.6 4-2.5 4-5.6-1.8-5.6-4-5.6z"/><path d="M247.5 72.2l-.9-.5s.6-1 1.6-1 1.7.5 1.7.6l-.6.8s-.5-.4-1.1-.4c-.4-.1-.7.5-.7.5zm-16.94-.26l.17-1 7.5 1.3-.17 1z"/></g><path xmlns="http://www.w3.org/2000/svg" d="M227.8 48.5s-5-2-9 5c-4.4 7.8 1.3 18.1 1.3 18.1s1.7-2.5 5-2c2.7.4 3.5 1.9 4.3 2.8.8.8 4 .1 5.1-3.6.8-2.9.8-5.7-.2-7.7s-1.9-4.3-.5-3.3 3.8 2.3 7.5 2.9 10.8 1.2 14.4-1.9c3.6-3 3.8-5.6 3.7-7.7s-1.2-3.3-1.2-3.3-2 1.1-3 1.2-1.8.2-1.7-1.1c.2-3-1.5-4-1.5-4s-.7.9-1.5 1.4c-1.7 1-2.7 1.1-4.4.5-2.2-.7-4.5-2.7-9-2.8-3.2.1-6.8 1.8-9.3 5.5z" fill="#c94112"/><g xmlns="http://www.w3.org/2000/svg" fill="#ff593e"><path d="M248.8 46.2l1 .8.3-1.3-.7.3zm-9.6-2.8l.4 1.2 1-.9zm12.8.7l-.6.8 1 .1zm-3.9 3.5l-1.1.8 1.1.8zm-3.5-1.5l-.3.5.7.1zm-8.5-2.3l-.4.7.9.2zm.9.8l-.3.8.8.1zm-1.9.4l.9 1 .8-1.3z"/><path d="M238.5 45.1l-1.1.1.5 1.1zm-4.4-.9l1 .8.3-1.3zm15.5 4.8l-.4.3.4.3zm-3.6-2.1l-.4.3.5.3zm.9 1.1l.4-.5-.7-.2zm5 .6l-.4.3.5.2zm-1.3-1.2l-.5-.5-.3.8zm2.1-1.7l-.5-.5-.3.9z"/><path d="M247 48.5l-.6-.5-.3.9zm2.3-.3l-.5-.5-.3.9zm-2.3-1l-.5-.5-.3.8zm-.9-.4l.4-.7-.9-.1zm-2.6-1.6l-.6-.6-.3.9zm1.3.7l-.6-.5-.2.8zm-6.2-2l-.7-.6-.3 1zm-1.8.6l.7-.7-1-.4zm4.5-.3l-.5-.5-.3.9zm-3-.1l.7.8.6-1.1z"/><path d="M237.6 44.4l.6.9.6-1.2zm.8.6l.2 1 1-.7zm12.6 1.2l-.1-.9-.8.5zm-4.5.1l.4 1 .8-.8zm-1.8-.8l.3 1.1.8-.7zm-1.3-.7l.2 1.1.9-.6zm-8.5-1.5l.7.8.6-.9zm4.2.1l-.7-.2.1.7z"/><path d="M236.9 43.4l-.7-.2.1.8zm-1.8.2h-.7l.4.7zm13.6 7.8l-.3.3.4.2zm2.1-1.2l-.3-.2-.1.4zm-.7-1.7l.2.5.3-.4zm-4.8-2l.2.5.3-.5zm3.9 3.5l-.3.3.4.1zm-10.7.1l-.3.3.4.1zm10.6-3.6l-.7.6.9.5zm-.9 4.4l-.4-.2v.4zm.3-1l.3.1-.1-.4zm-2.7-.1l.6.1-.2-.7z"/><path d="M248.4 47.1l.3-.8-1 .1zm-3 3.2v.4l.4-.1zm2.2-2.6l.4-.6-.8-.2zm-5.6-2.6l.4-.6-.9-.3zm-4.4-1.1l.4-.6-.9-.1zm12 7.5v.4l.4-.1zm-2.3 0l-.5.1.3.3zm-7.2.7l-.5.1.3.4zm6 .2h-.4l.2.4zm5-4.8l.3.5.3-.6zm-6.8 4.2l.3-.5h-.6zm-3-7.7l-.9.1.5.9zm4.8 4.1l.4-.8h-1zm-6 .4l-.8.5.8.5zm2.9 1.3l-.7.4.7.4zm-2.7.6l.2.3.2-.4z"/><path d="M238.6 48l-.2.3h.4zm3.3 2.9l-.3-.1v.3zm-1.1-1.6l-.3.5.7.1zm2.5 3.7l-.3-.1.1.4zm-5.4-6.9l-.2 1 1.1-.4zm-.9 4l.2.8.7-.6zm5.6-5.3l-1.2.6 1 .9.4-.6zm-1 1.3l-.8.4.7.7.3-.6z"/><path d="M241.7 47.4l-.7-.4-.6.1.2 1.4zm-5.2 2.7l-.9.5 1 .5zm5.5-4.5l-1.6-.2.6 1.3zm-1.4-.9l-.6-.2-.7.2.6 1zm5.1 2.3l-1.3-.3.2 1.4z"/><path d="M246.2 47.9l-1.3-.3.2 1.4z"/><path d="M245.5 49.2l-.5-.8-.6.9zm-5.7-2l-.7-1-.6.5-.2.6zm-1.1.8l-.9-.5-.2 1.2zm-1-1.4l-.7-1-.8 1.2zm6.1 3l.4-.9-1.2-.1zm-2.1.1l.9-.4-.7-.8zm8.5-2.9l.7-.2-.6-.6zM236 50l.9-.3-.7-.8z"/><path d="M232.1 49.8l.7-.3-.5-.6zm18.9-4.6l.5.5.3-.8zm-9.6 3.9l-.2-.9-.9.6zm-.1-2.9l-1.3-.4.2 1.4zm3 .2l-1.3-.3.2 1.4zm-.3 1.5l-1.2-.3.1 1.4zm-1.5-.2l-.7.4.6.6zm-2.9 2.8l-.3-.3-.1.4z"/><path d="M239 49.3l-.5-.6-.3.9zm2.3-1.1l.2.5.4-.5zm1.8-2.5l-.1.5.5-.2zm1.4 2.6l-.3-.8-.7.7zm-3.8-.7l-.8-.3v1z"/><path d="M239.9 47.7l-.8-.4v1zm-1.8-.9l-.7-.3v.9zm5.9.5l-.1-.3-.4.3zm1.1 3.8v.5l.5-.2zm-1.6.7h-.4l.2.4zm.5-1.5v.4l.5-.2zm-1.2-1.9l.1-.5-.6.1zm.2-1.9l-.9.2-.1.4 1 .7zm-.4-.3l-.3.3h.4zm.8 2.2l-.2.3h.5zm-1.7 1.6l-.2.4h.4zm2.8-3.4l-.2-.2-.2.4zm3.3 3.1l.1-.5-.5.1zm-.9 1.1l.1-.4h-.5zm-9.5 1.4l.1-.5-.5.1zm9.2-3.6l.1.6.6-.4z"/><path d="M238.7 46l.6.7.4-1zm4.7 1.1l.1.5.5-.3zm3.6 2.7l-.2-.3-.2.4zm-10.4 3l-.3-.3-.2.4zm6.8-3.2l-.4.1.4.3zm-.6-.4l-.1-.4-.3.3zm-21.9 1.5l1.4.5-.1-1.7zm14.7.2l-.5.1.3.4zm-3.3-3.1l-1.1.2.8 1zm-2.9 2.8l-.3-.4-.3.4zm3.8.7l-.3-.6-.5.5zm-8.3-1.1v1l1.1-.4zm9.1-4.1v1l1-.4zm1.8-.1l-.1.6.7-.3zm-.2 1.2v.6l.6-.2zm-17 6.9l-.6 1.5 1.4-.1zm-.7 1.6l-.3 1.3 1.2-.6zm2.8 1.9v.6l.6-.2zm-1.4-.1v.5l.6-.2zm9.1-9.7l-.4.8h1zm-1.7 3.1l-.2-.4-.4.4zm-.3.9l-.4-.8-.6.7zm6.9-3.4l-.4.9h1.1zm-2.3 2.4v.5l.5-.2z"/><path d="M223.3 55.1v.4l.5-.1zm-.4 2.6l-.5-.1.1.5zm-2.6-2l-.1 1.1 1-.4zm-1.5 0v1.1l1-.4zm1.1 3.2l-.1.5.6-.2zm16.4-12.1l-.1 1.3 1.5-.5zm-2.2 1.4l1.1.4-.1-1.4zm-1.6-1.9l1 .4-.1-1.2zm3.2.1l-.8.1.5.8zm-13.8 10.8h.4l-.1-.4zm.4-2.3v.3l.3-.2zm4.3.8l-.3.2.3.2zm-4.5 3.7l-.3.2.3.2zm-1.6 1.1l-.2.2.3.2zm4-5.1l.1.3.3-.3zm-1.8.6l.2.5.4-.5zm4.4-.8l-.2.1.3.2zm8.1-6.1l-.4-.4-.2.6zm16.5-2.2l.5.4.1-.6zm3.1 2.4l.6.9.6-1-.7.1zm3.4-1.3l-.8.6.9.4zm-3.6 4.2l-.5.1.4.4zm2.4.1l-.5.2.4.4zm-.9-1.4l-.4-.7-.5.8zm2.4-1.1l-.4-.6-.5.7zm-3.9 1.5l-.4-.6-.5.7zm-1-1.7l-.4-.7-.4.8zm3.3 0v-.9l-.9.4zm-1.5 4l-.2-.3-.2.4zm-.1-1.8v.5l.5-.3zM254 53l-.4.2.4.3zm.6-3.7l-1 .1.5.9z"/><path d="M253.3 52.7l.3.2v-.4zm-.1-2.2l.3.2v-.5zm3.2.7l.2.6.4-.6zm-.6-1l.7-.1-.4-.7zm1.1-1.4l.4.6.5-.6zm.3 1.9l.4.5.3-.6zm-30-2.3l.1.9 1-.5zm-6.1 5l.3.5.3-.5zm-1-.7l.4.8.6-.9zm.3-1.4l.7.7.3-1.1zm11-4.9l-.2.4.5.1zm-.6-.2l-.2.5h.5zm5.3 2.1l-1-.2.3 1.1zm-.7 1.3l-.8-.2.2 1zm10.1.1l-.9-.2.3 1zm-14.1-3.5l.5-.7-1.1-.2z"/><path d="M231.5 47.3l-.6-.7-.4 1zm-.6-.9l-.3-.9-.8.7zm-.8 1l.5-.8-1-.2zm3.3-1.3l.5.1-.1-.6zm-.9.1l-.8-.3.1.9zm-.9-1.3l.1.6.6-.3zm3.6.1l-1.2.5 1 1zm-15.3 13.1v.4l.5-.1zm1.2-4.8h-.4l.2.4zm-2.4 6.1l-.4.1.3.3zm.6-.5l-.1-.4-.3.4zm0-4.1l.9.6.2-1.2zm3.6-1.8l.4.1v-.5zm-2.7-1.5l-.5.8 1.1.2zm1.3 3.8l-.1.7.8-.3zm.9-3.7l-.8-.1.2.9zm1.3 2.1l-.9.1.5.8zm-1.2-1.2l-.9.1.6.8zm2.1-2.2l-.8.1.5.8zm-5.9 3.5l1.4.2-.5-1.6zm-1.1 3.4l-.3 1.2 1.5-.3zm4.2-.9l-.6.2.5.6zm-2.5.7l.7.2-.1-.8zm1.2 1.9v.4l.4-.2zm-1.2.9l-.3.1.2.3zm8.7-9.3l-.5.4.6.3zm-.8-1.1l-.5.3.6.4zm-2-.3l-.8.6 1 .5z"/><path d="M228.6 48.9l-.4.3.4.3zm-2.1 1.8l-.4.3.5.3zm1.1-.2l.3.3.2-.4zm-6.9 3.7l.3.7.6-.6zm3.1-1.7l.2.3.2-.4zm7.2-3.6l.2.3.2-.4zm-1.4.2l.2.2.2-.3zm-.4-.8l.4.4.3-.6zm-5.2 3.1l.2.3.2-.4zm3.1-1.2l-.4.3.5.3zm-.8 0l.3-.6h-.8zm-.7-1l.3-.9h-1.1zm2.4.8l-.3-.2-.1.4zm-1.1 1.2l-.3.2.4.2zm-1.5-.3l-.3-.3-.1.5zm-6.4 9.9l.3-.3-.4-.2zm-1.3 1.8l.2-.2-.3-.2zm.3-1.4l.3-.3-.4-.1zm-.3 2.1l.3.3.1-.5zm.5-1.1l.5-.2-.5-.3z"/><path d="M219.3 61.8l.4-.2-.4-.3zm-1.9-2.9l.5.5.3-.7zm.4.6l-.5.8 1.2.1zm-.5 1.2v.9l.7-.4zm.4 2l-.2.3.4.1zm5.2-11l.6.5.3-.9z"/><path d="M223 49.1l-.4.9 1 .1zm.7 1.9l-.2.3.5.1zm-.7-.5l-.3.6.8.1zm3.5 1.6l-.7-.2.2.8zm-3.3 0l-.6-.1.1.7zm11-4.4l-.8-.2.2.9zm-1.4-.3l.5.2V47zm.3-3.4l.9.8.3-1.2zm-1.2 2.9l-.1.9.9-.3zm0-2.2l.8.7.4-1.1zm-3.2 2.9l1 .2-.3-1.1zm4.3.5l-.5-.1.1.5z"/><path d="M232 50.5l-.3-.1.1.5zm-7 1.6l-.3-.1.1.5zm1.1-3.8l.4.8.6-.8zm6.8-3.6l.7.6.3-.9zm-9.6 4.2l.9.8.4-1.3zm3.6 4.4l.3.4.2-.6zm6.7-3.2l.4.3.2-.4zm-3.7-1.7l.3.6.5-.5zm1-.8l-.4.5.7.1zm-1.1-.3l.3.6.5-.6zm-.9.6l.3.6.5-.5zm.3 1.7l-.4-.1.1.4zm1.6.5l-.4-.1.1.5zm-3.4 3.6l.3.3.2-.5zm-.1-1.4l-.1.3.4.1zm-1.9-.6l-.2-.4-.4.4z"/><path d="M225.9 54v.5l.5-.2zm-.9-2.2l-.4.4.5.3z"/><path d="M224.7 51.8l.2.3.2-.4zm-2.2 1.7l-.6.4.8.3zm1.5.4l.4.3.1-.5zm2.1-1.1l.4.3.1-.5zm-1.7 2.2l.3.3.2-.5zm.5-2.3l-.2.3h.5zm12.8-4.1l-.9-.3.2 1.1zm-6.7.6l-.4-.1.1.5zm-5.2 4.8l-.4-.1.1.5z"/></g><g xmlns="http://www.w3.org/2000/svg" fill="#af2500"><path d="M238.1 59.4l.4-.5-.7-.1zm7.4 1.8l.5-.7-.9-.2zm1.9 0l-.9-1.2-.9 1.2zm-3.4-.1l1.2.1-.3-1.2zm-7.2-2.7l.4-.2-.4-.3zm-.9-1.1l-.3.4.6.2zm-2.4-.1l.5.4.2-.6zm2.3 1l.5.6.4-.9z"/><path d="M236.7 58.5l-.6.6.9.4zm7.5 2.6l-.3-1-1 .9zm-6-1.2l-.2-1.1-.9.7zm2.1.5l-.4-1-.8.8zm-6.6-4.1l.3-.2-.3-.3zm3.8 2.6l-.2-.5-.4.4zm7-2.9l.4-.2-.4-.2zm-8.9-.1l.3.3.1-.4zm1.2.7l-.5-.1.1.6zm1.2 0v-.4l-.4.1zm-3.4-1.4h.4l-.2-.4zm7.8.5l.4-.1-.2-.4zm-4.2-.6h.4l-.2-.5zm.8.5l-.3.4.5.1zm2.3 5.1l.9.2-.2-1zm-4.5-3.6l-.5.8 1 .1zm5.4-.2l-.1-.3-.3.3zm1.9 1.6l.5-.5-.7-.2zm-2.5-2.4l.2.2.1-.3zm-.8-.9l.2.1v-.4zm4 4.9l.2-1-1.1.3zm-4.5.4l1 .1-.2-1.1-.6.2z"/><path d="M241.1 59.7l.8-.3-.6-.7-.4.5zm1 .9l.6.3.6-.1-.4-1.1zm.8-1.8l.7 1.1.6-.4.3-.7zm1.8-.9l.7.4.2-.9zm.3 1.7l.6 1.1.9-1.1zm-6.1-.5l-.7.8 1.1.3zm1.3-1.1l-1 .3.7.9zm6.7-1.3l-.6.2.4.5z"/><path d="M250.9 57l-.7.2.4.6zm-9.5 2.7l1.2.4v-1.4zm-6.6-1.3l1 .5-.1-.9zm5.6-.3l.8-.3-.6-.7zm2.4-.9l.3.3.2-.4zm-1.2.4l-.1-.4-.4.4zm-2 2.4v-.5l-.5.1zm-1.9-2.2l.2.8.7-.6z"/><path d="M241.4 58.3l.7.5.1-1zm1.1 0l.7.4.1-1zm2.1 1l.7.5.1-1zm-5.8-1.1l.1.4.3-.3zm1.4-.9l-.2.5.5-.1zm0 2.1l.9-.1.2-.4-1-.8z"/><path d="M240.1 59.5l.3-.2-.3-.1zm-.6-2.3l.2-.3h-.4zm1.1-1l.2-.3-.3-.1zm-2.4 2.7l.2.3.3-.4zm-3.1-1.8l-.1.5.5-.1zm2.6.5V57l-.6.3zm6.3 2.5l-.6-.8-.5 1zm-4.7-1.6V58l-.5.3zm-4.6-2.2l.2.4.2-.5zm11.4-.5l.2.4.2-.4zm-6.5.3l.4-.1-.3-.4zm.6.4l.1.4.3-.3zm-5.5 11.7l-1.4.3.9 1.3zm10.2-11.1h.5l-.3-.5zm5.7 2l1-.1-.6-.9zm2.9-3.8l.2.5.3-.4zm-3.4.4l.1.4.3-.3zm-18.6 15l-.5-1-.8.9zm17.1-10.2l.2-1-1.1.3zm-1.8-.1l.1-.5-.6.1zm.3-1.2l.2-.6-.7.2zm-11.9 4.9l-.3-1.6-1.2.8zm-.4-1.7l-.4-1.3-.7 1.1zm-3.3-.4l-.3-.5-.4.5zm1.3-.5l-.3-.5-.4.5zm-3.6 9.8l-.1-.9-.9.5zm.4-.5l.4.3.1-.6zm-.1-.8l.6.4.2-.9zm20.1-11.8l.3-.6h-.8zm2.5-2l.1-.5-.5.1zm-21.6 9.4l-.2-.5-.4.4zm-.9-2.5l.4-.2-.3-.4z"/><path d="M232.8 63.6l-.5-1-.7.8zm1.3-.8l-.5-1-.7.9zm-2.5-2.3l-.2-.4-.4.4zm14.8-1l.3-1.3-1.5.4zm2.4-1.1l-1.1-.5v1.4zm1.3 2l-.9-.4v1.1zm5.1-1.1l-.9-.5-.2 1.1zm-8.2.8h.8l-.4-.9zM230.6 63l-.3.2.3.3zm.9 2.2l-.2-.2-.1.3zm-4.2 1.4l.2-.3h-.4zm2.1-5.4l.2-.3h-.4zm.8-1.7l.2-.3-.4-.1zm-.9 6.4l-.3-.3-.1.5zm1.3-1.4l-.4-.3-.2.6zm-3.5 2.9l.2-.3h-.4zm20.7-10l.4.4.2-.6zm-17 15.2l-.4-.9-.7.8zm2.4-6.7l-.5-.3-.1.7zm1.3.2l-.8-.5-.1 1zm.3 1.4l-.9-.3.2 1.1zm16.4-7l.3-.4-.5-.1zm.6.2l.6-.2-.8-.3zm-5.1-2.4l.7.2-.1-.8z"/><path d="M247.7 56.9l.6.2-.1-.7zm-9.8.1l.8.3-.1-1zm13.3 2.5l.6.8.5-.9z"/><path d="M252.2 59l-.6.8 1 .2zm-2.9 1.6l-.6-.2.1.6zm.8.4l1.2-.2-.4-.8zm-2.6.2h1.2l-1-1.2zm-15.5 0l-.2-.4-.4.4zm1.3 4.8l.3-.2-.3-.3zm-.9-6.4l.3-.3-.5-.1zm-.3.7l.3.2.1-.4zm2 3.6l-1-.2.4 1.2zm-2.2 3.3l-.5.1.3.4zm3 0l.1-1-1.1.4zm-2.9-2.7l-.3-.7-.6.6zm1 3.7l.7-.3-.6-.7zm-2.2-1.3l.7-.5-.8-.5zm1.7.5l.6-.5-.8-.4zm-.9 3l.7-.5-.8-.5zm3.6-6l-1.4.6 1.3 1.1zm-.9-3.4l-.5-1.2-1 1.1zm-3.2 2.8l.5-.5-.7-.3zm1.9-1.9l-.7.2.6.7zm-1.9-1l-.3-.4-.2.4zm.5-1.4l.3-.3-.4-.1zm-4 10.9l.3-.6h-.7zm2.3 2l.2-.5h-.6zm1.8-.7l.5-.9H231zm-3.4-1l.2-.5h-.5zm1.5.2l.2-.4h-.5zm.4-1.9l-.4-.2.1.5zm3-4l-.7-.5-.2.9zm-1.9 3.1l-.3-.2v.4zM251.9 58l-.2-.3-.2.3zm1.4 0l-.2-.3-.2.3zm.3.8l-.3-.4-.4.5zm-21.9 10.3l-.4-.1v.4zm-2.2 2.6l.2-.5h-.5zm.7-.4l.1.7.7-.4z"/><path d="M231.5 71.5l.2.9.9-.6zm-2.3.4h.4l-.1-.4zm0-1.2l.2-.3h-.5zm1.5-.4h.4l-.2-.4zm.7-11.9l-.1.5.5-.1zm1.4-1.2l-.1.4.4-.1zm-.6 1.1l-.1.4.4-.1zm-.3-1.4l-.4-.1.1.4zm.3.7l-.2.4h.5zm1.3 3.6l-.2.3.5.1zm.1-1.7l-.6-.2.1.8zm-.1-.1l-.3-1-.9.7z"/><path d="M233.2 58.4v-.7l-.6.3zm-.7 9.9l-.8-.1.2.9z"/><path d="M233.7 70.6l-.1-1-1 .5zm-1.6-1.3v-.4l-.4.2zm.9.1v-.8l-.8.4zm-3.9.4l.8-.2-.6-.6zm2.9-1.7l.7-.2-.6-.6zm16.6-9.2l.8.3-.1-.9zm1.6.8l-.6-.3v.7zm.5.3l.3-.9-1.1.2zm3.3 0l-.9-.7v1zm-4.1-1.4l.4.2-.1-.6zm1.1-2.3l.4.1V56zM230.4 69l.4-.1-.3-.3zm1.3 3.4l-.6-.7-.4.9zm1.9-1.6l-1.2-.4.1 1.3zm-5.4-2l-.5-.1.2.5zm21.2-12.3l-.3-.3-.2.4zm6 2.7v-1.1l-1.1.6zm-1.5-1.2l.9.3v-.9z"/><path d="M254 57l-.6.3.6.5zm1 1.4l.8.3-.1-1zm.7-3.7l.3.3.1-.5zm-.6 2.3l.5-.2-.4-.4zm3.7-3.1l.2.3.3-.4zm-2.3 3.2l-.1-.6-.5.3zm2-1.3l.3-.7h-.8zm-2.4 2.7l.9-.9-1.4-.5zm1.9-2l-1.2-.2.3 1.3zm-.3-.6l.4.3.1-.6zm-2 .3l.7.1-.3-.8zm1.4-1l.6.1-.3-.7zm2-.6l-.4-.3-.1.5zm-6.2 4l-.1-.6-.6.5zm-1 .8l.4-.5-.7-.2zm1 .4l-.2-.6-.5.4zm.9-.6l-.1-.6-.6.5zm.3-2.9l.4.2V56zm-1.8.6l.3.1v-.5zm-24.7 11.8l-.5-.1.1.5zm.7 1.3v-.4l-.4.2zm2-.4l.4.2.1-.5zm-1.5-1.9l-.3-.4-.3.5zm2.7 1.4l.2-.5-.6-.1zm-.6 0l-.4-.2.1.5zm1.1-2.6l.2-.6-.7.1zm-1.5.4l-.5-.1.1.6zm-1.4 2l-.5-.1.2.5zm.5-2.7l-.5-.1.1.5zm.7 2.2l-.1-.3-.4.2zm3.5-10.5l.9.4-.1-.7zm18.2-.2l.3.1v-.4zm-23.1 10l.3-.1-.3-.4z"/></g><path xmlns="http://www.w3.org/2000/svg" d="M253.5 77.1c-1.8 0-3.3-2.5-3.3-5.3s1.5-5.3 3.3-5.3c.3 0 .7.1 1 .2v-1.1c-.3-.1-.6-.2-.9-.2-2.4 0-4.3 2.9-4.3 6.4s1.9 6.4 4.3 6.4h.4l.1-1c-.3-.2-.5-.1-.6-.1z" fill="#fff"/><path xmlns="http://www.w3.org/2000/svg" d="M257.8 71.7c0-3-1.4-5.6-3.4-6.2v1.1c1.3.7 2.3 2.7 2.3 5.1 0 2.6-1.2 4.8-2.8 5.2l-.1 1c2.3-.2 4-2.9 4-6.2z" fill="#ccc"/><path xmlns="http://www.w3.org/2000/svg" d="M306 420.5l-16.6-31.6 24.1-11.7 20.8 37.8-28.3 5.5z" fill="#ea9d7d"/><linearGradient xmlns="http://www.w3.org/2000/svg" id="bt-A" gradientUnits="userSpaceOnUse" x1="310.547" y1="401.399" x2="306.398" y2="391.95"><stop offset="0" stop-color="#cc7a5e" stop-opacity="0"/><stop offset=".924" stop-color="#aa5f4b"/></linearGradient><path xmlns="http://www.w3.org/2000/svg" d="M309.2 402.1c10-4.1 13.8-7.5 13.8-7.5l-8.9-17.2-24.7 11 8 16.3c0-.1 4.6.3 11.8-2.6z" fill="url(#bt-A)"/><path xmlns="http://www.w3.org/2000/svg" d="M289.8 388.1l-.8.4 17.2 33 .8-.4-17.2-33z" fill="#af614b"/><path xmlns="http://www.w3.org/2000/svg" d="M371.2 411.6l-1-2.3-63.8 21c.5 1 .7 2.3 1.1 3 .6 1.3 2 1.9 3.3 1.4l58.7-19.5c1.5-.5 2.3-2.1 1.7-3.6zm-1.6-3.3c-1.8-2.6-10.2-5.1-15.6-5.4-.5 0-1.1-.1-1.7-.1l.9 12 16.9-5.6c-.1-.2-.2-.5-.5-.9z" fill="#fed6d6"/><path xmlns="http://www.w3.org/2000/svg" d="M343.7 401.4l-1.2 7.3c-.1.6-.6 1-1.1 1h-.5c-.6-.2-1-.8-.9-1.5l1.2-7.3-2.8-.5-2.3 8a1.44 1.44 0 0 1-1.1.9c-.2 0-.4 0-.5-.1-.6-.2-1-.9-.8-1.6l2.2-7.8-2.2-.5-9-12.7s-3.2-.2-2.7 4.2c.3 2.4 1.2 4.7 1.2 4.7l-24 12.9c-.8.4-1.3 1.4-1 2.4.7 2.2 2.3 6.7 4.9 12.3.8 1.6 2.5 5.7 3.2 7.1l46.8-15.4-.9-12a164.12 164.12 0 0 1-8.5-1.4z" fill="#ad203a"/><path xmlns="http://www.w3.org/2000/svg" d="M334.7 409.3c.2 0 .3.1.5 0a1.44 1.44 0 0 0 1.1-.9l2.3-8-2.5-.5-2.2 7.9c-.3.6.1 1.3.8 1.5zm6.4.5h.3c.5-.1 1-.5 1.1-1l1.2-7.3-2.5-.5-1.2 7.4c-.1.6.4 1.3 1.1 1.4z" fill="#fff8f8"/><path xmlns="http://www.w3.org/2000/svg" d="M316.1 422.6c2.7-1.6 3.7-5 2.2-7.8-1.6-2.7-5-3.7-7.8-2.2-2.7 1.6-3.7 5-2.2 7.8s5 3.8 7.8 2.2z" fill="#fed5d5"/><path xmlns="http://www.w3.org/2000/svg" d="M318.2 398.4l12 9.8 1.6-.7-8.5-12-5.1 2.9z" fill="#92142c"/><path xmlns="http://www.w3.org/2000/svg" d="M328.2 406.8c.1.1.3.2.5.2.5.1 1-.2 1.3-.6l4.3-6.9c-.6-.2-.6-.4-1.8-2l-4.7 7.6c-.4.6-.2 1.3.4 1.7z" fill="#fff8f8"/><g xmlns="http://www.w3.org/2000/svg" fill="#442624"><path d="M306.7 430.9l-.5-1.2 63.8-21 .4 1.2-63.7 21z"/><path d="M353.9 414.8l-1.3.1-.9-12 1.3.1.9 11.8z"/></g><g xmlns="http://www.w3.org/2000/svg" fill="#dd5472"><path d="M343.2 410.6l.8-.3-.8-.4v.7zm3.5-1.7l.8 1.1.4-1.3-1.2.2zm-23.1-17.5l-1.4-.2.3 1.6 1.1-1.4zm.3-3.1l.4 1.5.9-1.3-1.3-.2zm25.4 14.7l.3 1.3.9-1.4-1.1-.2.2-.2-1.1-.2.3 1.3.5-.6zm-24.7-7.5l1.4.5-.6-1.5-.8 1zm-2.1-5.7l-.2 1.3.8-.5.9 1.2.3-1.6-1.1.3.2-.1-.9-.6zm17.4 13.1l-1.3.3.9 1.3.4-1.6z"/><path d="M340.2 406.1l.4-1.6-1.3.3.9 1.3zm10.6 1.7l.8 1 .4-1.3-1.2.3zm-6.7-6.3l-.5 1.3h1.5l-1-1.3zm-20.9-6.8l1.4-1.3-.2 1.2 1.1-.7-.9-.5.1-.1-2.4-.5.5 2 .4-.1.4 1.3 1.1-1.1-1.5-.2zm-5.7 6.1l1.5-.4-.7-.6.8-.9-1.6-.1.3.6-.3 1.4zm20.1 3.7l1.5-.1-1-1.3-.5 1.4zm-26.4.1l.8-1-1.4-.1.6 1.1zm-4.1 1.6l-1.3.3.7.8.6-1.1zm-3.4.1l-1.2.6.9.7.3-1.3zm5.2-1.6l-1.3.3.8.9.5-1.2zm-8.2 3.2l-1.2.6.9.7.3-1.3zm47.1-4.5l-.5 1h1.3l-.8-1zm-1.9-1.6h-1.1l.5 1.2.6-1.2zm-.5 2.7l.9 1.3.4-1.5-1.3.2zm-.7-1l-1.1.3.7.7.4-1zm.4.2l.9.1-.5-.8-.4.7zm4.1 2.8l.7-.7-.8-.2.1.9zm-43 3.8l.5-.9-1.1.2.6.7zm-5.5-.8l.7.8.4-.9-1.1.1zm8.2-4l.9.2-.4-.8-.5.6zm-5.3 3.8l.6-.7-.8-.2.2.9zm-1.3 8.9l.6-.7-.8-.1.2.8zm.4 3.9l.6-.7-.8-.1.2.8zm30-17.5l-1-.5.1 1 .9-.5zm1.1-1v.9l.9-.5-.9-.4zm6-1.3l.3-.9-.8.2.5.7zm-5-.1l-.8.2.5.8.3-1zm1.7 7h.9l-.3-.7-.6.7zm-3.7-7.2l-.5.7h.8l-.3-.7zm1.1 8.5l.9-.2-.7-.9-.2 1.1zm-18.6-9.4l.8-.3-.8-.8v1.1zm17.5 5.5l-.5-.7-.5 1.3h.3l1 .8.2-.8h.1l-.1-.1.1-.7-.6.2zm-10.1-18.8l-.5 1.7 1.9-.2-1.4-1.5zm-18.1 20.3l.9-.2-.8-.6-.1.8zm8.7-6.6l-.8.5.8.3v-.8zm3.9-2.6l-.8.5.9.3-.1-.8zm-5.2 3.9l.3-.7-.7.1.4.6zm18.1 6l.6.2-.1-.8-.5.6zm13.6-2.6l.7.1-.2-.6-.5.5zm-5.5 4.2l.4-.3-.4-.3v.6zm.3-4.8l.2-.5-.5.2.3.3zm12.2-.6l-.5.5.7.1-.2-.6zm-2.6 3.5l.3-.7h-.7l.4-.3-.4-.3v.6h-.2l.6.7zm.1-6.1l-.5.3.3.3.2-.6zm-26.9 1.4l.3-.5h-.6l.3.5zm-8.7 1.3l.9.2-.3-.8-.6.6zm-2.3.9l.9.2-.3-.8-.6.6zm-1.8.8l.4-.5-.7-.2.3.7zm1.2-3.3l-.8.3.5.4.3-.7zm8.5-1.7l-.7-.2.2.6.5-.4zm-15.6 8.4l-.2-.8-.7.5.9.3zm-1 .6l-.7.5.9.3-.2-.8zm.9 4.1l-.2-.7-.7.5.9.2zm28.6-7.2l.5-1.3h-1.5l1 1.3zm-11-5.4l.7.6.2-.8-.9.2zm4.5-4.9l.6-1.5-1.4.3.8 1.2z"/><path d="M324.7 392.3l-1-.5-.2 1.2 1.2-.7zm-5.4 9.5l.2-.8-.8.1.6.7zm-2.5-1.6l-.7 1.4h1.4l-.7-1.4zm-9.7 4.3l-1.2.7 1.2.9v-1.6zm-2.1 1.1l-1.2.7 1.3.9-.1-1.6zm-2.7 1.2l-1.2.7 1.2.9v-1.6zm8.7-2.7l-.7-1.4-.7 1.4h1.4zm-10.6 6.4l-1.2-.9.1 1.5 1.1-.6zm17.2-4.2l.5-.4-.6-.2.1.6zm6.6-18.8H323l.8 1 .4-1zm-8 16.1l.9.1-.4-.9-.5.8zm2-.4l.8-.6-1-.3.2.9zm26.6 2.3l.3.3v-.4l.3-.1-.3-.3-.1-.4-.2.2-.1-.1v.1l-.5.4.3.2v.2l.3-.1zm3.9 3.7l.8-.3-.6-.5-.2.8zm-6.5 1.8l.4-.8h-.8l.4.8zm-2.1-9.5l.9.5-.1-1.1-.8.6zm-2.5 5.1l.5.8.3-.7-.8-.1zm7.1 1.5l.9-.2-.6-.9-.3 1.1zm-5.1-7.1l-.9-.1.3.7.6-.6zm6.5 1.9h0l.9.6-.1-.4h1.1l-.8-1-.3.7v-.3l-.5.3-.1-.6-.6.5.4.2zm4.7 3.2l-.3.8.8-.3-.5-.5zm-6.9 2.5l.4-.7-.9-.1.5.8zm3.2-3.2l-.1.9 1-.4-.9-.5zm4.3-.1l.3-.9-.8.1.5.8zm-3.6 6.4h.9l-.4-.7-.5.7zm3.8-9h-1l.4 1 .6-1zm-44.9 6.1l2.2-.6-1.9-1.4-.3 2zm7.7-8.2l-.7 2.1v-.1l-.7 1.4h1.4l-.5-1.2 1.9-.3-1.4-1.9zm-13.7 13l.8-.4-1.2-.9.1 1.3-1.1-.2.7 1.9 1.7-1.6-1-.1zm-2.2-2.3l.7 2 1-1 .7-.6-2.4-.4zm1.7 4.3l.8 1.9 1.6-1.7-2.4-.2zm1.4 3.6l.5 1.4 1.2-1.2-1.7-.2z"/></g><g xmlns="http://www.w3.org/2000/svg" fill="#ad5c49"><path d="M298.2 399.4l1.1.4-.1-1.3-1 .9zm2 5.6h-.8l.5.7.3-.7zm6.2-1l.8-.4-.8-.6v1zm-5.1-1.8l.3.8.4-.8h-.7zm6.6-.7l.6-.5-.8-.3.2.8zm-4.6 1.8l-1 .9.9.3v.7l.8-.4-.7-.5v-1zm-1.9.6l-.8 1.2 1.6.1-.8-1.3zm3.7.7l.8-1h-1.3l.5 1zm2.3-9.3l.1 1.3 1-.6-1.1-.7zm9.3-5.1l1.1.8.1-1.2-1.2.4zm-6.8 5.1l.9-.9-1.1-.4.2 1.3zm-6.7 2.8l1.1-.6-1.1-.7v1.3zm-2.5 9.2l.9-.8.6.6.3-.8-.7.1.2-.2-1.6-.2.1.2-.7-.4.1 1.5.8-.5v.5zm2.1-.7l1-.7-1.2-.6.2 1.3zm-4.7-8.6l-2.6 1.2 2.4 1.2.2-2.4zm7.4-1.1l1.4.1-.9-1.5.3.1-.1-.7-.6.4v-.5l-2.4 1.1 2.2 2 .1-1zm.1-1.5h0v.3-.3z"/><path d="M304 402.9l.2-.7-.3.1-.2-1.3-1.2 1.3 1.5.8v-.2zm-1-7l-1.7.8 1.2 1.3.5-2.1zm-7 4.1l.5.7.4-.7h-.9zm12.1-1.4l.8-.3-.8-.7v1zm5.9-6.3l1.3-.4-1.3-.6v1zm-4.8 4.7l-.1-.7-.7.5.8.2zm2.1.9l-.1-.7-.7.5.8.2zm-10.6.3l.3.6.8-.9-1.1-.2.1-.9-2.4 1 2.1 1.9.2-1.5zm11.1-3.7v-.9l-.9.6.9.3zm-8.5 6l.5-.7-.8-.1.3.8zm.7-.6l-.3.7.9-.1-.6-.6zm2.3 2.8l.8-.9-1.4-.2.6 1.1zm-6.4.2l.8.8.5-1.2-1.3.4zm6.7-3.1l1-.6-1.1-.7.1 1.3zm8.8-8.5l1.6.5-.5-1.4-1.1.9zm-17.4 9.9l.4.8.8-.9-1.3-.3.1.2-.9.8 1 .4-.1-1z"/><path d="M309.4 393.1l-3 1.4 2.8 1.6.2-3zm2.8.3l.1-1.4-1.4.7 1.3.7zm2.5.7v-.8l-.9.4.9.4zm-15.4 8.8l-.3.5.2-.5.2-.4-1.3.4h.1l-.5.1.9 1 .2.2v-.2l1.4.1-.9-1.2zm6.3-3.1l1-.7-1.2-.6.2 1.3zm-3.7-.4l-2 2-.8.2.7.7.2-.6 2.7.2-.8-2.5z"/></g><path xmlns="http://www.w3.org/2000/svg" d="M323.7 383.2l-27.2-84.1c-5.2-16.3-24.1-69.1-32.7-93h-21.4l-39.8 27.5 41.4 83c9.3 16.8 14.3 24.9 21.7 39.5 4.7 9.4 17.3 36.2 21.2 44.2.5 1.1 1.9 1.6 3 1.1l31.9-14.1c1.6-.5 2.5-2.3 1.9-4.1z" fill="#341413"/><g xmlns="http://www.w3.org/2000/svg" fill="#1e0700"><path d="M276.8 352.1l.9-.5-1-.6.1 1.1zm-3-4.5l-1.6.6 1.1 1 .5-1.6zm-.2 20.3l.5 1.6 1.5-1.4-2-.2zm-1.9-2.2l.8 1.5 1.3-1.6-2.1.1zm-6.4-14.8l1-1.2-2.1.1.6 1.1h-.6l.7 1.3 1-1.3h-.6zm13.1 27.3l.7-1.9-2 .7 1.3 1.2zm-4.2-18.1l-1.9.8 1.3 1.1.6-1.9zm-1.3-3.4l-1.9.8 1.3 1.2.6-2zm-9.5-8.2l.5-1.6-1.6.6 1.1 1zm18.8 25.1l-.7 1.9 1.8-.3-1.1-1.6zm-1.8 6.7l-.4 2 1.7-.6-1.3-1.4zm7.2 2.4l-1.3-1.5-.4 2 1.7-.5zm7-12.1l-.8 1.9 1.8-.2-1-1.7zm-12.8-6.3l-.5 2 1.8-.5-1.3-1.5zm-4-1l1.7-.5-1.2-1.5-.5 2zm4.5 23.4l1.7-.6-1.3-1.4-.4 2zm5.1 9.1l1.4-.5-1.1-1.2-.3 1.7zm3.1-7.7l-.3 1.7 1.4-.4-1.1-1.3z"/><path d="M288.8 399.7l1.4-.4-1.1-1.3-.3 1.7zm-21.6-49.1l-.4 1.6 1.4-.3-1-1.3zm1.2-18l-1-.2.3.9.7-.7zm.6 23.3l-1.6.6 1 .8-.2.7 1.8-.4-1.1-1.3.1-.4zm4.2-2l-1.9.8 1.3 1.1.6-1.9zm-4.6-.1l-.4 1.1 1-.1-.6-1zm.3-5.4l-1.2-.1.3.9.9-.8zm19-7.1v.9l.7-.3-.7-.6zm-2.4-2.9l-.7.2.4.5.3-.7zm5.6-.8l-.4.5.7.1-.3-.6zm-6.8 41.3l-.7-1.2-.6 1.3 1.3-.1zm-3.4-6.3l.9-.9-1.2-.1.3 1zm9.5 1.1l-.9.6 1 .5-.1-1.1zm-10.2-5.7l.9.9.7-1.9-1.2.4-1-.5.2 1.4.4-.3zm1.6 11l1-.8-.4-.2.2-.8-1.2.2.3.3-.2-.1.3 1.4zm-3-13.2l-1.2-.6.2 1.4 1-.8zm-7.4-3.3l.4-1.1-1.1.4.7.7zm1.6 2.2l.4-1.1-1.1.5.7.6zm7.1-4.9h1.2l-.6-.9-.6.9zm-2.8 7l-.6.9 1.2.1-.6-1zm14.7.4l-1.3.7 1.4.4-.1-1.1zm-7.5 4.1l1-.4-.8-.8v.3l-.9-.4-.2 1.4 1-.6-.1.5zm3.7-9.9l-1.2.2.5.8.7-1zm-9.5 9.9l-1.2.8 1.4.4-.2-1.2zm-.8 3.6l1.3.4-.2-1.2-1.1.8zm-2.4-1.9l.8 1.9 1.3-1.5-2.1-.4zm14 10.6l2-1.1-2-1.4v1.4l-.4-.1.1 1.4.3-.3v.1zm2.7-6.7l-1.2.3.7.7.5-1zm-7.7 2.8l-.9.7 1.2.2-.3-.9zm-1.8 8.2l.6-1.1h-1l.4 1.1zm-3.2-9.8l.4 1.1.6-1.1h-1zm6.4 16.3l.7-.4-.7-.6v1z"/><path d="M285.9 366.7l-.2-.7-.7.5.9.2zm-4.6 1.7v.8l.6-.3-.6-.5zm.8-5.6l.4.4.3-.7-.7.3zm-5.2-7.1l.2-1-1.2.3.6.4-.3.4.9.1-.2-.2zm3.9.9l.1.7.5-.5-.6-.2zm-4.6 3.6l-.7.3.6.4.1-.7zm.3-14.8l-.4-.8-.5.7.9.1zm3.8 1.3l.6-.5-.4-.1-.4-.6-.4.7h.6v.5zm-4.7 2.9l-.7.2.6.4.1-.6zm-8.9-1.3l-.4-.8-.4.6.8.2zm3.8 1.3l.5-.5-.6-.2.1.7zm-4.6 2.9l-.7.3.6.4.1-.7zm.3-13.8l-.4.5.7.2-.3-.7zm3.2 2.4l.5-.4-.5-.2v.6zm-4.1 1.7l-.6.1.5.4.1-.5zm27.1 5.1l-.8.1.5.7.3-.8zm-.6 8.2l-.5.5h.8l-.3-.5zm-6.7-2.6l.5-.4-.6-.3.1.7zm12.9 13l-.7-.2.3.7.4-.5zm-5.5-4.1l.1-.7-.6.4.5.3zm-10.6 20.8l-.4 1.1 1-.2-.6-.9zm-5.5-13.2l-.6 1h1l-.4-1zm15.6 23.5l.6 1 .3-1.2-.9.2zm-1.5 3.2l.4-1.1-1 .2.6.9zm-.2 2.9h1l-.3-.8-.7.8zm-2.8-1.5l.6-.5-.9-.4.3.9zm-.5-11.4l-.5-.7-.4.9.9-.2zm1.1-9v.6l-.2-.1v1.1l.9-.7-.3-.1.5-.4-.9-.4zm-.4-.2l1.8-1-1.5-.9-.3 1.9zm2.4 2.3v1.1l.5-.5.5.4.2-1.1-.9.2-.3-.1zm2 11.4l.2-.4h-1l.5 1.1.3-.7 1.6 1.2.2-1.7-1.8.5zm1.5 6.4l.2-1.7-1.9.6 1.7 1.1z"/><path d="M292.1 399.5l.2-1.7-1.9.6 1.7 1.1zm-3.4-8.1l.4.1-.1-1.2.1-.7-1.1.4.7.5-.7.8.5.1-1.6.5 1.6 1.1.2-1.6zm5.1-1.4l.7-.1-.4-.6-.3.7zm-1.9-17l1.3-1-1.2-.5-.1 1.5zm-8.8.2l1.2-.1-.5-1.1-.7 1.2zm-11.9-20l-1.1 1 1.2.4-.1-1.4zm-.2-6.9l-.1 1 1.1-.4-1-.6zm7.9 5.9l-1.1.2.7 1 .4-1.2zm-10.4 7.7l1.2.3-.1-1.4-1.1 1.1zm.9-8l-.1 1 1.1-.4-1-.6zm7.9 5.9l-1 .2.6.9.4-1.1zm-2.8-2l-.5 1.3 1.3-.5-.8-.8zm-3.9 6.8l.6 1 .5-.9-1.1-.1zm-3.8-7.7l1 .2-.1-.7-.1-1.4-.7.7-.6-.8-.4 1.6 1.4-.3.2.1-.7.6zm.4-8.8v1.1l1.1-.4-1.1-.7zm8 6.2l-1 .2.6 1 .4-1.2zM261.4 338l.5-1-1.2.3.7.7zm9.3-1.9l-.6.8 1.2.2-.6-1zm.9 8.2l.9-.4-.9-.7v1.1zm-3.7-4.5l.4-.9-1 .2.6.7zm7.2-1l.9.2-.4-.9-.5.7zm-8.2 4v-.8l-.5.4-.5-.4v1.4l.5-.2.6.3v-.7h-.1zm1.6-7l-.9-.7-.2 1 1.1-.3zm6.1 6.6h-1l.5 1.1.5-1.1zm20 53.8l1.4-.4-1.1-1.2-.3 1.6zm7.9-3.5l-.9.7 1.1.3-.2-1zm-5.6 4l.7-.4-.7-.6v1zm1.3-7.7l.4-.9-.9.2.5.7zm-5.1 9.8l1.2.3-.2-1.3-1 1zm-8.6-15.1l-1 1.1 1.2.3-.2-1.4zm-4.6-10.7h-1.4l.5 1.1.9-1.1zm8.5 10.2l-.1 1 1.1-.5-1-.5zm7.9 6.6l.3-1.2-1 .3.7.9zm-33-49.9l-.3 2.5 2.1-.7-1.8-1.8zm-3.3-3.2l.5-2.6-2.5 1.3 2 1.3zm-10.8-28.4l-1-2.3h1.6l.2 1 1.1-.9-1-.5-.9-2h.8l-.2.1 1.3.7v-.9h.3l-.3-.6v-.2l-.1.1-.9-1.7-1.1 2.5-1 2.4h.1l-1.3 2.2 2.4.1zm-4.6 8l1.1 2.1 1.7-2.1h-2.8zm2.3-2.9l1.7-2.1h-2.8l1.1 2.1zm1.7 10.7l1.3-1.7h-2.2l.9 1.7zm.9-3.2l-1.4-1.5.2-.2h-2.2l.9 1.7.8-1-.4 1.2 2.1-.2z"/><path d="M246.6 318.4l1.8-.2-1.3-1.4-.5 1.6zm-1.5-2.4l1.8-.1-1.2-1.3.4-.5-2.8.2 1.2 2 .9-1.3-.3 1zm12.2 15.6l-.4 3.1 2.5-.9-2.1-2.2zm-12.2-20.5l-1.6 2.7 2.7.1-1.1-2.8zm1.8-2.9l-1.6 2.7 2.7.1-1.1-2.8zm30.4 57.9l-2.4-1.8.1 3.1 2.3-1.3zm9.8 24.9l-.1-2.7-2.2 1.1-.3-.9-1.1 1 1 .1-.1.1 2.8 1.3zm-4.8-11v3.1l2.4-1.3-2.4-1.8zm-10-42.5l1.2-.4-1-1-.2 1.4zm-4.3-6.7l.6.8.6-1-1.2.2zm10 .1l-.7.7 1.1.3-.4-1zm-17.1.1l-1.5-.7.4 1.6 1.1-.9zm9.2 25l.7.5.2-1.2-.5.1-.2-.3-.2.5-.4.1.3.2-.1.1h.2zm4.6-6.7l.8-.6-1-.2.2.8zm-9.5-15.6l-1.8 1.3 1.7.8.1-2.1zm-9.7-2.1v-2.2l-1.7 1.4 1.7.8zm10.2-87.6l-1.2 1.1 1.6.3-.4-1.4zm.8 15.4l-1.6-.5.6 1.6 1-1.1zm-1.2-11.3l1-.8-1.3-.6.3 1.4zm11.6 13.1l.3-.8-1 .1.7.7zm-5.5-.7l.7.1-.3-.8-.4.7zm5.2-5.1l-.8-.2.1.7.7-.5zm-1.6 16.1l.3-.8h-1l.7.8zm-5.5-.6l.7.1-.3-.7-.4.6zm5.2-5.2l-.8-.3.1.7.7-.4zm-1.6 3.2l.3-.8-1 .1.7.7zm-4.9-.6l-.3-.8-.4.7.7.1zm3.9-4.8l.7-.4-.7-.3v.7zm-.9-5.9l.7-.4-.8-.3.1.7zm-4 6.3l.9-.4-.7-.5-.2.9zm.4-4h.3l-.1.2 1.5.1-.5-1.7-.5.8-.2-.2-.5.8zm-2.7 4l.4-.5-.7-.2.3.7zm-1.3-6.5l.1-.8-.3.2v-.3l-.7.2.4.3-.1.1.6.3zm5.3 4.4l.3-1.1-1.3.2 1 .9zm-7-1l-.5 1h1l-.5-1zm4.9-6l.8-.7-1.1-.2.3.9zm2.7-2.4l-.5.8 1-.1-.5-.7zm-3.5 4.1l.3.7.4-.5-.7-.2zm-.9-5.7v-.8l-.7.4.7.4zm-.1.4l-1.3-.6.3 1.4 1-.8zm1-10.3l-1 1 1.2.3-.2-1.3zm-1.7 6.9l-.4.9 1-.2-.6-.7zm2.8 2.1l-.8-.2.3.8.5-.6zm-2.2 3.9l.3-.6h-.8l.5.6zm-1.6 5.6l-1.6-.5.6 1.6 1-1.1zm-1.9 8.1l1-1.1-1.6-.4.6 1.5zm.6-4.4l-1.2 1.2 1.4.5-.2-1.7zm-.7 5.2l-1.3 1.1 1.4.5-.1-1.6zm3 2l-1.1-1.3-.3 1.7 1.4-.4zm-3.4 3.1l1.4-.3-1-1.3-.4 1.6zm7.3-9.8l-.5.8 1-.1-.5-.7zm-3.2 4.8l.5-.5-.7-.2.2.7zm-1.2-6.5l.1-.8-.7.5.6.3zm5.5-5.9l-.4.6.8-.1-.4-.5zm1.7-2.1l-.8 1.1 1.4-.1-.6-1zm-1.4 4.1l-.4.7.8-.1-.4-.6zm.5 5.8v-.7l-.5.4.5.3zm-13.8 36l-1.5-.7.4 1.6 1.1-.9zm10 3.3l.4-.7-1-.1.6.8zm-4.7-1.3l-.1-.8-.6.6.7.2zm4.6-4.9v.7l.7-.3-.7-.4zm-2.9 15.4l-1-.1.5.8.5-.7zm-5.2-1.4l-.5.6.7.2-.2-.8zm4.7-3.3l.7-.3-.7-.4v.7z"/><path d="M260.8 309.3l.5.8.4-.7-.9-.1zm-4.8-.7l.7.2-.1-.8-.6.6zm5.3-4.7v.7l.7-.3-.7-.4zm-3.8-3.3l1.5.4-.3-1.7-1.2 1.3zm3.7-2.6v.7l.7-.3-.7-.4zm-3.5 3.4v-.1l-.2.1-1 .7 1.1.5v-1l.6.7.4-1.1-.9.2zm-6.8 0l1 .1-.3-1 .2-.7-.9.5.6.4-.6.7zm6.3-7.2l.1 1 1-.5-1.1-.5zm-5.4 14.9l.7-.6-.9-.4.2 1zm8.5-15.8l-.6.7h1l-.4-.7zm-3.9 4.3l.5-.4-.7-.3.2.7zm-.8-7.1l.6.4.1-.8-.7.4zm-3.2 5.7l-.8 1.8 1.7-.1-.9-1.7zm.5.4l.6.6.2-.7-.8.1zm2.3-3.3l.4.7.4-.6-.8-.1zm-3.2 6.8l1.1-.9-1.5-.7.4 1.6zm-2.3 9.6l.1-1.6-1.4 1 1.3.6zm4.3-1.7l-.7-.3.2.8.5-.5zm-.6-7l-.7.4.6.4.1-.8zm8.2-6.1l-1 1 1.4.2-.4-1.2zm-2.9 2.6h.8l-.1-.2h.5l-.3-.6-.3.3-.1-.2-.5.7zm-1.2 6.9l-.1-.2-.1.1-.3-.1.4-.1-.6-.6-.2.5-.6.7h1.1l-.2.2h.3l.2.9 1.1-1-1-.4zm-.5-.1l-.1-.2.1.2zm1.7 0l.5.3.1-.7-.6.4zm6-8l-.4-.9-.7.8 1.1.1zm-5.1 3.7l.6-.5-.5-.3-.1-.3-.5.6h.5v.5zm.3-7.5l.2-.9-.9.3.7.6zm5.2 25.8l.5.8.4-.7-.9-.1zm-4.3-1.3l-.5.6.7.2-.2-.8zm4.7-4.1v.7l.7-.3-.7-.4zm-7.4 2.4l-1.2 1.3 1.5.4-.3-1.7zm-2.4 5l1-.3-.6-.6-.4.9zm-5.1-2l-.9-.4.2 1 .7-.6zm-.9-7.3l.2-1-.9.4.7.6zm8.4 6.5h-1v-.2l-.2.2-.9.6 1.1.6v-1l.6.7.4-.9zm-7.2-1l-.6.9 1 .1-.4-1zm6.7-5.8l-1-.4.1 1 .9-.6zm-.8 9.5l-.6.7h1l-.4-.7zm-4 4.3l.5-.5-.7-.3.2.8zm-.8-7l.6.4.2-.8-.8.4zm6.4-2h.8l-.3-.6-.5.6zm-4.3-.9h1l-.4-.9-.7.8-.9-.4.4 1.7 1.1-1-.5-.2zm10.8-38.6l-.1-2.1-1.6 1.4 1.7.7zm-5.2-1.7l-1.7 1.5 1.8.7-.1-2.2zm-2 9l-1.7 1.5 1.8.7-.1-2.2zm8.7-2.1l-.1-2.1-1.6 1.4 1.7.7zm-7.1-2.4l-1.5.1 1 1.2.5-1.3zm12-4.1l1.1-.5-1.1-.5v1zm-5.9 8.7l.7 2.4 1.6-1.6-2.3-.8.5-.3-1-.8-.4 1.4.9-.3zm-7.3-1.1l-.3-1.1.2.6 1.4-1.3-2-.8.4 1.3-.8 1 1.1.3zm5.4 4.8l1.2-.9-1.2-.6v1.5zm-4 .6l1.2-.9-1.2-.6v1.5zm-2.2-.7l-.1 1.3-1.1-.4.7 2.5 1.6-1.6-1.2-.4 1.1-.8-1-.6zm-1.3-1.2l-.5 1.1h1.1l-.6-1.1zm5.8-6.9l.1-1-.9.5.8.5zm6.3-2.7l1.2-.1-.5-.9-.7 1zm-6.7 14.7l1.6-1.6-2.4-.9.8 2.5zm-5.2 5.7l-2.4-.9.7 2.5 1.7-1.6zm4.2-14.3l1.6-1.6-2.3-.9.7 2.5zm-5 43l-.4 3.1 2.5-.9-2.1-2.2zm3.7-53.5l-.5 2.5 2.1-.5-1.6-2zm4.8-18.9l-1.6 1.9 2.6.1-1-2zm3.7 18.3l1.4-1.4-2.1-.7.7 2.1zm-8.1 7.5l1.4-1.3-2-.7v.1l-.6-.5-.3 1.2 1-.4.5 1.6zm2.5-7.5l-2-.8.6 2.1 1.4-1.3z"/><path d="M253.4 293.1l-.9 2.4 2.2-.2-1.3-2.2zm1.7-5.2l-.9 2.4 2.2-.3-1.3-2.1zm0 4.2l1-.6-1.2-.7.1 1.3-.7-1.2-.8 2.1 2-.2-.4-.7zm-7.7 21.5l.8 2.5 1.6-1.5-2.4-1zM269 283l-.9.5.7.5.2-1zm6.6-12.4l1.7-.2-.8-1.2-.9 1.4zm-4.9 6.9l.8-.9-1.3-.4.5 1.3zm-1.8-12.6l-1.2.8 1.1.6.1-1.4zm4.4 42.2l.4-.7-1-.1.6.8zm-4.7-1.1l-.2-.8-.5.6.7.2zm4.5-4.3l.7-.4-.8-.3.1.7zm-2.9 15.5l.4-.7h-.2l.5-.5-.9-.3.3.8h-.6l.5.7zm-4.7-1.2l-.1-.8-.5.6.6.2zm4.4-4.3l.7-.4-.7-.3v.7zm-.9 1.9l-1-.1.5.8.5-.7zm-5.1-.4l-.2-.8-.5.6.7.2zm-3.5-1.1l.2.8.5-.5-.7-.3zm-.7-6.2l.6.4.1-.8-.7.4zm4.9 2.7l-.1-.2-.1.1-.4-.2.1.5-.2.3h.3l.2.8 1.1-1-.9-.3zm1.2 0l.4.3.1-.6-.5.3zm5.8-8.2l-.4-.9-.7.8 1.1.1zm-4.4 3.3l-.8-.4.2 1 .6-.6zm-.4-7.8l-.9.4.6.5.3-.9zm4.2.6l.4-1h-1.2l.8 1zm-6.3-2.2l-.6.8.9.2-.3-1zm5.6-5.6l.1.9.9-.5-1-.4zm6-12.8l.4-1.2-1.5.1 1.1 1.1zm-7.8-2l-.7 1.1 1.1.1-.4-1.2zm6.2-7.3l.1 1.1 1.1-.6-1.2-.5zm-12.2 18.6l.5-1.4-1.4.4.9 1zm1 8.7l-1.5.4.9 1 .6-1.4zm-1.5-17.4l.6-1.4-1.4.4.8 1zm1-13.5l1.4-.5-1.3-.8-.1 1.3zm.7 44l-.1 1.3 1.4-.5-1.3-.8zm2.6-29.9l-.6.9 1.1.2 1.4.3-.7-2.6-1.1 1.5-.1-.3zm3.4 10.7l.9-.9-1-.3.1 1.2zm-14.2 36.3l-.2-1.7-1.2 1.3 1.4.4zm12.5 6.1l.4-1-1.2.1.8.9zm-6.8-.7l.9.1-.3-.9-.6.8zm6.4-6.5l-1-.3.1.9.9-.6zm-1.6 3l-1.2.1.8.9.4-1zm-6.8-.6l-.5.9.9.1-.4-1zm5.2-5.1l.8-.5-1-.3.2.8zm-5 0l-.9-.6-.1.5-.3.1.2.2v.3l1.1-.5zm-9.1 1.1l1.7.6-.2-2-1.5 1.4zm11.5-1.5l-.6.5.6.3v-.8zm9.5.6l-1.2 1.3 1.5.4-.3-1.7zm11.8 12.2l.4-1-1.2.1.8.9zm-6.9-.7l.9.1-.3-.9-.6.8zm5.7-5.9l.8-.6-1-.3.2.9zm-3.1-21l.3-.9-1 .1.7.8zm-5.8-.6l.7.1-.3-.8-.4.7zm5.4-5.4l-.8-.2.1.7.7-.5zm-7.5 20.5l1.9.2-.7-2-1.2 1.8zm-10.2 6.3l.1-2.1-1.8 1.3 1.7.8zm-6.3-22.8l-2.3 1.8 2.3 1v-2.8zm16.9 20.7l-.9-.6-.2 1.2 1.1-.6zm2.2-5.9l-.5-.7-.5.9 1-.2zm.3 6.3v-.2l.8-.6-1-.3.1.3-.6.5.7.3zm1.1-12.3l-.5-.8-.6.9 1.1-.1zm-5.5-3.9l-.6.4-.4-.2v.7l.5-.2.4.2.1-.9zm12.6 7.8l.3-.9-1 .1.7.8zm-5.8-.4h.7l-.3-.7-.4.7zm5.2-5.6l-.8-.2.1.7.7-.5zm-6.1 20.9l.3-1-1.2.1.9.9zm-6.4-1.4l-.5.9.9.1-.4-1zm.1-5l-.6 1 1.2-.2-.6-.8zm-4.2 5.3l.4.9.6-.7-1-.2zm-1.4-8.1l-.8.6.8.4v-1z"/></g><path xmlns="http://www.w3.org/2000/svg" d="M128.2 385.5l23.3-28.4 20.8 18.1-27.4 34.9-16.7-24.6z" fill="#ea9d7d"/><linearGradient xmlns="http://www.w3.org/2000/svg" id="bt-B" gradientUnits="userSpaceOnUse" x1="148.101" y1="382.177" x2="155.373" y2="374.453"><stop offset="0" stop-color="#cc7a5e" stop-opacity="0"/><stop offset=".924" stop-color="#aa5f4b"/></linearGradient><path xmlns="http://www.w3.org/2000/svg" d="M146.9 381.1c7.9 7.8 12.7 10 12.7 10l12.7-15.3-20.3-18.9-12.2 14.2c-.1 0 1.4 4.4 7.1 10z" fill="url(#bt-B)"/><path xmlns="http://www.w3.org/2000/svg" d="M151.6 356.6l-24.3 29.5.7.6 24.3-29.5-.7-.6z" fill="#af614b"/><g xmlns="http://www.w3.org/2000/svg" fill="#ad5c49"><path d="M158 391.5l.6-.5-.9-.2.3.7zm-10-6.1l-.9.4.7.6.2-1zm3.6 2l-.9.4.7.6.2-1zm3-7.7l-1.1 2.6 2.5-.7-1.1-1.9h.2l-.6-.7-.3.7h.4zm2.1 7.8l.2.9.5-.7-.7-.2zm-12.2-3.6l-.8.4.6.5.2-.9zm7.5-3.5l-.5-.6-.3.6h.8zm.5 5.5l-.6-.2.2.7.4-.5zm2.7 2.4l-.4 1.3 1.2-.2-.8-1.1zm.5 2.1l1.6.3-.5-1.4-1.1 1.1zm-3.5-1.5l.5 1.3.8-.8-1.3-.5zm-8.5-18.5l-.2 1.3 1.4-.5-1.2-.8zm8.5 9.3l.6-1.4-1.3.1.7 1.3zm5.2 13.1l.7-1.2-1.6-.2.9 1.4zm6.2-6.5l-2.3-1.7-.2.9-.6-.9-.4 1.3 1-.1-.2 1.1 2.7-.6zm-7.5 1.2l-.9-1.6-.8 2 1.7-.4z"/><path d="M158.3 383.1l-.9-1.5-.3.5-1.1.4.7.6-.2.5 1.8-.5zm4.3 4.4l.7-.8-.9.1.2.7zm-11-5.3l.2-1-1 .4.8.6zm-3.3-7l.3-1-1 .4.7.6zm2 6.1l-.3.7h.9l-.6-.7zm8.5 1.1l-.5 3 2.6-1.3-2.1-1.7zm-8-4.9l-.3.9h1.1l-.8-.9zm4.7 7.1l.3.8.4-.7-.7-.1zm-.2.1l-.7.5.8.3-.1-.8zm-4.7 0l.6 1.1.8-.9-1.4-.2zm2.2-.8l.4-1.3-1.3.4.9.9zm-5.6-10l-.9-1.2-.4 1.4 1.3-.2zm14.6 14.5l-.7-1.1-.4 1.3 1.1-.2zm-2.5-.4v1l-.2-.5-1.2 1 1.4.3v.2l1.2-.6-.5-.4.3-.2-1-.8zm-6.5-6.9l-.3.6.9.1-.5-.7.7-.2.9.9.4-1.2 1.2-.3-2.8-2.4-.6 3.2h.1zm-1.4-4.6l-1.3-1.2-.4 1.5 1.7-.3z"/><path d="M147.6 377.1l1-.3-.8-.6-.2.9zm6.8 5.8l-1.4.3.8.9.6-1.2zm3.5 2.3l.5-.5-1.4-.1.3.6-1.2 1.8 2.8.5v.6l.9-.5-.8-.4-1.1-2z"/></g><g xmlns="http://www.w3.org/2000/svg" fill="#fed6d6"><path d="M178.3 434.2c.5-.7.7-1.7 1-2.8l-21.4-1.5-40-32c-.6 1-1.4 1.9-1.9 2.7-.7 1.2-.5 2.7.6 3.6l21.8 17.2L154 434c.7.6 1.5 1 2.4 1.1h18c1.8.4 2.9.2 3.9-.9z"/><path d="M179.3 429.4c-.6-2.8-3.4-6.7-11.5-7.9-.5-.2-1.3 0-1.8-.3l-8.8 8.6 22.1.5c.1-.2.1-.5 0-.9z"/></g><path xmlns="http://www.w3.org/2000/svg" d="M163.8 413.5l-7 3.1c-.5.2-1.2.1-1.5-.3a.76.76 0 0 1-.2-.4c-.2-.6.2-1.3.8-1.6l7-3.1-1.1-2.7-8.2 2.6c-.5.2-1.1 0-1.4-.4-.1-.1-.2-.3-.3-.5-.2-.7.3-1.4.9-1.6l8-2.5-.8-2.2 5.9-14.9s-1.6-2.9-5.1.1c-1.9 1.6-3.3 3.6-3.3 3.6l-24.1-13.2c-1.2-.6-2.7-.4-3.5.7-1.6 2-4.4 5.7-7.5 10.7-1 1.6-3.8 5.8-4.6 7.3l39.7 31.2 10.1-8.1c-1.1-2.3-2.6-4.8-3.8-7.8z" fill="#ad203a"/><path xmlns="http://www.w3.org/2000/svg" d="M151.9 410.1c.1.2.1.3.2.5.3.4.9.6 1.4.4l8.2-2.6c-.4-.9-.7-1.7-.9-2.4l-8 2.5c-.7.2-1.1.9-.9 1.6zm3.2 5.8c.1.1.1.2.2.3.4.5 1 .6 1.5.3l7-3.1-1-2.4-7 3.1c-.7.4-1 1.1-.7 1.8z" fill="#fff8f8"/><path xmlns="http://www.w3.org/2000/svg" d="M137.9 399c1.5-2.9.4-6.4-2.5-7.9s-6.4-.4-7.9 2.5-.4 6.4 2.5 7.9 6.4.4 7.9-2.5z" fill="#fed5d5"/><path xmlns="http://www.w3.org/2000/svg" d="M152.1 389.8l-1.7 15.9 1.5 1 5.6-14-5.4-2.9z" fill="#92142c"/><path xmlns="http://www.w3.org/2000/svg" d="M150.4 403.1c0 .2 0 .4.1.5a1.3 1.3 0 0 0 1.2.8l8.3-.1c-.2-.6 0-.8.8-2.6l-9.1.2c-.7-.1-1.3.5-1.3 1.2z" fill="#fff8f8"/><g xmlns="http://www.w3.org/2000/svg" fill="#442624"><path d="M179.4 430l-.1 1.5-21.6-.8-40.2-32 .7-1.2 40 31.6 21.2.9z"/><path d="M168.1 421.6l-10.1 8.1-.8-1 10.2-8.1.7 1z"/></g><g xmlns="http://www.w3.org/2000/svg" fill="#dd5472"><path d="M156.1 418.2l.7.5-.1-.9-.6.4zm2.9 3.1l1.2-.5-.9-.7-.3 1.2zm1.7-32.2l-1.1 1.2 1.7.1-.6-1.3zm3.5-.2l-1.1 1.3h1.6l-.5-1.3zm1.4 29.9l-.8 1 1.6-.1-.5-.9h.2l-.5-1-.8 1h.8zm-7.2-25.2l.4 1.5 1-1.4-1.4-.1zm2.9-2.6l1.5-.7-.9-.7.2.1-.2-1.4-1.1.8.9.4-.4 1.5zm-1.3 19l-.6 1.5 1.5-.6-.9-.9z"/><path d="M157.8 413.1l1.6-.6-1-.9-.6 1.5zm4.5 10.8l1.2-.5-.8-.7-.4 1.2zm1.1-8.6l.4-1.5-1.3.4.9 1.1zm-5-23.2l1.7.4-1.1.5 1.3.6v-1.1h.2l-.9-2.3-1.2 1.6v-.1l-.8 1.2 1.6.3-.8-1.1zm-8.6-1.5l1.2 1.1.1-1 1.2.2-.8-1.5-.4.6-1.3.6zm9.3 20.6l.5-1.6-1.5.3 1 1.3zM143 387.4l1.3.2-.7-1.2-.6 1zm-5-2.5l1.3-.2-1-.9-.3 1.1zm-2-3.4v1.2l1.2-.5-1.2-.7zm4.6 3l-.4 1.2 1.3-.2-.9-1zm-7.1-2.4l1.3-.5-1.2-.7-.1 1.2zm29.8 36l.7 1 .4-1.3-1.1.3zm0-2.5l1.3-.1-.6-.9-.7 1zm-1.6 2.4l1.5-.6-1-.9-.5 1.5zm-.1-2.4l1-.3-.8-.6-.2.9zm1 .3l.4.8.4-.8h-.8z"/><path d="M163.4 420.1l-.7.6.9.1-.2-.7zm-28.1-33.8l1-.1-.7-.8-.3.9zm-2.6-5l-.3.9 1-.1-.7-.8zm8.3 4.7l.3.9.5-.8-.8-.1zm-5.9-2.7l-.6.7.9.1-.3-.8zm-8.8 4.5l.9.1-.3-.8-.6.7zm-3.2 2.6l.9.1-.3-.8-.6.7zm32.2 14.3l-.8.6.9.5-.1-1.1zm1.5 1.4l-.8.6.9.5-.1-1.1zm5.5 4l-.6-.5-.4.9 1-.4zm-4.3-4.5l-.4.8.9-.3-.5-.5zm-3.9 6.8l.4-.7-.9-.1.5.8zm3.1-7.3l.4-.8h-.9l.5.8zm-5.7 6.1l.4-1-1 .4.6.6zm-2.5-21.7l.2-1.1-.9.6.7.5zm4.4 18.1h.1l.6-.3-.5-.3.3-.9-1.4.3.2.2-.1 1.3.8-.3zm10.5-19.9l-1.7.5 1.3 1.4.4-1.9zm-26.9-4.4l-.7.3.6.7.1-1zm9.9 4.2l-.8-.4.2.9.6-.5zm4.3 1.8l-.8-.4.2 1 .6-.6zm-5.9-2.9l-.3.6h.7l-.4-.6zm5.2 20.1l.5-.5-.7-.1.2.6zm9.4 9.7l.3.6.3-.5-.6-.1zM154 414v-.6l-.5.4.5.2zm3.9-3.2l-.1.5.5-.2-.4-.3zm6.6 10.7l.4-.5-.6-.1.2.6zm-3.1-1.6l-.4.4-.1-.2-.3.8.8-.1-.4-.5.4.1v-.5zm3.6-2.1l.5-.2-.4-.3-.1.5zm-15.7-22.2h.6l-.4-.5-.2.5zm-5.6-5.9l.5-.6-.9-.2.4.8zm-2-1.5l.5-.6-.9-.2.4.8zm-2.2-1.9l.7.1-.2-.8-.5.7zm2.9-1.3l-.1.7.7-.2-.6-.5zm-9.2-1.7l.5-.6-.8-.4.3 1zm-1.6.1l.5-.6-.8-.3.3.9zm-2.4 2.6l.5-.6-.8-.3.3.9zm22.5 20.2l1.4-.3-.9-1.3-.5 1.6zm-1.1-11.8l-.6-.7-.1 1 .7-.3zm6.9-1.3l-.2 1.4 1.1-.4-.9-1zm3.7-1.2v-1.1l-1.2.6 1.2.5z"/><path d="M150.2 391.8l-.2.9.8-.2-.6-.7zm-1.1-.7l-.4.5.7.2-.3-.7.8-1.4-1.6.2.8 1.2zm-9.6-8l-.1 1.6 1.3-.9-1.2-.7zm-2-1.1l-.1 1.6 1.4-1-1.3-.6zm-2.2-.2l-.1 1.7 1.4-1-1.3-.7zm8.8 3.8l-1.5.2.7 1.2.8-1.4zm-11.8-4.3l-1.4 1 1.3.6.1-1.6zm13.7 7.3l1.3 1.4.9-2.2-2.2.6-1.6.2.8 1.2.8-1.2zm-.9 5.2l.6.2-.2-.6-.4.4zm19.1-6l-.3 1.1 1-.2-.7-.9zm-17.1 4.2l.6-.9-1 .1.4.8zm1 .6l.9.4-.3-1.1-.6.7zm13.1 29.7l.1-.7-.9.3.8.4zm-6-4.5l.8-.2-.5-.7-.3.9zm6.7-6.3l.9-.7-.9-.3v1zm-.8 5.2v.4l.3-.3.2.1v-.4l.3-.3-.2-.1v-.1h-.1l-.6-.2v.4l-.2.1.3.4z"/><path d="M156.9 411.8l-.5-.7-.4.8.9-.1zm3.1 6l-1.1.3.6.6.5-.9zm1.7-9.1l-.4.7.9.1-.5-.8zm2.9 7.8l-.6-.2.4-.4-.7-.2.1.6.1 1 .3-.3.6.8.4-1.3-.7.2.1-.2zm-.6 6v-.8l-.8.3.8.5zm-6-4.8l.8-.1-.4-.7-.4.8zm4.4.7l-.8.5.9.6-.1-1.1zm2.5 3.4l.8-.3-.6-.6-.2.9zm-6.5 1.5l.4-.7h-.9l.5.7zm8.2-3.6l-.6.9 1.1-.1-.5-.8zm-27.9-32.3l.1-2.5-2 .9 1.9 1.6zm-8.7-6.9l-1.3 1.7 1.5.3-1.1.8-.5-1-1.3 1.7 2.4.5-.5-.9.9.4.1-1.6.9.2-1.1-2.1zm-4 5.7l2.4.4-1.2-2.2-1.2 1.8zm-1.9 2.7l1.7.3-.8-1.6-.9 1.3z"/></g><path xmlns="http://www.w3.org/2000/svg" d="M199.1 206.2l-4.5.2s-1.8 26.3-2.6 60.3c-.2 8.1-2.6 21.2-5.9 29.6s-9 18.6-14.2 25.3l-32 41.7c-1.1 1.4-.8 3.3.5 4.4l29.7 23.9c1.1.9 2.6.8 3.5-.2 9.6-9.6 56.8-57.3 63.8-69.8 5.4-9.7 13.8-15.7 20.2-44.5 5.4-24.3 9.5-60.3 10.7-70.8l-69.2-.1z" fill="#451c1a"/><g xmlns="http://www.w3.org/2000/svg" fill="#724537"><path d="M193.6 265.8l1.5.3-.4-1.7-1.1 1.4zm3.3-2.5l.3.7.3-.4 1.3.3-.4-1.7-.9 1.1-.8-.2.2.2-2-.5.9 1.9 1.1-1.4zm.1 18.6l1.1-1.5-2-.4.9 1.9zm-.2-5.1l1.6-1.5-1.8-.6.2 2.1zm-2.1 3l1.7-1.4-1.7-.7v2.1zm4.8-9l-.4-1.7-.4.4-.5-.8-.3 1 .9-.1-.7.9 1.4.3zm.3-8.7l-.4-1.7-1.1 1.4 1.5.3zm.2 21.2l.4.3v-.2l.3.1-.2-.7.1-.5h-.2l-.1-.5-.5.6-.7.1.4.3-.3.3.8.2zm-2.1-11.5l-.9.9 1.1.3-.2-1.2zm-.6-6.1v.9l1-.4-1-.5zm7.4 5.1l-.9.2.6.8.3-1zm4-3.2l-1.2.2.9.9.3-1.1zm-6.9-.1l-.5.9h.9l-.4-.9zm4.9-5.5l.8-.6-1.1-.2.3.8zm4.7 19.4l.3-1.1-1.2.2.9.9zm-7-.3h.9l-.4-.9-.5.9zm5.3-6.4l.8-.5-1-.3.2.8zm.4 19.9l.3-1.1-1.2.2.9.9zm-7-.2h.9l-.4-.9-.5.9zm5.3-6.4l.8-.6-1.1-.3.3.9zm-1 3.5l.3-1.1-1.2.2.9.9zm-6.5-1.1l-.5.9h.9l-.4-.9zm4.8-5.6l.8-.6-1-.3.2.9zm-4.8-5.9l-1.1 2 2 .1-.9-2.1z"/><path d="M204.7 276.9l-1-.3.2.9.8-.6zm-4.1 8.2l-1-.5-.1 1.2.6-.4.9 1.9 1.1-1.5-2-.4.5-.3zm-1.3-4.9l-.6 1 1.3-.1-.7-.9zm-5.7-2v-1l-.3.2.1-.4-1 .3.5.4-.1.1.8.4zm-2.7 5.5l1.2-.1-.5-1.2-.7 1.3zm7.8-9.9l-1.4-.3.3 1.2 1.1-.9zm2.2-2.2l-.6 1.1 1.3-.3-.7-.8zm-4.1 5.5l.4.9.5-.7-.9-.2zm-1.7-7.1v-1l-.8.7.8.3zm-.5 3.9l2.4-.4-1.5-2.3-.9 2.7zm.3-5.4l.7 1.3h-.2l.6 1.2.1-.1.1.3 1.4-2-2.7-.7zm3.4 19.1l-1.8.4 1.2 1.6.6-2zm-1.2-4.5l-1.7.4 1.2 1.6.5-2zm6.3-17.9l.2-1-1.2.2 1 .8zm-2.2-2.9l-.1 1 .9-.5-.8-.5zm4.6 2.6l-.5.9h.9l-.4-.9z"/><path d="M192 282l.9-1.1.9 2-.7.5.8.4v-.6l1.5-1.8-2.3-.6.1-.1-1.6-.5 2.8-.7-3.2-2.5-.5 3.5.6-.2.7 1.7zm-1.8 1.1l-1 3.4 3.8-.4-2.8-3zm1.7-10.7l-.5 3.5 1.3-.3-.8.9 1.5.4-.2-1.4 1.8-.5-1.1 1.2 1.5.4-.2-1.8-.1.1-1.9-1.5.8-1-.9-.3 1.5.3-.2-1.2 1.2-.4-1.6-1.1.9-1.3-1.7-.3 1.9-.8.4.7 1.1-1.5-2-.4.1.3-2.5-1.4-.1 3.5.8-.3.6 1.3-1.4-.9-.3 3.5.2-.1.3.7-.4-.3zm1.7-.9l-.5.6-.7-.2 1.2-.4zm-1.1-7.9l.9 1.7 1.1-1.5-1.7-.4 3-1.2-.5-.3 1.1-1.5-.3-.1 1-1.4-.5-.1.4-.6-2-.4.4.8-.6-.1.1-.1-1.7-.3 3-1-3.4-2.2-.3 3.5.4-.2.9 1.8.4-.5.3.2v-.7l.1-.1.7 1.4-.9-.2.9 1.9-1.7-1-.3-.5v-.9l-.8.7-.2-.1v.2l-.1 3.2h.3zm-1.2 34.5l-1.5 1.5 1.8.6-.3-2.1zm7.5-11.2l1.3-.2-.6-.9-.7 1.1zm-3.2 4.9l.4.5.4-1h-.7l-.7-.2.3 1 .3-.3zm5.7-16.2l-.3.5-.1-.2-.4.9 1-.2-.2-.2.5-.1-.5-.7zm1.9-2.8l-.9 1.5 1.8-.2-.9-1.3zm-.1 11.7l-.6.6.7.3-.1-.9zm-15.3 15.4l.4.3v-.2h.3l-.2-.7.1-.5-.2.1-.1-.5-.5.7-.7.1.3.3-.3.3.9.1zm11.5-1.9l.3-1.1-1.2.2.9.9zm-6.6-1.2l-.5.9h.9l-.4-.9zm4.8-5.6l.8-.6-1-.3.2.9zm.5 20l.3-1.1-1.2.2.9.9zm-7.1-.2h.9l-.4-.9-.5.9zm5.4-6.4l.8-.6-1-.2.2.8zm-1 3.5l.3-1.1-1.2.2.9.9zm-7.1-.2h.9l-.4-.9-.5.9zm5.1-7.4l.2.9.8-.6-1-.3zm-4.5-5l-1.1 2 2 .1-.9-2.1zm11.6 7.1h1.2l-.6-1.2-.6 1.2zm-6.5 12.7l1.1-.9-1.4-.3.3 1.2zm-3 1.3l.7-.7-1.1-.5.4 1.2zm-5-4.5l-1 .5.8.5.2-1zm7.3-2.9l-.3.9 1-.1-.7-.8zm-3.3 2.1l.3 1.2.8-.7-1.1-.5zm-4.6-3.2l-.9.5.7.5.2-1zm7.3-3l-.3.9 1-.1-.7-.8zm-7.4 12.8l1.4-.2-1-1-.4 1.2zm5.7-15.9v-.9l-.6.6.6.3zm-.2.8l-.9-.9-.1.4-1.7-.3.4-.2-1-.6-.1 1.2.6-.4.9 1.9.8-1v.3l1.1-.4z"/><path d="M194.8 297.3l-.6.7 1 .3-.4-1zm-2.1 6.5l1-.3-.8-.9-.2 1.2zm-2.8-6l-1 .1.5.8.5-.9zm7.3.8l1 .3-.3-1-.7.7zm-7.6-8.1l-.6.9 1 .1-.4-1zm5.2-5.9l.1.9h-.1l.3 1 .6-.7-.9-.2.9-.5-.9-.5zm-5.8 2.9l-.6 2.7 2.6-1.2-2-1.5zm2.5 1.8l-.8 1.9 2-.6-1.2-1.3zm2.9 6.1l-1.2.1.9 1 .3-1.1zm-6.8-.7l-.6.9.9.1-.3-1zm5.3-5.1l.4-.2h.2v-.1l.3-.2-.4-.1-.2-1.6-1 1 .4-1.8-1.7.4 1.1 1.5-.4.3 1.2.4.1.4zm-1.2 4.6l.4.2v-1.1l-1 .5-1.8-1.4-.7 2.7 2.6-1.2.5.3-1.2 1.7 1.8.2-.6-1.9zm3.6 2.6l.7-.5-.8-.2.1.7zm12.2-23.3l-.7-1-.7 1.2 1.4-.2zm-5.4 5l-.2-.3-.1.2-.4.6.6-.1.2.5.6-.7-.7-.2zm-1.7-9.4l-1 .7.9.5.1-1.2zm-5.8-25.9l1.5.3-.4-1.7-1.1 1.4zm.2 4.2l1.1-1.5-2.1-.4 1 1.9zm-.5-4.6l1.1-1.5-2.1-.5 1 2zm3.6-2.1l-2-.5.9 1.9 1.1-1.4zm-4.7-5.5l-.1 2.7 1.8-1.4-1.7-1.3zm.1-2.9l-.1 2.7 1.8-1.4-1.7-1.3zm3.1 13.2l1.1-1.5-2-.4.2.3-2.8-1.6-.1 3.5 3.1-1.3.5 1zm-1.8-5.7l-1.6-1.3v2.1l1.6-.8zm4.2 18.4l-2-.4 1 1.9 1-1.5zm.3-5l-1.8-.6.2 2.1 1.6-1.5zm-2.9 4.4l1.6-1.5-1.8-.6.2 2.1zm2.5-9.3l1.5.4-.4-1.7-1.1 1.3zm-.6 1.9l1 .2-.1-1.2-.9 1zm.2-6.2l1-.4-1-.5v.9zm7.1 5.3l.3-1.1-.9.2.6.9zm4.3-4.3l-1.2.2.9.9.3-1.1z"/><path d="M202.3 245.8h.9l-.4-.9-.5.9zm6.2-7l-1-.3.2.9.8-.6zm2.8 19.7l.9.8.3-1-1.2.2zm-5.7-.4l-.5.9h.9l-.4-.9zm5.6-6.1l-1-.3.2.9.8-.6zm-6.8 2.5l.2.9.8-.6-1-.3zm-3.6 3.1l-.5 1.1.4-.1-.1.2 2 .1-.9-2-.6 1.1-.3-.4zM195 256v-1l-.3.2v-.4l-1 .3.6.4-.1.1.8.4zm5.8 3.9l1.3 1 .2-1.4-1.5.4zm-1.1-8.6l-1.4-.2.4 1.2 1-1zm.3 12.6l-1-.2 1 1.9 1.1-1.5h-.3l.5-.1-.8-1.1-.5 1zm1.9-14.9l-.6 1.1 1.3-.2-.7-.9zm-3.1 5.7l-1-.2.4.9.6-.7zm-2.7-8.3l-.8.6.9.3-.1-.9zm1.9 4.7l-1.6-2.2-.7 2.8 2.3-.6zm.6-4.7l-2.7-.5 1.3 2.5 1.4-2zm6.1-4.9l-1.2.3 1 .7.2-1zm-7.6-4.5l-1.6.3 1.3 1.1.3-1.4zm-3.6-8l-.2 1.7 1.4-.5-1.2-1.2zm8.6 11.7l.9-.5-.8-.5-.1 1zm4.7 1.6l-.5.9h.9l-.4-.9zm-12-3.3l-.1-1.2-.9.9 1 .3zm-.8-6.4l1-.4-1-.5v.9zm7.3 4.3l-.9.2.6.8.3-1zm4-3.3l-1.2.2.9.8.3-1zm-7.3.8h.9l-.4-.9-.5.9zm6.2-7l-1-.3.2.9.8-.6zm-3.9 2.8l-1.2.2 1 .8.2-1zm-2.5-1.9l-.1 1 .9-.5-.8-.5zm4.7 2.6l-.5.9h.9l-.4-.9zm-3.6 16.2l.9-.1-.6-.9-.3 1zm-6.5 6.9l1.4-.5-.6.8 1.6.3-.3-1.3 1.7-.6-1 1.2 1.6.3-.4-1.7-.2.3-2-1.3.8-1.1.4.1-.3-1.5 1.3-.5-3.5-2.1-.1 3.5 2-.8-.8.9-.9-.2.6 1.3-.8-.5-.5 3.4z"/><path d="M201.7 254l-.1-.2-.4.9 1-.2-.2-.2.6-.1-.5-.7-.4.5zm3.1-2.1l-.9-1.3-.9 1.5 1.8-.2zm-2.3 4.4h0l-.4.7.6-.1.2.5.6-.8-.7-.2-.2-.3-.1.2zm5-5.9l-.7 1.2 1.5-.2-.8-1zm-6.4-2.2V247l-1 .7 1 .5zm-41.9 110.6l1.1-.5-.7-.7-.4 1.2zm-4.6 1.7l-1.3.7 1.5.9-.2-1.6zm-9.3 1.8l-1.3.8 1.3.7-1.5.5 2.2 2.1.2-3-.8.3-.1-1.4zm1.1 2.7l1.5.9-.2-1.6-1.3.7zm18.7-32.7l1 .7v.3l.1-.2.6.4-.1-1 .4-.5.1.5.7-.9.3.1-.1-.3 1-1.2-1.9-.5-.3-1.7-1.5 2 1.4.1.1.4-.6-.2-.1-.2-.1.1-.6-.2.2.7-.5.6.6.1v.1l-.7.8zm1.5 8.8l-1.5.7 1.7 1.3-.2-2zm-12.5 8.6l1.9-.8-1.8-.9-.1 1.7zm5.5-3.2l-1.8-.9-.1 1.6-1.4.9 1.8 1.1-.3-1.9 1.8-.8zm-3.7 3.8l-1.5.9 1.8 1.1-.3-2zm-4 1.8l1.4-1.3-1.6-.7.2 2zm17.3-15.2l1.5-1.2-1.6-.9.1 2.1z"/><path d="M174.4 327.6l.1 2.1 1.5-1.2-1.6-.9zm-8.1 18.6l1.5-1.3-1.6-.7.1 2zm-4 2.3l1.4-1.3-1.6-.8.2 2.1zm12.9-31.4l-1.1 1.4h1.7l-.6-1.4zm4.6 6.5l1.3-1.1-1.3-.6v1.7zm-31.1 32.3l.1 1.7 1.3-1.1-1.4-.6zm7.1-2.9l-1.5.9 1.8 1.1-.3-2zm5.8 11.7l.7-.7-1-.1.3.8zm-7.5-12.6l-1.3.6 1.2.6.1-1.2zm-3.3 2.7l.8-.9-1-.3.2 1.2zm-2 5.2l1.2.1-.7-1-.5.9zm15.7-16.7l1.3-.4-.8-1-.5 1.4zm5.2-12.2l-.4 1.3 1.3-.3-.9-1zm-7.5 13.5l1.3-.4-.8-.9-.5 1.3zm-4.4 1l-.2-1.2-.9.5 1.1.7zm6.6 6l.8-.8-1.1-.2.3 1zm.5-13.9l.5-1.1-1.4-.1.9 1.2zm1.7-3.1h-1.4l.9 1.1.5-1.1zm-2.4-2.9l-1.3 1.6 2.1.2-.8-1.8zm-2.1 7.6l.6 1.4-.8-.2.3 1 .6-.5.1.2 1.2-1.8-2-.1z"/><path d="M165.7 335.6l.8 1.9 1.2-1.8-2-.1zm-8.1 14.2l-1.9-.2.8 1.9 1.1-1.7zm-9.4 9.7l1.2-1.7-1.9-.2.7 1.9zm30.6-25.3l1.1.5-.3-1.1-.8.6zm2.7-14.9l-.5 1h1.1l-.6-1zm-9.8 10.7l.8.9.4-.9h-1.2zm-11.5 23.6h-.9l.3.7.6-.7zm3.8.1l.6-.1-.4-.6-.2.7zm-4-5l-.6.3.6.4v-.7zm-13.1 11.1l.3.7.5-.7h-.8zm4.7.2l.6-.1-.4-.6-.2.7zm30.1-11.2l.7.1-.3-.6-.4.5zm-6 2.8l.1-.7-.6.1.5.6zm-6.4-11.2l1.2-.2-1-1.2-.2 1.4zm1.2-8.2l-1.1.4 1.1.6v-1zm-8.2 6.1l.7-.9-1-.3.3 1.2z"/><path d="M182.1 317.5l1 .2-.3-1.2-.7 1zm-1.1-2.2l-.3-1.1-.7.9 1 .2zm.5-3.9h-1l.6.8.4-.8zm-6.2 7.8l-.5-.6-.3.9.8-.3zm-9.2 19.3l-.2 1.9 1.6-.4-1.4-1.5zm12.4-8l-.2 1.1 1-.2-.8-.9zm-1.7 2l-.8-.9-.2 1.1h.2l-.1.6.9-.2-.4-.5.4-.1zm5.2-12.3l1.8.7-.1-1.7-1.7 1zm-.2-14.5l-1 1.7 1.9-.3-.9-1.4zm-1 1.9l-1 1.7 1.9-.3-.9-1.4zm1.3 6.9l1.9.6-.2-1.7-1.7 1.1zm2.9-15.6l-.8 1.9 2.3-.1-1.5-1.8zm2.8-7.4l-.5 1.9 1.5-.4-1-1.5zm-5.1 19.6l.8-1.8h-1.7l.9 1.8zm4.9-12.5l-1-1.2.2-.3h-.4l-.3-.4-.2.4v.1l-.6 1.3h2.3v.1zm-5.2 12.9l-1.7 1.1 1.9.6-.2-1.7zm-6.1 7.6l1.8.8v-1.7l-1.8.9zm-25.1 37.7l1.1-.4-1-.6-.1 1zm8.8-4.2l-.2-1.1-.8.7 1 .4zm-3.3 0l.2 1.4 1-.6-1.2-.8zm-8.9 9.5l1.1-.4-1-.6-.1 1zm8.1-4.9l1 .4-.1-1.2-.9.8zm27.4-52.5l.9-.1-.5-.8-.4.9zM145.9 362l1.7-.8-1.3-1.1-.4 1.9zm.4-4l1.3.3-.7-1.4.5.1-.7-1.4 2.2.1-.4-.9.4-.3.6.9.4-1.3.2-.6h-1l.4.7h-.2l-1.3-.6v.2l-.1-.4-2 2.4h.6l-.8 1 .6.1-.3.5-.5-1-1.9 2.4h3l-.3-.8zm-5.3 4.2l-1.4 2.4h2.5l-1.1-2.4zm10-9.7l.5.3-.2-1.7-.7.4-.5-1.2-2 2.3 3 .1-.1-.2zm1.4-2.9l.3.4.1-.4h.7l-1.1-2.4h3l-.1-.2.7.4-.2-1.2-.2.2-.2-.7-.4.4-.6-1.3-3.8 4.8h1.8zm2.8-3h0-.1.1z"/><path d="M157.1 343.2l1.4.3.1.5 1.3-1.5-.4 2.4 2.7-1.4-1.8-1.4.3-.4-1.7-.5-.6-1.7 1.9.4-.1-.1 1.4.2-.7-1.9h1.4l-1.1-2.2 1.8.2-.7-1.8-1.4 1.6h.1l-1.7 2.2h1.4l-.8 1.3-.7-1.2-1 1.3-.1-.2-1.2 1.8 1.1.1.4 2.1-.9-1.7-.7 1-.4-.8-1.9 2.4h3l-.4-1zm8.2-9.1l-2.6-.7.6 3 2-2.3zm-21 26.3l1 .5-.2-1.6-1 .6-.5-1.1-1.8 2.5 3-.1-.5-.8zm-3 1.8l2.3 2.1.2-3-2.5.9zm1.1 5.6l.4-3-2.6.8 2.2 2.2zm40.8-59.7l2.2-2-2.4-1.1.2 3.1zm2.6-4.9l-1.5-2.1-1.4 2.6 2.5-.4.1 2.3 1.8-1.5-1.8-.8.3-.1zm-26.6 52.4v-1.1l-1.1.5 1.1.6zm-6.5-1.7l.6-.8-.9-.2.3 1zm3.1 6.5l-.4.8h1.1l-.7-.8zm11.4-31.6l.9.2v.3l.3-.2.8.1-.3-.5.1-.1 1.1.1-.5-1.4h.9l-.4 2.6 2.7-1.4-2-1.6-1-2 1.4.1v.4l.4-.3h.2l-.1-.1.1-.1v.3l.6-.8.1-.1 1.2-1.5-1.5-.3h1.3l-.2-.5.3-.9 2.1 1.4.4-2.6-1.7.5-.5-1-.8 1.1h1.3l-.9.3-.6-.4.3 1.5-.5-1.1-1.2 1.5h-.1v.2l-.5.9.6.1v.4l-.6-.3-.1-.2-1.3 1.8-1.9 2.5h.4v.3l-.8.8zm1.7-1.5l-.2.3-.5-.3h.7zm4.7-.8l.5-1.1h-1.4l.9 1.1z"/><path d="M175.3 326.1l1.1-1.8h-.7l.1-.1-.6-.2.4-1.1-1.4.1.8.9.1.4h-.6l.8 1.8zm3.1 1.3l-.2 1.3 1.2-.3-1-1zm.7-6.9l-1.1.5 1.1.5v-1zm-8 6.7l.7-.9-1-.2.3 1.1zm4.7-10.4l.1 1.6 1.2-1.1-1.2-.5 1.4-.2.1.4.4-.5h.2l-.1-.1.5-.6-1.3-.4-.4-.6 3-.1-1.2-2.4-1.9 2.6h.1l-1.2 2.2.3-.3zm4.1-7.2l-1.2 2.1 2.4-.4-1.2-1.7zM158 360.3v-1.1l-1.1.5 1.1.6zm-6.2-2.1h0l.3-.4-.9-.2.1.3-1.3-.6-.2 1.7 1.5-.6.1.3.4-.5zm2.4 7.7h1.1l-.6-.8-.5.8zm1.6-10.3l-1.1.4 1 1 .1-1.4zm-.3 8.3l1-.6-1.1-.4.1 1zm6.9-6.4l1 .1-.4-1.1-.6 1zm6.1-2.5l.4-.9h-.9l.5.9zm-1.8 4.5l.8-.2-.6-.5-.2.7zm6.7-2.3v-.8l-.6.5.6.3zm-11.5 5.1h1l-.4-.7-.6.7z"/></g><linearGradient xmlns="http://www.w3.org/2000/svg" id="bt-C" gradientUnits="userSpaceOnUse" x1="195.688" y1="328.764" x2="216.12" y2="361.548"><stop offset="0" stop-color="#341413" stop-opacity="0"/><stop offset="1" stop-color="#240f0e"/></linearGradient><path xmlns="http://www.w3.org/2000/svg" d="M170.3 391.6c1.1.9 2.6.8 3.6-.2l40.6-42.5c8.8-10.1 21.8-24.5 27-33.2 4.9-8.2 10.2-14.5 9.9-20.3-.4-8.3-10-18-10-18L141.2 363c-1.5 1.3-1.5 3.6.1 4.9l29 23.7z" fill="url(#bt-C)"/><g xmlns="http://www.w3.org/2000/svg" fill="#1e0700"><path d="M208.1 339.1l.4-1.1-1.1.3.7.8zm4.2-1.9l1.3-.6-1.4-1 .1 1.6zm-6.9 20.7l1.2-1.3-2-.6.8 1.9zm3-3l1.2-1.3-1.9-.6.7 1.9zm-10.3 9.5l1.6-.6-1.6-1.4v2zm2.8-10.4l-1.6-1.4v1.2l-.4.1.4.4v.3l1.6-.6zm7.8-4.5l1.6-.7-1.7-1.3.1 2zm2.1-3l1.5-.7-1.7-1.3.2 2zm11.2-7.4l1.3-.6-1.4-1 .1 1.6zm-25.7 21.6l.1-2-1.6 1.1 1.5.9zm0 7.8l.1-2-1.6 1.1 1.5.9zm-6.5-2.9l-1.6 1 1.4 1.1.2-2.1zm-3.7-12.5V351l-1.5 1.2 1.5.9zm14-3.4l-1.5 1.2 1.5.9v-2.1zm4.2-2l-1.6 1.2 1.6.9v-2.1zM192 372l.2-2-1.7 1 1.5 1zm-7.6 7.2l.2-1.7-1.4.9 1.2.8zm-.6-8.2l-1.4.9 1.2.8.2-1.7zm-1.8 11.5l.2-1.7-1.4.9 1.2.8zm35.7-40.7v-1.7l-1.3 1 1.3.7zm16.7-16.1V324l-1.3 1 1.3.7zm-.3-2.3l1.3-1.1-1.6-.4.3 1.5zm-4.1 7.9v-1.7l-1.3 1 1.3.7zm-4.9-5.1l.4.9.5-.6-.9-.3zm2.4 2.9l.5-.7-1-.2.5.9zm1.1-3.1l-.5-.7-.4.9.9-.2zm4.2 1.3l1-.2-.5-.7-.5.9zm-18.1 17.5v.4l-1.3 1 1.6.9v-.8l1.1-.6-1.4-.9zm-3.5-1l1.6-.7-1.7-1.3.1 2zm15.4-12.3l.1 1.6.8-.4-.8.7 1.1.4-.1-1.2.3-.2-1.4-.9zm-13.7 12.2l-.1 1.2 1.3-.5-1.2-.7zm2.8.3l-.1-1.2-.8.8.9.4zm1-6.4l.6 1 .6-.9-1.2-.1zm-13-10.9l-.8.2.5.6.3-.8zm4-1.3l-.6-.4v.7l.6-.3zm-5.5-3.4l-.5.4.7.2-.2-.6zm29.4 6.9l.6-.7-1.1-.2.5.9zm-9.3-.6l1.1-.2-.6-.7-.5.9zm-28.8 33.6l-1.1.8 1.1.6v-1.4zm4-4.8l.5 1.1.6-.7-1.1-.4zm-8.7-1.6l-.5 1 1.1-.1-.6-.9zm12.8-2.8l-1.3.3.7 1 .6-1.3zm-5.7 10.9l-1.3.2.7 1 .6-1.2zm7.6-10.7l.5-1.3-1.3.3.8 1zm7.1-2.4l.9-.4-1-.7.1 1.1zm-2.1.6l.1 1.2.9-.4-1-.8zm-5.8-6.4l-.9.7 1.1.3-.2-1zm0 10.3l1.1.3-.2-1-.9.7zm-12.9-6l-.5 1 1.4.1-.9-1.1zm5.7 5.5l-1.1.4.7.7.2-.5.6 1 .4-1.3-1 .1.2-.4zm.3-8.3l.9-.5-1-.6.1 1.1zm4.7 11.6l-.6 1.1 1.4.2-.8-1.3zm-11.1 15.3l-.5.9-1.8-1.7-.9 2.5 3-.4-.1-.1 1 .1-.7-1.3zm12.1-10.8l1.5-1.5-2-.4.5 1.9zm-15.3 4.4l.2.4.4-1.3h-.4l.4-1.3-2.3.7 1.6 1.7.1-.2zm-.3-6.5l.2 1.2.8-.5-1-.7zm-4.5 13.2l-1.6-1.1-.3 1.7 1.9-.6.1.7.7-.9-.9-.2.1.4zm11.1-8.5l-.5.9 1.2.1-.7-1zm-1.3 8.2l.7-.9-1-.3.3 1.2zm5.9-7.6l.7-.9-1-.3.3 1.2zm-10.8 12.9l.3-.9-.9.3.6.6zm9.3-27.5l.9.1-.6-.7-.3.6zm4.6-2.8l-.6-.4.1.7.5-.3zm7.3-6l-.6.6.9.1-.3-.7z"/><path d="M203.1 342.4h-.6l.4.7.2-.7zm3.5 5.3l.7-.2-.6-.4-.1.6zm4.4-14.9l-.2-.7-.6.6.8.1zm-4.9.2l.2-.4.6.1-.2-.8-.6.4h-.4l.4.7zm3.8 4l-.1.6.7-.2-.6-.4zm9.5.4l-.6.6.9.1-.3-.7zm-4.4.3l-.6.1.4.6.2-.7zm3.5 5.3l.7-.2-.6-.4-.1.6zm7.5-12.4l-.4-1.1-.9.9 1.3.2zm-6.6-.4h-.9l.5 1 .4-1zm4.7 7.2l1.1-.3-.9-.5-.2.8zM197 331l-.1.9.7-.5-.6-.4zm-2.6 7.7l-.5.5.7.2-.2-.7zm7.5-.3h-.7l.3.6.4-.6zm-16.6 7.7l-.7-.1.2.6.5-.5zm6.2-2.5l-.2.7h.6l-.4-.7zm1.2 26l.9.4-.1-1.2-.8.8zm9.6-11.3l1 .4-.1-1.2-.9.8zm-22.4 16.8v1.2l.9-.7-.9-.5zm1.3 4.1l.9-.6-.9-.5v1.1zm-1.6 2.4l1 .3-.4-.9-.6.6zm4.1-.2l.5-.9-1 .1.5.8zm4.6-11.3l-.7.6.7.4v-1zm.4-8l.4.5h-.3l.7 1 .3-1.1h-.2l.1-.6-1 .2zm1.2-2l.4-1.9-1.7.2 1.3 1.7zm-12.1 25.5l1.9-.6-1.6-1.1-.3 1.7zm.2-6.5l1.9-.6-1.6-1.1-.3 1.7zm.9 2.2l1.9-.6-1.6-1.1-.3 1.7zm5.4-5.1l1.9-.6-1.4-1h.5l-.5-1 .8-.2-.9-.7-.1.7-.5 1.1h.5l-.3 1.7zm-4.2-5.2l-.6.5.6.3v-.8zm6-16.2l.9 1.4.4-1.5-1.3.1zm-.8 9l.6-.2.4.6.3-1.1h-.4l-.8-.5-.1 1.2zm9.8-6.2l-.9.9 1.1.4-.2-1.3zm18.2-16l-.4 1.3 1.2-.1-.8-1.2zm1.7-5.6l.1-1-1.1.3 1 .7zm-8.8 3.8l.9-.7-.9-.5v1.2zm6.7 9h1.2l-.8-1.3-.4 1.3zm2.2-7l.2-1-1.1.3.9.7zm-8.8 3.9l.8-.7-.9-.4.1 1.1zm3.3-1l-.1-1.4-1 .5 1.1.9zm1 7l.9-.8-1.1-.2.2 1zm8.3-16l-1.1.3 1 .7.1-1zm-8.3 4.4l-.9-.5v1.2l.9-.7zm4-.7l-1.3.3.8 1 .5-1.3zm5.7-1.8l.9-.5-1-.7.1 1.2zm-8.8-4.8l1.1.2-.2-1-.9.8zm6.1 2.9l.4-1.1-1.2.3.8.8zm-1.4-7.2l-.7.6.9.2-.2-.8zm5.4 8.8l-1 .5.8.6.2-1.1zm4.3-2.4l.7-.5-.9-.4.2.9zm-6.9-2.5l-.3-.7-.6.7h.9zm2.9 8l-.7-1.2-.3.9-1.9-.6.6 1.4-.5-.2.6 1.6 1-1.1-.6-.2.6-.7v.1h1.2zm1.2-6.8l.2-.7.3-.1-.8-.6v.6l-.6.2.9.6zm-9.1 4.1l.9-.8-.9-.4v1.2zm-3.4 10.6h1.2l-.6-1.3-.6 1.3zm-6.4 4.8l-.5 1.2h1.2l-.7-1.2zm12.9-11.2l-.2.5-.5 1.3h.1l-.3.6h1l-.3-.7h.2l1.2.7v-1.7l-.5.4-.7-1.1zm.3 1.3h0zm7.4-9.1l.8-.9-1.4-.4.6 1.3zm-30.7 26.6l.5 1.2-.1-.1-.1 1 1.1-.3-.8-.5.7-.9-1.3-.4zm18.2-19.9l.9.8.2-1-1.1.2zm-7.3 3.4l-.9-.5v1.2l.9-.7zm-29.2 35.7l-1.4.9 1.2.8.2-1.7zm-6.6 8.9l.1-1.2-1 .6.9.6zm4.1-4.1l.6-.6-1-.3.4.9z"/><path d="M165.1 383.2l1-.1-.4-.7-.6.8zm.2-5.7l-.5.9 1.2.1-.7-1zm4.2 5.6l.3-1-.9.3.6.7zm1-7.8l.7-.4-.8-.5.1.9zm0-2.7l1.2.1-.7-.9-.5.8zm5 3.8l-.9.3.5.6.4-.9zm1.4-7.3l-.8-.5.1 1 .7-.5zm-.4 19.1l.6-.7-.8-.2.2.9zm70.8-85l-.4.9h.9l-.5-.9zm-7.1.7l.9.6-.1-.9.1-.5-.9.1.3.4-.4.2-.1-.5-.7.4.8.5.1-.3zm.6 5.2l.6-.5-.8-.2.2.7zm4.1-5.2h.7l-.4-.7-.3.7zm.6-2.2l1.3-1.1-1.6-.3.3 1.4zm-67.9 77.4l-.6 1.2 1.2.1-.6-1.3zm13.3-10.6l-.6 1.2 1.2.1-.6-1.3zm8.8-8.4l-1.4-.5.4 1.1-.4.6 1.4.2-.6-.9.6-.5zm-32.6 26.1l.5 1.3.8-.9-1.3-.4zM187 368l.3-1-1.2.2.9.8zm-9.1 1.6v1.2l.9-.6-.9-.6zm45.4-32.7l.8-3-2.8 1.2 2 1.8zM206 354.4l.8-3-2.8 1.2 2 1.8zm-12.2 14.3l.8-2.9-2.8 1.2 2 1.7zm-19.6 15.8l1.9 1.9 1-2.9-2.9 1zm40.8-58.6l.1-1.4-1.1.8 1 .6zm5.5-5.7l-1.1-.3.4 1.1.7-.8zm-9.8-1.9l-.6 1 1.1-.1-.5-.9zm28-15.7h.3l-.2-.4.2-.4h-1.1l.5 1.1.3-.3zm2.9 8.2l1.8-1.1-1.9-.7.1 1.8zm-4.7.7l-1.7-.6.1 1.6 1.6-1zm6-3.9l1.7.6-.3-2.1-1.4 1.5zm-3.6 8.3l1.7.5-.4-2-1.3 1.5zm-1.5-14l-1 .3.9.9.1-1.2zm-.5 6.3l.1.9.9-.5-1-.4zm6.7-5.4l-.5.8.9.2-.4-1zm-13.9-1l-.1.8.7-.2-.6-.6zm-13.1 14l-1.2-.3.1 1.1 1.1-.8zm5.8 1.4l-.3-1-.5.9.8.1zm-3.9-7.8l-1.1.1.7.7.4-.8zm11.4 5.4l-1.1 1.9 1.9.2-.8-2.1zm12.5-1.1l.1-2.2-1.8 1.2 1.7 1zm-19.1 14.8l-.8 2 1.9-.1-1.1-1.9zm6.6-1.7l1.9.2-.8-2.1-1.1 1.9zm3.4-10.8l-1.1 1.8 1.9.2-.8-2zm-6.7 5.1l-1 .4 1 .8v-1.2zm.6-.9l1.4-.8-1.4-.6v.9l-.9-1.4-.6 1.6 1.5-.1v.4zm7.9 1.8l1.2.2-.3-1.3-.9 1.1zm-3.4-9.7l.1-.2 1.1-.2-.8-.8-.1.2h-1.1l.8 1zm-6.3 9.4l-.7.7 1.2.4-.5-1.1zm2.3 6l.4.7.6-.8-1 .1zm3.6-6.8l.9-.2-.7-.8-.2 1zm-8-.2l-.1.8.7-.2-.6-.6zm-2-12.2l-.8.9 1.3.4-.5-1.3zm2.9 6.5l.5.9.3-.5.6.2-.3-1-.3.3-.8.1zm3.5-7.8l1-.3-.9-.8-.1 1.1zm9.5 13.5l2-2.5h-3.1l1.1 2.5zm-25-9.1l-1.1-.3.1 1 1-.7zm5.5.6l-.5.9.9.1-.4-1zm-3.5-7l-1 .1.7.7.3-.8zm23.3 10.5l.1-1-.9.5.8.5zm-1.1-9.1l.3 1 .6-.6-.9-.4zm-14.7-1.9l-.8.7 1.2.4-.4-1.1zm3.1 6h-1l.4.8.6-.8zm3-7.6l-.2 1 .9-.2-.7-.8z"/></g><linearGradient xmlns="http://www.w3.org/2000/svg" id="bt-D" gradientUnits="userSpaceOnUse" x1="232.52" y1="239.712" x2="224.478" y2="198.66"><stop offset="0" stop-color="#341413" stop-opacity="0"/><stop offset="1" stop-color="#240f0e"/></linearGradient><path xmlns="http://www.w3.org/2000/svg" d="M192.5 252.6s18.9-10 31-14.3c32.8-11.7 41.2-1.9 41.2-1.9l3.8-30.2h-73.9l-2.1 46.4z" fill="url(#bt-D)"/><g xmlns="http://www.w3.org/2000/svg" fill="#1e0700"><path d="M222.4 208l1.5 1.1.2-1.3.7 1.6-1.8 1 1.5 1.1-.7.4.4.3-.2 1.3 1.7-.5-1.1-.8.1-.8-.2.1.4-1.9.3.7 1-1.9 1-.6.8-.1-.9-.9-.3.9-.2-.1.4-.9-3.5.1.2.5-1.3.7zm-.8 1.2l.4-.8-.2 1.4 1.7-.5-1.4-1 .9-1.6-3.5.1 1.4 2.9-1 .5 1.6 1 .3-2h-.2zm5.9 1.3l1.4.9.1-.5.6.4.3-2-.7.4.1-.6.1.1.3-1.7 1.2 3 2.1-3.5-3.5-.1.2.4-1.7 1 .5.3-.2.3h.7l.1.1-1.4.8.1-.9-1.9 1 1.5 1 .1-.4zm-14.8 3l.5-1.8-2.1.3 1.6 1.5zm13.5-.7l-.2 1.5 1.7-.5-1.5-1zm-4.4.2l.5-1h-.9l.4 1zm-5.4 6.4l1.1.2-.3-.9-.8.7zm3.4 3.8l1.1.2-.3-1.2-.8 1zm-.1-7.1v.9l.9-.4-.9-.5zm7.4 5.8l.2-1.1-.9.3.7.8zm-19.8 5l1.1.2-.3-1.2-.8 1zm-.1-7.1v.9l.9-.5-.9-.4zm7.3 5.8l.2-1-.8.2.6.8zm-18.5.6l1 .2-.2-1.2-.8 1zm.8-6.6l-.9-.5v.7l-1.6-1.2-.4 4.1.9-.5-.4 1.8 2.2-.5-1.5-1.6 1.9-1.2-1-.7.8-.4zm6.4 5.3l.2-1.1-.9.3.7.8z"/><path d="M199 223.3l1 .3-.2-1.2-.8.9zm-.1-7.1v.9l.9-.5-.9-.4zm7.4 5.8l.2-1-.9.2.7.8zm-8.9-5.8l.7-1-1.3.1.6.9zm5.6 3.2l.9-.6-.8-.4-.1 1zm6.2-3.2l-.9-.4h.1l-.3-.3v-.1.1l-1.1-.8-.3 1.5.5-.1v1l.6-.3.8.1-.1-.4.7-.3zm2.2 3.7l.2-1.1-.9.3.7.8zm-1.8-3.8l.8-.7-1.1-.5.3 1.2zm2-6.6h0l-.2 1.5 1.7-.4-1.5-1.1 1-.1.3.8 1.2-2 1.3.8.3-2.1-1.3.7.6-1-3.5-.1.6 1.6-1-.7-.2 1.6 1-.3-.3.8zm1-.2l-.5-.5.3-.1.2.6zm4.1 3.1l-.7.3-.8-.7-.2 1 .6-.1 1 .9.1-1.4zm-.2 3.4l-1.1-.5.3 1.2.8-.7zm-6.6-3.3l.7.5.2-1-.9.5zm8.3-3.4l-.3.9 1-.1-.7-.8zm-4.2.7l.7 2.3 2.1-1.8-2.8-.5zm-18.2 4.8l2.1.4-.4-1.6.4-.1-3.2-3-.2 3.7 2.7-.5-1.4 1.1zm3.5-3.7l-1.6 1.3 2.1.4-.5-1.7zm.4-2.2l.4.2.3.5v-.3l.4.2-2.4.1 1.9 2.1.7-2.1.5.3.4-2.7-1.5.9.2-1.7h-2.4l1.4 2.1.1.4zm23.4 9.4l1 .1-.3-1.2-.7 1.1zm2.3-1.6l.4-.9h-1l.6.9zm-2.8 4.4l.9-.5-.9-.4v.9zm-12.8-11.8h.9l-.4-1-.5 1zm8.7 4.5l-.9-.7-.3 1.6 1.7-.5-.5-.4.8-.5-1-.3.2.8zm-13.8-3.4l1.2-2.1.1.6.4-.3.5.3.1-.7h.4l.6 1.5-1.2.7-.6-.6-.3.9h.6l2 1.2v-.2l.9.9.5-1.8-1.3.2.2-1.6 1.4-2.4-3.5-.1.1.2-.5.3.2-.5-3.5-.1.6 1.5-1.2-1-.3 1.8 1.7-.4.9 1.7zm14.5-3.5l-3.5-.1.9 2.1-.9-.7-.3 1.5 1.4-.3.4 1 .9-1.5 1.3.9.3-2.1-1.5.8 1-1.6z"/><path d="M195.9 210l1.1 1.2-.2.1.9.6.2-1.3-.5.3.3-1.5-1.5.5 2-3.4-3.5-.1 1.4 3.5-.2.1zm5.9 5.3l-2.5-2.8-.7 3.4 1.5-.3.7 2.2 1.7-1.5-2.3-.7 1.6-.3zm2.7-2.9l.1-.8-.6.3-.6-.6.3-2.3-2.1 1.3v-.2l-.6.7 1 .3-.1-.3.7.5-.4 2-.3-1-1.6 1.3 2.1.4v-.1l2.9-.6-.8-.9zm-10.9 14.1l1.8-.7-1.2-2.2-.6 2.9zm15.3-12.8l-1.1-1.2.2-1.3-.9.5-.3.2-.4-1.1-1.5 1.3 1.3.3.7.5-.2 1.3 2.2-.5zm-9.8 4.6l-2.6-2.8-.4 2.1-1.3-1.4-.5 2.4 1.7-.3-.1.6 2.5-.5-.3 1.7 2.2-.4-1.3-1.4h.1zm5.6-2.1l.1-.4.3.4.5-1h-.6l-1.2-.5.4 1.3-.3-.1.1.5-.9.5 1.5 1.1.2-1.4.2-.1h-.3v-.3zm-.1-.6l.1.1-.5.3.4-.4zm-5.6-3l-.9.5.7.5.2-1zm15.3 6.6l1.2-1-1.5-.8.3 1.8zm-4.6-2.1h0l-.7-.3.1.6-.5.2.8.6.2-.8.3-.2-.2-.1zm2.5-1.1l-.9-.4.2 1 .2-.2.1.5.7-.5-.5-.3.2-.1zm-7 2l-.3.7.9-.1-.6-.6zm9.7 4.6l1-.8-1.2-.6.2 1.4zm2.9-7.3h1.2l-.7-.9-.5.9zm28.9-1.9l1.7-.5-1.5-1.1-.2 1.6zm-2.1-5.2l-.2 1.5 1.7-.5-1.5-1z"/><path d="M247 213.5l-1.9 1.1 1.6 1 .3-2.1zm-2-5.5l1.5 1.1.2-1.2.7 1.6-1.8 1 1.5 1.1.3-1.9.3.6 1.9-3.6-3.5.1.2.5-1.3.7zm-.9 1.2l1.3-2.6-3.5.1.4.8-1.9 1.1 1.6 1 .3-2 1 2.1-.9.5 1.6 1 .3-2h-.2zm-14.2 4l.3-2.1-1.9 1.1 1.6 1zm4.9 0l.5-1.8-2.1.3 1.6 1.5zm-2.9-1.2l.5-1.8-2.1.3 1.6 1.5zm7.8.6l-.3 1.5 1.7-.5-1.4-1zm9.1.2l-.3 1.5 1.7-.5-1.4-1zm-10 .1l-1-.9-.2 1.1 1.2-.2zm5.6.1l.5-1h-.9l.4 1zm-5.3 6.3l1 .2-.3-.9-.7.7zm3.4 3.9l1.1.2-.3-1.2-.8 1zm-.1-7.1v.9l.9-.4-.9-.5zm7.3 5.8l.2-1.1-.9.3.7.8zm-20.3 4.6l1.1.3-.3-1.2-.8.9zm-.2-7v.9l.9-.5-.9-.4zm7.4 5.7l.2-1-.8.2.6.8zm-3.1-5.6l.2-1.1-.9.3.7.8zm-4.1-5l.1.3-.2-.1v2l2-1-1.1-.5.2-.2-1-.5zm-2.1 2l1.4.2-.5-1.6-.9 1.4zm9.6-4.3l-1.1.5 1 .9.1-1.4zm-12.7 2.3l.2-1-1.9 1.1 1.5 1 .1-.3.1.6 1-.9-1-.5zm-6.1-4.3l-1.2.6.2.1-.3.2 2 1.3.4-2.7-1.2.7.1-.2zm19.9 5l.3 1.2.8-.7-1.1-.5zm-4.6-3.3l-.9.5.7.5.2-1zm7.1-2.1l1-.1-.7-.8-.3.9zm-4.3-.2l.7 2.3 2.1-1.8-2.8-.5zm5.4 2.7l.4-2.7-2.5 1.4 2.1 1.3zm4.1 5.6l1.1.2-.3-1.2-.8 1zm2.3-1.6l.4-.8h-1l.6.8zm-2.8 4.5l.9-.5-.9-.4v.9zM232.6 208l-.3.6-.1-.1-.3.9 1-.1-.2-.3h.4l-.5-1z"/><path d="M241.1 213.6l.9-.6-1-.3.1.9zm-4.5-5.4l1 .6-.1.4 1.4-.3.5 1.3 2.1-3.5-3.5-.1.7 1.7-.8-.6.1-1-.9.5.3-.5-3.5-.1.5 1.3-.9-.7-.2 1.5 1.4-.4.7 1.7-1.3-1-.3 1.5 1.7-.4-.1-.1 1.2-1.8zm-.2 10.6l1.2-.9-1.5-.8.3 1.7zm-4.6-2.1l-.7-.3.1.6-.5.3.8.6.2-.8.3-.2-.2-.2zm2.5-1l-.9-.4.2 1 .2-.2.1.5.7-.5-.5-.2.2-.2zm2.7 6.5l1-.8-1.2-.6.2 1.4zm2.9-7.3h1.2l-.7-.9-.5.9zm12.7-4.7l1.7-.5-1.5-1.1-.2 1.6zm2.6 3.7l-1 .6-.9.5 1.2.7.1.2.1-.1.2.1.1-.4.6-.5-.5-.2.1-.9zm-2-5.5l1.5 1.1.2-1 .7 1.4-1.7.9 1.5 1.1-.7.4.4.3-.2 1.3 1.7-.5-1.1-.8.1-.8-.2.1.3-1.6.1.2 1.4-2.9-.1.3 1.3-.1-.8-.9.1-.1-3.5.2.4.8-1.4.6zm3.5 1.8l1.6 1v-.3l1.5.9v-.5l.6.4.3-2-.7.4.1-.6.1.1.1-.9.8 1.8 2-3.5-3.5-.1.4 1-1.4.7.5.3-.2.3h.7l.1.1-1.4.8.1-.9-1.7 1zm.1 4.5l1.7-.5-1.5-1.1-.2 1.6zm-11.3-2.4l-.2 1.1 1.2-.2-1-.9zm6.7.8l.4-1h-.9l.5 1zm-5.3 6.5l1.1.2-.3-.9-.8.7zm3.4 3.8l1.1.2-.3-1.2-.8 1zm-.1-7.1v.9l.9-.4-.9-.5zm7.4 5.7l.2-1-.9.3.7.7zm-3.6-3.5l1.1.2-.3-1.2-.8 1zm2.3-1.7l.4-.8h-1l.6.8zm-3.2 4.3l.9-.5-.9-.4v.9zm.5-14.4l-3.5-.1 1.2 3-1.2.7.3-1.6-1.9 1 1.6 1 .1-.4 1.5.9.2-1.5 1.7-3zm7.4 4.7l-1.9 1.1 1.6 1 .3-2.1zm2.7.4l1.6 1.5.5-1.8-2.1.3zm-2.5-1l1.6 1.4.4-1.8-2 .4zm0 4.8l.3-.2-1.1-.5.1.3-.2-.1.1 2 2-1-1.2-.5zm2 4l.2-1-.9.3.7.7zm-15.9-8.5l.9.6.2-1.3-1.1.7zm-52.3 4.7l1.7-.5-1.5-1.1-.2 1.6zm68.8-.5l2-1.8-2.8-.5.8 2.3zm4-8.5h-3.5l.5 1.3-1-.6-.2 1.4-.2-.6-.3.6-.1-.1-.3.9 1-.1-.3-.3h.4l-.1-.2 1.3-.4.7 1.8-1.3-1-.2 1.6 1.7-.4-.1-.1 2-3.8zm-4.4 10l.7-.5-.9-.4.2.9zm-2 4.5l1.2-1-1.5-.8.3 1.8zm.9-3.6l.7-.6-.9-.4.2 1z"/></g><path xmlns="http://www.w3.org/2000/svg" d="M322.2 139.2l3-2.1 6-4.5c1.5-1.2 11.2-16.7 11.2-16.7l-8.5-3.6-10.5 6.8-4.5 8.2 3.3 11.9z" fill="#da7f57"/><path xmlns="http://www.w3.org/2000/svg" d="M340.1 102.6l4.1.9c.8.2 1.2 1.2.7 1.8l-17.2 21.2-7.9-2.5 18-20.6c.6-.6 1.5-.9 2.3-.8z" fill="#1f2b36"/><path xmlns="http://www.w3.org/2000/svg" d="M301.3 140.5s12.6-11.4 14-14 1.7-4.4 1.9-6.5c.2-2 3.2-3.9 4.9-5.3s8.4-3.4 8.4-3.4 1.2.8-.7 3.8c-1.9 2.9-5.8 4.4-5.8 4.4s-1.5 3.4-2.6 5.1l-1 1.7s1.2-.2 3.6 2.9.7 7.8.7 7.8l-14.8 20.3-8.6-16.8z" fill="#e89976"/><path xmlns="http://www.w3.org/2000/svg" d="M335.5 110.7c.9-1.5 3.4-.4 4.3.3s4.1 2.2 3.1 3.9c-1.1 1.7-2.5 1.8-4.6.6s-3.5-3.5-2.8-4.8z" fill="#ea9d7d"/><path xmlns="http://www.w3.org/2000/svg" d="M340.7 116.7c-.9 0-1.8-.4-2.6-.8-1.5-.9-2.8-2.3-3.1-3.6-.2-.6-.1-1.2.2-1.7s.8-.8 1.3-.9c1.3-.2 2.9.5 3.6 1.1.1.1.3.2.6.4 1 .6 2.6 1.6 2.8 2.8.1.5 0 .9-.2 1.3-.8 1-1.7 1.4-2.6 1.4zm-3.7-6.4h-.3c-.4.1-.6.2-.8.5s-.2.6-.1 1.1c.3 1.1 1.4 2.4 2.7 3.1 2 1.1 3.1 1 4-.5.1-.2.2-.4.1-.7-.2-.8-1.6-1.7-2.5-2.3-.2-.2-.5-.3-.6-.4-.5-.2-1.6-.8-2.5-.8z" fill="#cc7a5e"/><path xmlns="http://www.w3.org/2000/svg" d="M329 120c.3-1.8 3-1.6 4.1-1.3s5.3.8 4.9 2.8-2.3 2.3-4.7 1.9-4.5-2-4.3-3.4z" fill="#ea9d7d"/><path xmlns="http://www.w3.org/2000/svg" d="M334.9 124c-.7 0-1.2-.1-1.6-.1-1.8-.3-3.4-1.2-4.2-2.3-.4-.5-.5-1.1-.4-1.7s.4-1 .9-1.3c1.1-.7 2.8-.5 3.8-.3.2 0 .4.1.7.2 1.7.4 4.9 1 4.5 3.2-.6 1.9-2.3 2.3-3.7 2.3zm-3.3-5.1c-.6 0-1.2.1-1.7.4-.3.2-.5.4-.5.8-.1.3 0 .7.3 1 .7.9 2.2 1.7 3.7 1.9 3.3.5 4-.6 4.2-1.6.3-1.3-2.6-1.9-3.9-2.2-.3-.1-.5-.1-.7-.2-.3-.1-.9-.1-1.4-.1z" fill="#cc7a5e"/><path xmlns="http://www.w3.org/2000/svg" d="M327.2 124.2c.3-1.6 2.7-1.4 3.7-1.2 1 .3 4.2.6 3.8 2.4s-1.4 2.3-3.6 2c-2.2-.4-4.2-1.9-3.9-3.2z" fill="#ea9d7d"/><path xmlns="http://www.w3.org/2000/svg" d="M332.2 127.9c-.4 0-.8 0-1.2-.1-1.6-.2-3.1-1.1-3.8-2.1-.4-.5-.5-1.1-.4-1.6s.4-.9.8-1.2c1-.7 2.7-.5 3.4-.3.1 0 .3.1.6.1.7.1 1.6.3 2.3.7 1.2.6 1.3 1.4 1.2 2-.4 2-1.6 2.5-2.9 2.5zm-2.7-4.7c-.5 0-1.1.1-1.4.3s-.4.4-.4.7c-.1.4.1.7.3 1 .6.8 1.9 1.5 3.3 1.7 2.3.3 2.9-.3 3.2-1.6.1-.3 0-.7-.8-1.1-.6-.3-1.5-.5-2.1-.6-.2-.1-.5-.1-.6-.1-.6-.2-1-.3-1.5-.3z" fill="#cc7a5e"/><path xmlns="http://www.w3.org/2000/svg" d="M331.4 115.2c.7-1.7 3.7-1.1 4.9-.7 1.2.5 5.5 1.8 4.6 3.7s-2.8 1.8-5.4 1.1c-2.5-.6-4.7-2.6-4.1-4.1z" fill="#ea9d7d"/><path xmlns="http://www.w3.org/2000/svg" d="M338.3 120.3c-.9 0-1.9-.2-2.9-.5-2-.5-3.7-1.8-4.4-3.1-.3-.6-.3-1.2-.1-1.7.9-2.1 4.3-1.3 5.5-.9a.76.76 0 0 1 .4.2c1.3.5 3.9 1.4 4.5 2.8.2.4.3 1.07.01 1.47-.6 1.5-1.7 1.73-3 1.73zm-4.5-5.8c-.9 0-1.7.2-1.9.9-.1.3-.1.6.1 1 .5 1.1 2.1 2.2 3.8 2.6 3 .8 4.2.6 4.9-.9.1-.2.1-.4 0-.6-.4-1-2.9-1.9-4-2.4-.2-.1-.3-.1-.4-.2-.7-.2-1.6-.4-2.5-.4z" fill="#cc7a5e"/><path xmlns="http://www.w3.org/2000/svg" d="M256.5 127.8s6 13.1 12.1 18.9c5.9 5.7 10 5.8 13.9 3.4 3.3-2 14.1-10.5 17.4-13.2.5-.4 1.3-.4 1.8.1l17.4 17.9c.5.5.6 1.4.1 2-3.2 4.4-15.9 21.2-28.1 29.4-13.6 9.1-20.8 10.2-32.3 5.2-15.5-6.5-2.3-63.7-2.3-63.7z" fill="#642c1e"/><linearGradient xmlns="http://www.w3.org/2000/svg" id="tp-A" gradientUnits="userSpaceOnUse" x1="300.46" y1="147.35" x2="278.796" y2="156.079"><stop offset="0" stop-color="#552828" stop-opacity="0"/><stop offset="1" stop-color="#441814"/></linearGradient><path xmlns="http://www.w3.org/2000/svg" d="M288.4 146.1l24 19.9s-15 17.5-24.5 22.5c-6.7 3.6-18.7 11.1-25.2 2.9-13.1-16.6-6.9-63.1-6.9-63.1s12.5 24 21.3 23.7c6.3-.3 11.3-5.9 11.3-5.9z" fill="url(#tp-A)"/><path xmlns="http://www.w3.org/2000/svg" d="M229.78 102.1s18.9-1.53 29.4 25.8c1 2.58 2.35 7.1 3.1 10.5l17.13 75.9c1.3 3.4-1 6-6.3 3.2-5.2-2.9-5.8-6.6-7.1-13.9-1.4-7.4-36.23-101.5-36.23-101.5z" fill="#884130"/><path xmlns="http://www.w3.org/2000/svg" d="M235.5 207.7h30.7s-3.7-43.1-7.4-65.2-12.1-41.7-35-41.7c-10.7.3 11.7 106.9 11.7 106.9z" fill="#fffbdc"/><path xmlns="http://www.w3.org/2000/svg" d="M200.8 119.1l-23.4 93c-2.3 8.1 1.3 8.2 7.9 8.1 5 0 39.5-1.2 47-2.9s12.3-8.2 13.7-22.1c2.5-25.2-.5-72.8-1.5-79.7-.8-5.7-6.1-9.9-9.6-11.8-3.4-1.8-12.6-3.7-19.5-2.1-6.7 1.8-11.2 3.9-14.6 17.5z" fill="#7a3a2b"/><linearGradient xmlns="http://www.w3.org/2000/svg" id="tp-B" gradientUnits="userSpaceOnUse" x1="223.122" y1="185.511" x2="202.858" y2="161.284"><stop offset="0" stop-color="#552828" stop-opacity="0"/><stop offset="1" stop-color="#552828"/></linearGradient><path xmlns="http://www.w3.org/2000/svg" d="M239.2 123s5 12.6-.7 28.5c-3.9 10.6-10.8 33.7-24 42.4-13.2 8.6-17.3 14.7-22.1 18.3s-14.9.5-14.9.5l14.3-54.1 47.4-35.6z" fill="url(#tp-B)"/><path xmlns="http://www.w3.org/2000/svg" d="M164.2 175.9c-3.6 6.7-3.4 7.1-2.3 21.4 1 14.3 5 43.6 5 43.6s-1 6.3 1.7 13.6c2.8 7.2 3.8 7.8 4.3 8.7.6 1 1.7-.3 1.7-.3s.8 2.2 2.1 2.3c1.3 0 1.3-1.5 1.3-1.5s.9 1 1.8.7 1.1-3.4 1-5.6c0-2.2.1-7.7.2-8.7 0-1 1.1 2.1 1.9 3.7.7 1.6 2.9 2.1 2.2-.9-.7-3.1-.7-5.88-.9-6.68-.3-.8-.87-2.87-1.57-4.17S181.5 241 181.5 241s-.7-1-.3-4.2 3.4-34.8 4.5-39.6c1.4-6.4-18.4-27.1-21.5-21.3z" fill="#ea9d7d"/><path xmlns="http://www.w3.org/2000/svg" d="M166.9 240.2c-.2 0-.3-.2-.3-.4 0-.4-4.9-40.8-5.8-54.1-.8-11.7 2.2-18.3 4.7-21.8 1.7-2.4 3-3.7 3.2-3.8s.5 0 .6.2 0 .5-.2.6c0 0-1.8 1.7-4 5.3-3.6 6.1-3.9 13.9-3.5 19.4.9 13.2 5.8 53.6 5.8 54 0 .2-.1.4-.4.5 0 .1 0 .1-.1.1z" fill="#cc7a5e"/><linearGradient xmlns="http://www.w3.org/2000/svg" id="tp-C" gradientUnits="userSpaceOnUse" x1="188.148" y1="219.271" x2="199.435" y2="222.396"><stop offset="0" stop-color="#cc7a5e" stop-opacity="0"/><stop offset=".924" stop-color="#aa5f4b"/></linearGradient><path xmlns="http://www.w3.org/2000/svg" d="M191.1 189.3c-1.2 1.2-5.5 6-6.3 10.8-.8 4.7-3.3 35.5-3.3 35.5l-.4 5.5s.4-.6 1.7 1.7 2.5 9 2.8 10.5-.1 1.6-.5 1.7c-.4.2-1-.2-1.3-.8-.4-.6-2.6-5.1-2.6-5.1s-3.1 0-4.2-2.5-.9-5.6-.9-5.6-8.1-40.3 0-54.2c7.4-13.1 16.1 1.3 15 2.5z" fill="url(#tp-C)"/><linearGradient xmlns="http://www.w3.org/2000/svg" id="tp-D" gradientUnits="userSpaceOnUse" x1="174.305" y1="241.124" x2="173.728" y2="230.847"><stop offset="0" stop-color="#cc7a5e" stop-opacity="0"/><stop offset=".924" stop-color="#aa5f4b"/></linearGradient><path xmlns="http://www.w3.org/2000/svg" d="M165.5 230.3l1.6 12.2 14.6-2 .2-10.1-16.4-.1z" fill="url(#tp-D)"/><linearGradient xmlns="http://www.w3.org/2000/svg" id="tp-E" gradientUnits="userSpaceOnUse" x1="199.854" y1="170.119" x2="153.262" y2="141.719"><stop offset="0" stop-color="#884130"/><stop offset=".98" stop-color="#af614e"/></linearGradient><path xmlns="http://www.w3.org/2000/svg" d="M157.6 231l30.3-.6c.9 0 1.6-.7 1.7-1.6.2-2.6.5-8.1.6-14.9.3-11.8 2.7-27.7 12.3-39.6 17.4-21.7 26.5-27.9 34.1-34.9 12-11.1 7.7-25.7 1.6-32-8.5-8.8-23.1-10-36.6.5s-31.3 28.6-40.5 52.9c-9 23.8-8.2 46.8-5.1 68.9 0 .7.7 1.3 1.6 1.3z" fill="url(#tp-E)"/><linearGradient xmlns="http://www.w3.org/2000/svg" id="tp-F" gradientUnits="userSpaceOnUse" x1="314.32" y1="138.507" x2="308.291" y2="145.34"><stop offset="0" stop-color="#cc7a5e" stop-opacity="0"/><stop offset="1" stop-color="#aa5f4b"/></linearGradient><path xmlns="http://www.w3.org/2000/svg" d="M310.8 133c7.9 6.2 10.9 7.9 10.9 7.9l-7 9.7-11.6-11.9 4.9-4.5c1-.5 1.8-1.9 2.8-1.2z" fill="url(#tp-F)"/><g xmlns="http://www.w3.org/2000/svg" fill="#bf735c"><path d="M166.8 156.7v-1.8l-1.4 1.1 1.4.7zm4 .3l.2-.2-.4-.2-.1-1.5-1.3 1.2 1 .4v.2l-.4-.2.6 1.9-.4-.6-.9 1.4 1.7-.2-.3-.5 1.3-1.2-1-.5zm-5.6-1l1.4-1.1-1.8-.9 2.6.1.3 1.5 1.4-1.1-.4-.2.7-.5-.5-.3 1.4-1.1-.4-.2.6-.4-1.7-1 .1.8-.4-.2-1.4-.8h2.8l-2.5-3.2-1.3 3.2-.1.1.8.3.2 1.5.5-.4.2.3.3-.6.2 1.4-.6-.4.1 1.1-.1-.1-2.1-3-1.5 3.1h.7l.5 2.1zm-3.5 28.1l-2-.6.8 2 1.2-1.4zm.4-4.7l-1.7-.7.1 2 1.6-1.3zm-2.9 3.9l1.6-1.4-1.7-.7.1 2.1zm9.1-20.6v-.7l.6.6.3-1.1-1 .4v-1l-1.4 1 1.5.8zm1.3-8l1.5.2-.5-1.7-1 1.5zm-5.6 32.7l-.2-1.7-1.3 1.3 1.5.4zm2.7-24.7l-1.1.7.9.5.2-1.2zm1-6l-.3.8 1-.1-.7-.7zm4.8 6.7l.4.9.5-.9h-.9zm5-1.1l.5-.9-1.2-.1.7 1zm-6-2.7l-.7.7.8.3-.1-1zm6-4.1l.9-.4-.9-.5v.9zm4.8 9.6l.2-1-1.2.3 1 .7zm-7 .2h.9l-.5-.9-.4.9zm4.8-6.7l.8-.6-1-.2.2.8zm-7.7 40.6l.4-1-1.2.1.8.9zm-6.4-1.7l-.6.8.9.1-.3-.9zm6.1-5.5l-1-.3.2.9.8-.6zm-1.8 2.9l-1.2.1.8.9.4-1zm-6.7-.6l-.5.8.9.1-.4-.9zm5.1-6l.1.9.8-.6-.9-.3zm-5.5 11.6l-.1 1.2.9-.4-.8-.8zm4.2-5.2l-.5.7 1 .2-.5-.9zm-2.1-9.6l-.7-2.1-.6 1-.2-.3-.6 1h.4l-.1.2 1.8.2zm2.7-3.1l.8-.6-1-.3.2.9zm-8.4 7.8l.6-.7-.9-.3.3 1zm-1.5-8.2l.1-1-.3.2v-.4l-1 .2.5.4-.1.1.8.5zm15.9-7h-1.6l1 1.3.6-1.3zm-1.6-7.8l1.2-.7-1.3-.5.1 1.2z"/><path d="M156.6 186.6v-1.2l-1 .8 1 .4zm12.1-22.1l1.2.1-.4-1-.8.9zm-4.2 4.4l.7-.5-.2-.1h.1l-.8-.6-.2.9.4-.1v.4zm.1-9.3l-.9.5.7.5.2-1zm-1.4 4.8h2.4l-1.1-2.5-1.3 2.5zm2.3-2.7l1.8-1.6-2.5-1.2.7 2.8zm-7.3 30.4l1.5-1.8-2.6-.7 1.1 2.5zm2.5 1.1l.7-2-1.7.3 1 1.7zm-.8-4.6l.7-1.9-1.8.3 1.1 1.6zm3.2-22.9l-1.5 1.1 1.4.7.1-1.8zm-3 .8l1.4.7v-1.4l1.7-.2-1.6-1.7 1-.8.4.2.1-1.7-1.4 1-.8-.4.3 1.3-.6-.6-1 3.3 1.5-.2-1 .5zM173 158l.8.9.4-1-1.2.1zm0-1.4l.9-.4-.7-.6-.2 1zm2.5 3.3l.9.2-.3-1-.6.8zm-7.2 1l-.3-1-.6.9.9.1zm-11.8 24.5l.9-1 .8 2-.6.4.8.4v-.6l1.5-1.8-2.3-.6.1-.1-1-.3 2.5-.6-3.2-2.5-.6 3.4.5-.1.6 1.4z"/><path d="M156.6 194.7l.4-.4v.6l2.3-1.6-2-1 .5-.6-2.6-.7.8 1.9-.2-.1.7 1.8-1.9-1.5-.6 3.4 3.7-.9-1.1-.9zm.5-2.2v.7l-.4-.1.4-.6zm6.5-32.5l1.2-1-1.7-.8 2.3-.2.1.8 1.4-1.2-1.8-.9v.2l-1.7-1.9-1.1 3.3.6-.1.3 1.5-1.2-1.3-1.1 3.3 3.8-.3-1.1-1.4zm1.3 13.5l-.7.9 1.2.2-.3-1.3-.2.2-.1-1.7-1.3 1.2 1.4.5zm-1 1.4v-1.2l-1 .8 1 .4zm6.7-1.3l-.9.1.5.9.4-1zm1.5 5.8l1.2 1.1.4-1.4-1.6.3zm-7.5-.5l-.7 1.2h1.2l-.5-1.2zm6.2-8.4l.3 1.2 1.1-.8-1.4-.4zm-4.1 3.2l-.7 1h1.2l-.5-1zm-4.8 5.6l.7-.6-.9-.4.2 1zm-1.8-4.2l2.4-.1-1.2-2.4-1.2 2.5zm.8 2.5v-1.7l-1.4 1.1 1.4.6zm-3.5-.5l1.4.6v-1.3l1.6-.3-1.7-1.6.4-.4.9.3-.1-1.6 1.5-.3-1.3-1.2.7-.7.7.4v-.2l.7 2 1.6-1.8-2.3-.8v-.2l-.3.1h-.1v.1l-.4.2.3-.3-1.7-.6 2.1-.4.2.7 1.3-1.3-1.9-.7.1.2-2-1.7-.7 3.4.7-.2.5 1.5-1.4-1.2-.7 3.4.3-.1.2.8-.7-.6-.8 3.4 1.4-.3-.5.7zm2.4-4.3l-.6.5-.7-.3 1.3-.2zm5.2-1.2l-.4-.9-.4.9h.8zm-8.3 5.2l-.8 3.4 3.8-.7-3-2.7zm-2.2 13.3l1.7.6-.1-1.5 2.1-.5-3.2-2.5-.6 3.4.9-.2-.8.7zm5.4 5.2v.9l.9-.4-.9-.5.5-.6-.9-.3.4.9zm5.6-15.2l-.3.5-.1-.2-.4.8 1-.2-.2-.2.6-.1-.6-.6zm.5 2.6l-.5.9 1-.2-.5-.7zm-1.9 6.8l-.2-.3-.1.2.1-1-.6.3-.5-.3-.2 1.2.7-.3-.6 1.1 1-.1.4.9 1.2-1.3-1.2-.4zm2.1-.8l-.7.5.6.3.1-.8zm7.4-21.4l1.4.2-.5-1.1-.9.9zm-5.3 3.5l.2 1.1.8-.6-1-.5zm-9.7 41.4l1.2 1.7.9-1.6-2.1-.1zm.1-2.7l1.3-1.7-1.8-.3.5 2zm-.7 2.6l1.3-1.7-1.8-.3.5 2zm5 1.4l-1 1.5 1.5.1-.5-1.6zm11.3 11.3l.1-1-1.1.4 1 .6zm-7 .8l.9-.1-.5-.8-.4.9zm4.5-7l.7-.7-1-.1.3.8zm-.6 3.6l.2-1.1-1.2.3 1 .8zm-6.9.7l.9-.1-.5-.8-.4.9zm4.4-7.1l.7-.7-1-.1.3.8zm-3.2 12.9l.8-.6-1-.6.2 1.2zm2.4-6.3h1l-.6-.8-.4.8zm-3.5-9.8l-1.1-1.9-.4 1.1-.2-.2-.4 1.1.3-.1-.1.2 1.9-.2zm1.5-3.7l.7-.7-1.1-.1.4.8zm-6.6 8.6l.6.9.4-.8-1-.1zm-2.6-6.8l-.2-1-.3.3v-.4l-.9.5.6.3-.1.1.9.2zm14-10.1l-1.6.3 1.2 1.1.4-1.4zm-8.5 1.3l-.5-1.2-.1.1-.4-1.6-1.1 1.3 1.4.3-.5 1 1.2.1zm5.2-9.9l.3 1.2 1-.9-1.3-.3zm-8.2 32.3l.7 1 .4-.6.4.3.2-1-.8.4-.9-.1zm-4.3-8.6l1.1.3-.2-1.2-.9.9z"/><path d="M159 221l1-2.2-2.7-.2 1.7 2.4zm2.6.5l.3-2.1-1.6.7 1.3 1.4zm-1.5-6.4l-1.7.6 1.4 1.4.3-2zm-4.3-.3l.7-1.2 1.2 1.7-.5.6.8.2-.1-.6 1-2.1-2.3-.1.1-.1-1.1-.1 2.3-1.1-3.6-1.7.2 3.5.5-.3.8 1.3zm-.3 8l.2 3.5 3.5-1.7-3.7-1.8zm5.1-21.5l-.8.9 1 .2-.2-1.1zm6.3-.1l.2-1-.9.2.7.8zm4.1 4l-1.5.5 1.4 1 .1-1.5zm-8.9 1.2l-.5 1.3 1.2-.2-.7-1.1zm4.8-9.3l.5 1.1.9-1-1.4-.1zm-3.6 4.1l-.5 1.1 1.2-.3-.7-.8zm-2.9 5.7l-1-.2.5.9.5-.7zm-.9-3.6l-1.7-2.1-.6 2.8 2.3-.7zm-.8-2.5l1.3-2-1.4-.2.2-1.7-.4.2.5-.7h-.1l.2-.3.3.4.4-.9-.8.2-.8-.3.3.8-1.4-.3.7 1.5-.5.3.9.6-.6-.1 1.2 2.5zm1.8-1.6l.9-.1-.6-.8-.3.9zm-6.3 7.4l1.1-.4-.3.3 1.5.3-.3-1 1.3-.5-.7.8 1.5.3-.4-1.7-.4.5-2.1-1.2.8-1.2.4.1-.3-1.3 1.1-.4-.3-.2.1-1.1h.1v-.8h-.1v-.3l-.8.7h.1l-.8.5-.8-.5.6-.4.4.8 1-1.5-1.3-.2-.2-1.7-1.5 1.4 1.1.4.1.2-1.1-.3.2 1-.3-.2-.2 3.5 1.9-.7-.6.8-.9-.2.8 1.4-.9-.5.2 3.3zm.1 0l-.1 3.5 3.6-1.5-3.5-2zm3.6 17.3l.3-.6.1.6 1.9-2-2.2-.6.4-.7-2.7-.2 1.2 1.7h-.2l1.2 1.8zm.1-2.3l.1.7h-.5l.4-.7zm-1.2-1.6l-.5-1.5 1.9-1-3.6-1.7.2 3.5.8-.4-.6.9 1.8.2zm1 7.5l-.6-1.9-1.2 1.7 1.8.2zm-1.2 2.3l1.4-1.5-2.1-.2.7 1.7zm2.2-2.9l1.7.6-.2-2-1.5 1.4zm-.6 2.2l1.6.6-.2-1.9-1.4 1.3zm5.7-11.1l.6.9.9-1.6-1.2-.1-.2-.2-.1.2h-.4l.3-.3-1-.4.1 1.2.3-.2-.3 1 .8-.3.2-.2zm-2.7 5.8l.4-.8-1-.1.6.9zm1.9-16.4l-.2.5-.1-.1-.3.9 1-.3-.2-.2.5-.1-.7-.7zm1 2.5l-.3.9.9-.3-.6-.6zm1.4 6.6l.7.2-.1-.8-.6.6zm4.3-24.1l-.8 1.1h1.4l-.6-1.1zm-4.3 5.7l-1.1-.4.4 1.1.7-.7zm15.1-59.1l-1.7.5 1 1.1-.3 1.9 1.7-.6-1.3-1.4.6-1.5zm-5.9-.5l1.7-.5-.8-.9 1.5.4-.4 1.9 1-.3-.1.2 1-.3-.8-.9-.5-.6.4.1-1.6-3.7-2.1 2.8.9.2-.2 1.6z"/><path d="M171.3 151.3l.5 2.1 1.4-1.2-1.9-.9zm2-3.9l-.3 1.5-.3.1.2.2-.1.2.2-.1.5.4.2-.8 1-.5-1.4-1zm8.2-7.7l.7-1.6-1.7.4 1 1.2zm-7.2 6.6l-1.2.2.7.8.5-1zm2.6-4.5l1 .2-.5-1-.5.8zm3.4 7.7l-.8-.3v1l.8-.7zm4.6.5l.8-.7-1.1-.5.3 1.2zm-5.5-4.4l.7.5.2-1-.9.5zm8-2h1l-.6-.8-.4.8zm-.7 12.6l.5-.9-1.2-.1.7 1zm-6.1-2.5l-.7.8.9.2-.2-1zm5.8-4.4l.9-.4-.9-.4v.8zm-11 3.1l-.2-.5-.7.8-.6-.1.7 1.5.6-.8 1.4.4-.4-2.2-.8.9zm4.8-1.6l.9-.4-.9-.5v.9zm-4.5-5.7l1.3-.4-1.2-.8-.1 1.2zm3.9 8.7l-1 1.1 1.5.1-.5-1.2z"/><path d="M172.8 158.7l.2 1.3.9-.6-1.1-.7zm4.3-11.4l-1 .7 1.2.4-.2-1.1zm-6.3 2.7v.6l-.1.4.8-.3-.2-.1 1.2-.7-1.6-.9-.1 1zm-.1-6.2l1.3.8.1-.8 1.1.2-1.2 2 2.4.2-.9-2.5-.1.1-.4-.8.3-.6 1-.4-.1 2.7 1.7-.8h-.1l.8.5.5.3v-.1l.3.1-.1-1-.1.1.1-.9-1 .6-1.9-1.7.1-.1-1.4-1.3 2.2.4-.1.9 1.7-.7-1.1-1 .6-1.3-1.6.4-.9-1.7-1.9 2.9 1 .2-.1 1.9h-.2l-1-1.8-1.8 3 1.2.2h-.4zm4.7-4v.3l-.4-.8.4.5zm-3 7.1l-1.5 1 1.4.7.1-1.7zm-3.5.8l.9.5.1.1-.7.4.7.5.1-.7.4.4.2-.9-.4.1.1-.9 1.2.1-.9-1.5 1.2-.9-1.8-1 .2 1.3-.8-1.3-1.6 3.1 2 .2-.9.5zm14.8-4.1l-1.1-.5.3 1.2.8-.7zm-1.9-2.2l1 .1-.3-.8-.7.7zm3.2 4.1l-.9.4.7.5.2-.9zm-7 2.8l-.4.4-.1-.2-.6.7h1l-.1-.2h.5l-.3-.7zm3.1-1l-.6-1.4-1.1 1.2 1.7.2zm-3.6 4.6h1l-.3-.8-.7.8zm5-2.7l1.4.3-.4-1.2-1 .9zm-5.4 3.2l.1 1.1.8-.5-.9-.6zm1.1-8.1l.4-1.1-1.1.3.7.8zm1.2-11.4l1.7-.5-.5-.5 1.4.4-.3 1.7 1.7-.5-1.1-1.3 2.2-.7-.3-.4.7-.2-1.3-1.5-.2.8-.6-.7.3-.4.5-.2-.1-.1 1.2.4-1.3-3.8-2.4 2.6.9.3-.2 1.2.6-.2.1.3.1-.1-.1.6-.2-.2-.3 2-.1-.1-.7-2 .6-1-.9.1-.2-.5-2.3 2.6 1 .3.1 1.6zm3-.9v.1l-.1-.1h.1z"/><path d="M179.3 135.7l-.8-.9-.4 2.1 1.7-.6-.4-.4 1.5-.5-1.3-1.5-.3-.7.9.9.7-1.6-1.6.5-.9-2-2.1 2.8 3.3.8-.3 1.1zm-.1 4.7l-1.2.3.7.8.5-1.1zm3-5.2l-.5.7 1 .2-.5-.9zm2.1 9l.8-.7-.9-.3.1 1zm5.6-.3l.8-.7-1.1-.5.3 1.2zm-5-3.5l.2-1-.9.5.7.5zm7.1-2.9l1-.1-.7-.8-.3.9zm-4.4.9l.7-.7-1.1-.4.4 1.1zm-1.1-1.9l-.2-.4.5-.5-1-.2.2.5-.1.1-.1-.6-.3.2-.6-.6.5-1.1-.9.2.3-.8-1.7.6 1.1 1.1.4.5-.2 1.5 1-.3.5.2v-.2l.6-.2zm3.6 2.9l-.9.5.7.5.2-1zm4.1-19.2l.8 1.3.9-1.4-1.7.1zm0-4.5l.8 1.3.9-1.3 1.3.8-.2-1.2.8-1.1-1 .1-.3-1.7-2.7 2 1.9 1.1h-1.5z"/><path d="M194.5 119l1-1.5-1.8.1.8 1.4zm-1.9 4.7l1.8-.3-1.1-1.7-.7 2zm1.2-8.9l-1.9 1.5 2.5 1.2-.6-2.7zm2.1 3.3l1.8-.2-1-1.8-.8 2zm-11.3 14.1l1.7-.5-1.3-1.5-.4 2zm2.2-4.2l2.1-.2-1-1.5-1.1 1.7zm-2.1 1.6l2.1-.2-1-1.5-1.1 1.7zm13.7-11.4l.9-1.5-1.8.1.9 1.4zm-12.3 12.4l.8-.9h-1.3l.5.9zm4.2-4.8l.9.4-.3-1-.6.6zm1.1 7.6l-.2 1 .9-.5-.7-.5zm5-9.3l.4-1.2-1 .2.6 1zm2.1 5.1l1 .1-.4-.8-.6.7zm-7-2l-.9-.4.2 1 .7-.6zM206 113l.4-1.2-1 .2.6 1zm2.1 5.2h1.1l-.4-.8-.7.8z"/><path d="M200.3 115.8l.2 1 .7-.6-.9-.4zm-4.1 12.2l.3-1-.9.2.6.8zm1.9 4.2h.9l-.3-.7-.6.7zm-6.7-1.8l.2.8.6-.5-.8-.3zm-4.3 1.3l-2 .9 1.5 1.2.5-2.1zm5.4 1.3h1l-.7-.8-.3.8zm-2.2 2.8l1.1.6v-1.1l-1.1.5zm-5.4 1.4l-.2 1 .9-.2-.7-.8zm2.5-7.4l.4.7.6-.8-1 .1zm1.1 12.8l.2-1-1.2.3 1 .7zm-6 .4l-.5-.8-.4.9.9-.1zm1.3-17.6l.9 1.1-.6-.2.4 1 .6-.7-.2-.1.6-1.3 1.1.4-1.2.3 1 1.2.6-1.3.3.1-.8-2.3 1.6-.3.1.2-1.2.9 2.2 1v-2.7l-.7.5.5-.8.8.4-.3.8h-.2l.1.2-.1.2h.2l.7.9.5-1.1.6-.1.1.1v-.1h.2l-.2-.3.1-.6-.3.2-1.1-1.6-.3 1-.7-3.2 1.1.5-.5 1.6 1.2-.2-.2.4 1.8-.3-.5-.8.2.1-.2-1.3.4.6 1-1.5-1.4.1-.3-1.9-3 2.5.3.1-2.5 2.2 2 .9-1.1.1-.5-.8-.5.6h-.7l-2.2 2.5 1.4.5-1.1.3zm7.6-5l-.4-.5.5.2-.1.3zm7.3-.2l-.8.6 1 .3-.2-.9zm-7.4 9.4l-.5.2v-.2l-.8.4.9.5v-.3l.5.3-.1-.9zm-1-1.6l.1-1.5-1.6.6 1.5.9zm2.6-3.3l-1.1.4 1 .6.1-1zm-2.4 8.5v-.9l-.9.4.9.5zm19.4-8.8l.8-.7-1.1-.5.3 1.2zm-5-3.5l.2-1-.9.5.7.5zm7.1-3l1-.1-.7-.8-.3.9zm-1.9 2.4l-.9.5.7.5.2-1zm-5.6 8.2l.8-.7-1.1-.4.3 1.1zm-5-3.5l.2-1-.9.5.7.5zm7.1-3l1-.1-.7-.8-.3.9zm-1.9 2l-.9.5.7.5.2-1zm1-13.1l.8-.9-1.2-.1.4 1zm5.2-5.2l-.7.5.6.3.1 1 .8-.5-.5-.3-.3-1zm-.4 9.3l.9-.4-.7-.5-.2.9zm6.4-10.4l.5-1.1-1 .1.5 1zm1.3 5.4l1.1.2-.3-.9-.8.7zm5.8-6.8l.5-1.1-1 .1.5 1zm2.1 4.5l-.7.6 1 .2-.3-.8zm-7.8-1.6l.7-.5-.8-.5.1 1zm-2 2.5l.4-1-.9.1.5.9zm1.2 4.5l.9.1-.2-.7-.7.6zm-5.6-2.3l-.7-.5.1.9.6-.4zm.4 2l-.4.8 1 .1-.6-.9zm-2 3.5l1.1.6v-1.1l-1.1.5zm-5.6 2.4l.9-.3-.6-.8-.3 1.1zm2.7-8.4l.4.8.6-.8h-1zm3.2 2.5l-.9.4.9.5v-.9zm-7.1-.2l-1.2 1.4 1.9.1-.7-1.5zm-3.3 1.1l-1.2 1.4-.7-1.1-.7 2 1.8-.3-.4-.5 1.8.1-.6-1.6zm1.8 5.8l.1-1-1 .3.9.7z"/><path d="M196 119.2l-.3.9.8-.1-.5-.8zm3.6-5.5l.6-.6-.5-.1.5-.4-.8-.4.2.8h-.3l.3.7zm2.4-.6l.9-1.1h-1.5l.6 1.1zm-3-2l.6 1 .9-1.3-1.5.1v-.5l-2.7 1.8 2.8 2.1-.1-3.2z"/><path d="M202 111.6l.9.5.2-1.6.1.2.7-1.2-1.1.1-.5-1.2 2.2 1.3-.2-2.1.5.3-.3.7 1.2-.1h.1l-.1.3.5-.1.2.1v-.1l.6-.1-.7-1.1v.1l-.1-.8.2.2.2.4.1-.1.5.4h-.2l.6 1.1.9-1.1h-1v-.8l1.3.8.2-1.5.2.4.7-.8.4.4.4-3.2-2.6 1 .3.3-.8 1.3 1 .1-1.3.7.1-1.8-2.5 1.2.6.5-.7.5h-.5l.1.2-.3.2-.1-.8-2.3 1.6.4.2-.6 1-.1-1-2.2 1.7 2.7 1.5.1.2zm7.6-6h-.6l-.4-.9 1 .9zm-7 4.3l.2.3-1 .6-.1-.9h.9z"/><path d="M214.1 102.5l-.8-.1.2-.6-2.3.6 1 1.3-.3.6-.6-1.4-.8 1.5h1.3l-.1.3h1.2l-.1-.3.4-1.4.1.3.8-.8zm-6.2 7.2l1.9.1-.7-1.5-1.2 1.4zm11.4-9.1l-1.9.1 1.3 1.4.6-1.5zm2.4 1.4l.5-1.5-1.8.1 1.3 1.4z"/><path d="M217.7 103.3l.3-1.6-1.3.5 1 1.1zm-2.9 2l.3-1.6-1.3.4 1 1.2zm4.6-3.4l1.5.1-.9-1.4-.6 1.3zm-5.7 1.3l1.5.1-.9-1.4-.6 1.3zm8.8-2.2l.5 1.1.9-1-1.4-.1zm-8 .2l1.3 2.2 1-2.5-2.3.3z"/></g><g xmlns="http://www.w3.org/2000/svg" fill="#33100c"><path d="M272.8 159.4l.4-1.7-1.5.3 1.1 1.4zm-1.9-2.3l1.9-.9-1.4-1.2-.5 2.1zm-6.1-14.7l-1.1 1.8 2.1-.3-1-1.5zm5.4 10l-1.1-1.5-1 1.9 2.1-.4zm4.8 17l-1 .3.9.9.1-1.2zm6.6 1.7l-.2-.7.5-.6-1-.3.3.7-.5.7.9.2zm6.4 5.6l-.1-1-1 .7 1.1.3zm-6.2-1.8l-.9-.1.4 1 .5-.9zm3.3 7l-.4.8 1-.1-.6-.7zm-1.5-8.4l-.7 1 1.2-.1-.5-.9zm-6.7-14.8l-.9-.5.1 1 .8-.5zm9.2 13.4l-.8.3.7.7.1-1zm-14.4-19l-.9.1.6.8.3-.9zm-6.8-4.1l.7 3.4.9-.8-.7 1.4 2-.4-.5-.6.4.3v-1.7l.8-.7.4-.2-1.4-1.2-.2 1-1.5-.3 1.3-.7-1-.8 1.7-1.6-2.3-.4-.1-1.3-1.4.7.7.5-.7-.1.8 3.4.7-.6-.2.9-.4-.2zm3.4 15l1.7-1.4 2.2-.7-1.1-1.2.3-.1-.3-.3.9-.5.4.8.2 1.9 1.6-.9-1.3-.9.4-.7 1.6-.6-1.3-1.3-.4 1.5-1.1-.1-1.2-1-.2 1.1-.4-.4-.3.8-.8-.6 1.5-1.3-3.7-.8 1.4-1.8-1.3-.4.7-1.9.8 1.3.8-1.2-1.6-.2v-.1l-2.4.1 1.1 1.9-.5-.1.6 2.7.2-.3.7 3.3.8 3.4zm2.1-3.1l-.1.3-.4-.1.5-.2zm-.8.1l-.8-.2 1.1-.6-.3.8zm-1.1-1l-.1.8-.7-.1.8-.7zm5.7 3.7l1.3-.1-.8-.9-.5 1zm5.6 4.3l.2-1.1-.9.5.7.6zm.7-8.8l-.9-.4.2 1 .7-.6zm6.1 10.1l1-.6-.9-.6-.1 1.2zm-4.3 2.9l-.7.6.9.4-.2-1zm7.9 2.8l.6-.8-1 .1.4.7zm-15.8-10.3l-1.6 1.1 1.8.9-.4.4.7.1.8.4v-.3l.5.1-.5-1.7-1 1-.3-2zm2.5-2.7l-1-.2.2.9.8-.7zm7.4 7.9l.8-.7-1.1-.5.3 1.2zm-2.1-7l-.6.8h1l-.4-.8zm-10.4 1.3l1.6.6-.1-1.5-1.5.9zm-2.3-7.8l.1-.9-1 .3.9.6zm7.4 24.5l-.2-.5 1.2.7-.1-.9.8-.2-.8-.6v.1l-.1-.6-1.2.8-.2-.6-1.4 1.6 2 .2zm10.1-16.6l-1.1.5 1.1.5v-1zm-6.5-.7l.6-.8-.9-.2.3 1zm2.6 7.4h1l-.6-.8-.4.8zm-1.9-3.7l.1-1-1.1.5 1 .5z"/><path d="M283.5 167.2l.6-.8-.8-.2.2 1zm-4.1-3.6l-1.4-1.1v1.7l1.4-.6zm-3.8 11.9l2 .3-.5-1.7-1.5 1.4zm3.7-2l.6 1.1.5-1.1h-1.1zm6.6 4v-1l-.8.6.8.4zm3.7-14l-.7.9h1.2l-.5-.9zm-5.9 1.1l-.9.2.6.8.3-1zm5.2 5.7l-.1.8.9-.4-.8-.4zm-3.3-.4l-.3.9 1-.2-.7-.7zm-7.3.4l-.8.1.6.8.2-.7.1.4.9-.6-1.1-.6.1.6zm-.9-5.7l-.2-.9-.7.7.9.2zm9.9 9.8l-1.4-.2.7 1.2.7-1zm-5-6l-.5 1 1.1-.3-.6-.7zm-11.1.3l1.7-.6-.8-.5 1-.8-1.9-.9.3 1.3-.3 1.5zm2.1 6.4l1.9-.5-1.1-1.4-.8 1.9zm2.7-1.4l.3-1.7-1.5.4 1.2 1.3zm.1 2.8l-1.2-1.5-.2.8h-.1v.2l-.2.9 1.7-.4zm3.3-.9l.7-.7-1.1-.3.4 1zm-2.5-6.2l-.5.8.9-.1h.9l-.4-.9-.5.9-.4-.7zm8 8.7l.8-.6-1-.4.2 1zm-1.8-6.4l-.6.8h.9l-.3-.8zm-3.8 7.4l.3-.9-.5.1v-.2l.6.1.6.4v-1.1l-.8.4-.4-.6-.6.9h.5l-.6.3.8.5.1.1zm-5.7-1.6v-.6l.3.3.1-.9-.8.2.2.2-.8.3 1 .5zm-1.2.7l.3-.9h-.6l2.2-2-3.3-.4 1.2-1.1.5.5.1-1.1.9-.8-.6-.1.6-.6.9-.4.9.6-.1-1.7-.8.4-.8-.7-.5 1.6-1-.3v-.3l1-.3-1.5-.9v.3l-2.2-.9 1.2-.8-1.8-.9 2.9-2.5-1.1-.2 1.1-.6-1.8-1.2.1 1.7-2.2-.5.7 3.4.3 1.5v.1l.1.3.7 2.6 1.1-.9.1.1.4 1.1-1.7-.2.9 3.2.1-.1.5 2.4.1.5.1-.1.1.1h-.1l.5 3.4 3.2-2.5-2.7-.8zm-.6-7.6h-.1l.1-.1v.1z"/><path d="M283.6 182.1l-1 .3.6.7.4-1zm.9-7.1l.8-.4-.9-.6.1 1zm-9 2.1l-1.4 1.3 2.1.8-.7-2.1zm-1.9-9.9l-1.2 1.5 2.2.4-1-1.9zm13.9 12.1l-.8.7 1 .2-.2-.9zm-5.1 6.5h-.9l.5.9.4-.9zm-4.6 2.2l-.4.5 1.8.2-.6-1-.3-1.8-2.3 1.6-2.7-.6.6 3.6 3.1-2.6.8.1zm-3-2.8v.2l-.7.4 1.5.9-.1-1.1.9-.5-1-.4.1-.1-2.5-1.3 1.2-.8-1.9-.9.5 2 .1-.1.5 2.7 1.4-1z"/><path d="M276.8 184.4l-.3 2.1 1.8-1.1-1.5-1zm-1.2-.1l1.6-1.3-1.2-.6-.8-.5.7-.5-1.9-1 .4 2-.1.6 1.2-.5.1 1.8zm10.9-.5l-1.5 1 1.8 1-.3-2zm-6.5.3l-.6 1.4 1.8-.1-1.2-1.3zm3.3 0l.7.8.8-2.1-2.1.7.6.6h-.1.1zm-4.7-1.7h0l.3-.3-.2-.1v-.5l-.9.4.3.2.1.7.4-.4zm1.2-.2l1-.3-.4-.5.5.3-.3-2.2-1.6 1 1.1.7-.3 1zm-4.5 2.4v-.9l-.7.4.7.5zm7.1 2.4l1.6-.4-1-1.3-.7 1.5-.2-.3-.5.7-.3-.1.1.4-.1.1h-.2l.2-.2-.8-.2.7-1.1-1.7.1.4.8-.3-.1.4 1.8-.2-.1v.2l-1.6.3.9 1.3.7-1.3-.1 2.4.3-.2.4 1 1.1-1.2-1.1-.1.9-.7v.1l.4-.2.2.2.2-.4h.1l.4-.9.3 2 2.8-1.5-2.5-1.4-.8-1.2zm-1.5.9l.1.2h.1l.7 1-.5.1-.3-.5-.3.4-.6-.3.8-.9zm1.1 1.2l.3-.5.1.4-.4.1zm-4.7-.2l-1.7.2.8 1.3.9-1.5z"/><path d="M277 190.4l-3-.1.9 3.3 2-2.5-.1 2.6 3.1-1.1-2.9-2.8v.6zm2.9-6.9l.8-.8-.9-.3.1 1.1zm3.8 3.7l.5.6.1-.3.6.5v-.9l-.6.2.2-.4-.8.3zm.1-12l-.3 1.1 1-.4-.7-.7zm1.5 6l.2.8.7-.6-.9-.2zm-.9 4.8l.3 1 .8-.9-1.1-.1zm1.5-6.7l-1 .4.9.5.1-.9zm1.7-1.5l.7-.7-.8-.3.1 1zm2.7 7.8l-.5-.9-.2.3-1.1-1.4-.1.6-.7-.7-.6 2 1.1-.4v.2h.1l.1 1.2.9-.5-1-.7 1.4-.3-.3.4.9.2zm3.6-5.5l.1-.7-.5.2-.2-.3 1.6-.6-1.1-1.2-.5 1.6-.2-.2-.9 1.6h2.1l-.4-.4z"/><path d="M292 178.6l-1.7.4.9 1.2.8-1.6zm1.7 2.6l-1.1.4-.7-.3.1.5-.6-.2-1.7-1.2-.3 1.8 1.5-.5.1 1.1-.8-.6v1.7l.2-.1-.1 2.5-1.2-.7-.2 1.9-3.5-1.6.5 2.5-.7.1.5 1.06.4-.26.1.05 2.6-1.55 1.7-1.1-.1-.1.6-.4h.3l-.1-.1 1.4-1 2.6-2.1-2.1-.9.6-.9zm-2.5 2.3l.1.4-.4-.2.3-.2zm.2.5l.2-.2.3.2.1-.6.5-.5.6 2-1.7-.9zm-1.5-7.6l.5-.9-1-.1.5 1zm-2.6 4.9l.9-.1-.5-.5.1-.4-.9.1.4.6v.3zm7.1-2.2l.7.5v-.3l.8.3-.2-.9-.5.4.1-.5-.9.5zm-.9-8.4l-.9-.4v1.1l.9-.7zm-4.5 3.7l-.6.6.9.2-.3-.8zm7.4 1.8l.4-.8-.9.1.5.7zm.6 4.4l.5-1.5-1.5.5 1 1zm-1.3 2.12l1.9-1.52-2.9-.7 1 2.22z"/><path d="M299.1 178.3l.1-1.6.7 2.3 2.5-2.2-1.7-.7.2-.5-.8.3-1.4-.6.4 1.3-.8.6-.9-.5.2 1.7-.37 2.9 2.4-2-1.83-1 .5-.3.8.3zm8.1-8.8l.57 1 1.03-.5-1.6-.5zm-.55 2.74l-1.45-.24-.4 1.2-1.1.4.4.4-1-.2.2.9-1.9-.5 1.1 2.5.33-.57.23-.42 1.34-1.02.4-.5.1-.5 1.75-1.46zm-10.35-.64l-1-.1.5 1 .5-.9zm-2.1 5.7l-.6-.6-.3.8.9-.2zm6.2-2.2l.7.5.1-.8h.3l-1.3-1.6-.8 1.6 1.6-.1-.6.4zm.3-8.7l-1 .2.7.9.3-1.1zm-1.2 5.6l-.1.8.9-.4-.8-.4zm6.7-4.1l-.6.6.8.3-.2-.9zm-3.4 5.1l-.7.5.9.4-.2-.9z"/></g><g xmlns="http://www.w3.org/2000/svg" fill="#542218"><path d="M232.2 151.7l.3-2.1-1.8 1.1 1.5 1zm2.2-2.6l.2-1.8-2 .8 1.8 1zm-11.6 9l-1.6 1.3 2 .4-.4-1.7zm12.1-16.6l1.2 1.4-.8 1.5 2.7-.5-.1-.2 1.1-.1-.7-1.4-.7 1-.8-1.1.2-.4 1.7.5-.2-.6h.4l-.4-.8 1.1-1.1-1.5-.4.2 1.1-.1-.1-.1.2-.6-1.8-2.5 2.4 1.4.4h-1.5z"/><path d="M236.6 148l1.4-1-1.4-.7v1.7zm2.6-6.3l1.6-.6-1.2-1-.4 1.6zm-1.1 2.9l-.1.2-.6-.3v1.2l.4-.4-.2.9 1.6-.6-1.1-1zm2.1-3.1l.3 1.7 1.2-1.3-1.5-.4zm1.6 9.3l.5-.9-1 .2.5.7zm-4.8 9.8l-1.2.4 1 .6.2-1zm-5.6-2.1l-.8-.3.1 1 .7-.7zm1.4 7.4l-.5.7 1 .2-.5-.9zm1.9-7.9l.5-.7-1-.1.5.8zm-8.3-1l-.4 1 .9-.3-.5-.7zm9.3-11.7l-2.6 1 2.3 1.3.3-2.3zm3.1 5.5l.8.8.4-.9-1.2.1zm-5.5 2.7l.1-1-.9.5.8.5zm8-4.4l-.1 1 .9-.5-.8-.5zm-17.6 23.6l-.8-.3.1 1 .7-.7zm-30.4 29.5l.9-.4-.7-.5-.2.9z"/><path d="M236 147.3l-.4.9 1-.3-.6-.6zm4.9-8.9l-.3-.6.7-.6-1.1-.5-.2-.4 2.8.4-1.1-1.8 1-.5-1-.7 1.8.1-1.1-1.5-.9 1.4h.1l-.2.9-.1-.3-1.5 2h.1l-2.3 2.3 3.6 1-1 .4 1.7 1 .1-.6h.1l-.1-.1.1-1-.7.3-.2-.5 1.5.3-.9-1.7-.9.7zm2.2-8.2l-.6 1.6 2-.3-1.4-1.3zm.7-1.6l-.5 1.2 1.5-.2-1-1zm1 2.6l.6-1.2-1.3-.1.7 1.3zm-.6.7l-1.3-.1.7 1.3.6-1.2zm.9 2.7l-.4-1.2-1 1-.5-.4-.3 1.5 1.4-.7-.5-.4 1.3.2zm.2-7.2l-1.3-.1.7 1.3.6-1.2zM229 148.2l.6.6h-.3l1.2 1.7.9-1.6-1.5-.1.4-.9.8-.4.9.4.4.3.5-1.7-1 .2-.4-1.3 1.4.8.2-1.5 1.9.7-.6-2 1.1-.8-1.4-.7v.6l-.2-.7-2.7 2.2 1.5.5-1.3.5-.3-1-2.6 2.3 1.3.6-.1.4-1 .1-.4-.9-2.5 2.4 3.9 1.1-.7-1.8zm6.8 1.3l-.8 1.5h1.3l-1.1.4 1.8 1.1.2-1.8-.8.3-.6-1.5zm-6.3 4.3l1.7 1.2.4-1.8-2.1.6zm-9.2 11.8l.2-1.6-1.8.7 1.6.9zm7.6-9.1l-1 .1.7 1 .3-1.1zm-1.8 6.1l-.1.9 1-.4-.9-.5zm7.8-3l-.1-1-.7.7.8.3zm-2.8 8.7l-.3-1-.8.8 1.1.2zm-7.3-.6l.5.9.4-.9h-.9zm5.1 7l.9-.3-.8-.5-.1.8zm-4.6-18.2l.1 2.2 1.7-1.4-1.8-.8zm1.5 2.9l.1 2.1 1.6-1.4-1.7-.7zm3.5-3.1l1.6-1.3-1.7-.7.1 2zM215.8 168l.1 2 1.6-1.3-1.7-.7zm23.9-11.3l1 .1-.5-.9-.5.8zm-7.2-1.1l-.4 1.1 1-.1-.6-1zm1.5-5.6l-.4-.7-.6.7.7.2-.3.1.8.5.2-.9-.4.1zm-7.8 3.4v1l.7-.6-.7-.4zm17.3-11l.5-.8-1-.1.5.9zm-1.5-4.7l.8-.3-.5-.5-.3.8zm-.6 6.2l-.6.4.7.5-.1-.9zm3.3 0l.5.9.5-.8-1-.1zm-4.9 3.2l.8.5-.1-.9-.7.4zm-12.3 20.3l-.9.8 1 .4-.1-1.2zm4.1-4.5h-.3l-.1-1.2-.9.8.8.3h-.5l.5.8.5-.7zm-9.2.8l.9-.3-.6-.7-.3 1zm2.9-11.6l2.2 1.4.3-1.6.3.2.1-.4.9.4-.4.8-1.4 1.3 1.7.7-.1-1.5 1.2-.2-.1.2 1.7-.5-1-1.1-.5 1.4-.8-1.1v-1.6l-.9.5.1-.5-.8.3v-1.1l-1.3.8-.5-1.3-2.5 2.4 2.3.6-.5-.1zm1.5-1.1l-.2.1-.1-.1h.3zm-.1.2l.5.3-.3.1-.2-.4zm-.7 5.1l1.1-1-1.6-.6.5 1.6zm12.7-1.7l.7-.5-.8-.5.1 1zm-.5 5.3l.9-.8-1.3-.5.4 1.3zm-2.7-7.6l-.7.9 1.2-.1-.5-.8zm-19.1 13.3l-.2 1.1 1-.6-.8-.5z"/><path d="M216.3 175.5l1.1.4-.4-1.1-.7.7zm4.8-19l1.3 1.1.1-1 1.2.5-.2-2.1-1 .9v-.1l-1.4.7zm-1.7 6.5l1.6-.6-1.1-1-.5 1.6zm4.9-3l.8-.5-.8-.5v1zm-14.5 8.5l.7-.4h.1l.1-.1.9.8.4-1.1-.8.2.3-.7.6-.5.5-.1h.2v-.1l.4-.1-.3-.4 2 .2-.2-.7.7-.3 1 .5.2-1.8-1.7.7-.2-.2-.6-1.4 1.1-.5-.7-.7 3 .5-.4-.8 1.1 1-1.5.8 1.3 1 .3-1.7.2.2.6-1.7-2.1.4-1-1.9 1.6.4-.1.7.9-.5 1 .3-.2-.5.6.1 1.4 1.1.4-1.7-1.5.4-.3-1 .2-.1.8.6.1-1.7-.5.2-.3-2.6 1.3.6-.1-2 3.7.9-.2-.6 1.4.6-.2-2.1-1.3 1.3-1.1-2.7-2.4 2.5h.1l-1.5 1.3h.1l-1.9 2 1.5.5-.8 1.1-.8-1.7-2.3 2.5h.1l-1.9 2.1.5.1-.2.8-.4-.8-1.9 2 2.8.6-1.5 1.5-.1-.1.3-1.4-1.1.3-.4-.8-1.8 2.1 1.8.3v.3l-1.4.2-.4-.9-1.5 1.7 1.9.4-.6.6zm10-10.5l-.2-.2.4.1-.2.1zm-5.4 6.4l-.1.2-.1-.2h.2zm-2.1 1.1h0l-.1-.1.1.1zm-1.2 2.4l-.3.1-.4-.3-.4-.8 1.1 1z"/><path d="M214.4 166.4l1.2 1.1v.3l.8-.5-.6-.4.3-1.3-1.7.8zm-.7.4l-1.6.9 1.3 1 .3-1.9zm7.6-1.6l-.5 1h1l-.5-1zm1.4-4.8l.7.6.3-.8-1 .2zm-6.1 2.4l-.7-.4v.3l-.8-.3.2.9.5-.4v.5l.8-.6zm2.8 10.1h1l-.6-.9-.4.9zm2.4-6.2l-.9.3.7.5.2-.8zm-7.5 3.7l-1.1-1-.5 1.7 1.6-.7.7-.5-.7-.4v.9zm6.7-.7l-.5 1h1l-.5-1zm2.4-4.9l-.9.2.6.6.3-.8zm-11.4 4.3l-1.2-1-.2 1-.9-.6-.3 1.7 1.1-.6-.1.3 1.6-.8zm-.3 3l.3-1.7-2 .6 1.7 1.1zm-4.1 5.4l-.1.5.6-.3.8.3-.1-.7v-1.1l-1 .4.3.3-.5.3-.1-.1v.1l-.3.2-.7-.1-.3-.8.3-.2v.3l.4-.2.1.1.2-.3.9-.5-.4-.3.1-.2-.5-.1-.8-.5 1.2-1.3-1.7-.5.3 2 .1-.1v.3h-.3l.4.5v.4l-1.6-.4.3 1.6.8-.6-.3.5h-.2l.1.3-.5.7.7.1.3 1 .6-.9h.2l-.1-.2.5-.7.3.2zm-1.7 3.8l.4-1 .1.2.6-.7-.9-.3.2.6-1 .3.4.5-.7.4.6.3-.5.3 1.7.5-.3-1.5-.7.5v-.3l.1.2zm5.7-2.7l-.8-.6v.9l.8-.3zm-13.1 23.3l.9.3-.1-1.1-.8.8zm-2.9-4.5l-.5-.6-.4.8.9-.2zm15.2-16l-.8-.6v.2l-.3-.2.1.9.2-.1v.2l.8-.4zm26.3-17.5l.1-1-1.1.5 1 .5zm-6.5-1.9l.4-.5.2.3.2-1.1-1 .3.1.2-.3-.1.4.9zm2.4 7.3l1 .1-.6-.8-.4.7zm-8.5 7.6l.7-.7-.8-.2.1.9zm6.3-5.9l1.2.1-.4-1-.8.9zm-5.5 1l.3-.9-.9.1.6.8zm5.2 5.6l.9-.4-.9-.5v.9zm-12-4.8l-1.8-.5.3 2 1.5-1.5zM194.9 198l-.1 1-.7-.8-.7 1.6.9-.2-.1 1.5 1.8-1.1-.4-.2.9-.4-1.6-1.4zm-4.2 13.9l1.1-.5-1.1-.9v1.4zm-.3-2.1l1.8-1.1-1.6-1-.2 2.1zm24.2-38.2l.3 2 1.4-1.5-1.7-.5zm-22.9 27.7l-.4 2.5 2.3-1.2-1.9-1.3zm-1 7.4l1.8-1.1-1.6-1-.2 2.1zm1.7-1.6l.6-1.2-1.5.1.9 1.1zm1.1-6.7l-1.5.1.9 1.1.6-1.2zm8.4-20.2l1-.8-1.1-.4 1.6.2-1.1.9.5.2v.2l-.4.4h.4v.3l.3-.3h.2v-.1l.2-.2.4.2-.1-.4.1-.1-.1-.1-.1-.3.4.1v-.2l.9.1-.8-1.9-.6.9-.7-1.1 1-.6-1.2-.7-.1.9-.5-.8-1.6 2.2.9.1.5 1.3zm25.7-6.7l1 .2-.3-1.2-.7 1zm4-5l.4-.8h-1l.6.8zm-8.4-.1l-.3 1 .9-.4-.6-.6zm.5 8.1l.3-1.2-1.4.4 1.1.8zm-5.9-4.1l.3.2.3-1.2-1.4.4h.1l-.1 1.2.8-.6zm.2 9.3l1.1.3-.5-1-.6.7zm-5-4.7l-.6.7 1.1.3-.5-1zm7.8 1.8l1-.1-.7-.9-.3 1zm1.6-5.6l.1-.4.4-1.1-1.4.2.6.6-.4.2.7.5zm-6.3 3l-.7-.3.1.9.6-.6zm-6.4.9l.3 2 1.4-1.5-1.7-.5zm1.8-2.7l-1.7 1.2 2 .6-.3-1.8zm-3.1 1.6l1.4-1.5-1.7-.5.3 2zm6.9 2.9l-.1-.3-.1.1-.5-.6-.3 1 .6-.1-.3.5.9.1-.2-.7zm.8-6.2l-.9.4.8.4.1-.8zm-6.5 3.9l-.7-.3.1.9.6-.6zm12.1-.1h1l-.6-1-.4 1zm2.4-6.2l-.9.3.7.5.2-.8zm-7.5 2.9v.9l.7-.6-.7-.3zm-11.3 9.5l-.3-.6h.7l-.9-1.6-1.2 1.7h.1l-.5.6 2.1-.1zm10.7-4.8l.3-.8-1 .2.7.6zm-13.8 10.7l1.8.4-.3-1.6-1.5 1.2zm6.7-3.2l.9-.6-1-.3.1.9zm5.6 2.5l-.6 1 1.2-.1-.6-.9zm-5.7 2l-.8.3.7.7.1-1zm6 5.6l.9-.5-.9-.3v.8zm-5.5-13.5l.1.2.7-.7-1-.1.1.4-1.6-.2.1.3-.7-.3.6 1.9.5-.4.2.5 1-1.6zm-8.3 12.5l1.2-1.7-1.8-.2.6 1.9zm9.8-4.6l1 .1-.4-1.1-.6 1z"/><path d="M213.9 181.5l-.4-1.1-.6 1.1.9.1-.5.1.7.7.3-.8-.4-.1zm-8.2 2.1l-.1 1 .8-.5-.7-.5zm-4.5 4.8l-.9-.3.1 1.1.8-.8zm1.9 8.7l-.9-.1.4.8.4-.5-.2.4 1.1.1-.6-.9-.2.2zm-.7-12.3l1.4-1-1.4-.7v1.7zm-6.9 7.9l.7-.8 1.1.3-.1-1.2-.7.5-.1-1.4-1.4.9 1.4.5-.3.2-.7-.2-1.3-1.1 2.4-.5v.3l.6-.5h.1l.4-.3-.5-.3 1.9-.6-.4-.4.2-.2 1.1.3-.3-1.8-1.4 1.1-.4-.4.3-.1-1-1 .8-.7-.7-.4 2.5-.3-2.3-2.3h2.1l.1.7.7-.7h.9l-.2-.3.8-.1 1.7.7-.1-1.8-1.4.8-.5-.9.2-.1.9.4-.4-1.7-.6.4-1.1-2.8-1.5 2.7-.1-.1-1.5 3-1.3 2.5-.9 2.6 2.8-.5-.8 2-.3-.1h.1l-.3-1.4-1 .8-.7-.6-.8 2.6-.7 2.2 2-.4v.5zm6-12.9h0zm-.8 0l-.5 1.3-1.2-1.4 1.7.1zm-3.9 5.3v.6l-.6-.5.6-.1zm-.2 3.8v.3l-.5-.4.5.1zm2.3 2.5l-.4-1.9-1.2 1.5 1.6.4zm2.2-6.6l.3.1.1-1.8-1.9.9 1.3.7-1.2 1.2 1.5.6-.1-1.7zm3.7 1.5l-.2 1 .9-.2-.7-.8zm.4 6.9l-.1 1 .9-.3-.8-.7zm.6-5.5l-.8.5.8.3v-.8zm-6.5 4.7l.2.8-1.3-.7v.9l-1.5 1.3 2 .4-.2-1.1 1.1-.9.5-.7h-.8zm7.2-.7l-.7-.8-.2 1 .9-.2zm.3-6.3l-.8.4.8.4v-.8zm-6.8 4.1v-1.3l-1.4 1.2 1.5.7.1.3.6-.7-.8-.2zm-1.3-3.4l.4-.6.1.5.6-.7-.7-.2v.3l-.8-.1.4.8zm-4.1 10.9l-1.8-1.4 1.9-.4.3 1.3 1-1.4-.4-.1.7-.1-3-2.4-.9 3.2h.1l-.5 2 2.6-.7zm3.2-4.6l-1.5-.4.2.9-1.1-.2.4 1.7.7-1 .1.3 1.2-1.3zm4.2 2l-1.8-.1.9 1.9.9-1.8zm-4.5 4.4l1-1.8-1.8-.1.8 1.9zm15.1-8.1h1l-.5-1.1-.5 1.1zm2.7-6.7l-1 .3.8.6.2-.9zm-8.3 4l.8-.6-.8-.4v1zm1.5 6.2l1.2.5v-1.2l-1.2.7zm-6.4-2.2l.2 1.1.7-.9-.9-.2zm3.4 9.1h1.1l-.7-.9-.4.9zm2-3.5l.9-.4-.9-.7v1.1zm.1-5.7v-.4l.1-1.1-1.3.6.7.4-.4.3.9.2zm-6.1 4.5l.3.9.5-.8-.8-.1zm6.2-1.2l.9-.3-.8-.8-.1 1.1zm.7-6.6l-.8.5.8.3v-.8zm-6.2 5.6l.5-.7-.8-.2.3.9zm-10.4 7.8l-.7 1.6 1.7-.4-1-1.2zm23.2-23.9l-.7.7.8.3-.1-1zm-9.7 6.6l.2-1.1-.3.2.3-.8-1 .3.5.6-.4.2.7.6zm-7.9 22.6l.9.2-.2-1.1-.7.9zm3.7-4.5l.4-.7h-.9l.5.7zm-7.9.7l.8-.3-.6-.5-.2.8zm10.6-28.9l.7.1-.5.3.9.2-.1-.8-.2.2-.2-.5.6.1-.9-1.6-1 1.3 1.1.2-.4.5zm4.1-1.7l-1.7-2.7 1.9.4-.2 1.3 1.5-.9-.2-.1.5.1-1.7-3.4-2.2 2.5h.1l-1.8 2.4 3.8.4z"/></g><g xmlns="http://www.w3.org/2000/svg" fill="#a05a3c"><path d="M178.6 232.3l.5-.6.5.8 1.3-1.8-2.3.2.4.6-.8-.2.4 1zm2.4 4.2l.1-.7-.6.3.5.4zm-9.7 2.3h.7l-.4-.7-.3.7zm7.4-3.6v-.7l-.6.3.6.4zm1.3 2.5l-.8.2.5.5.3-.7zm2.2 3.8l-.9.9 1.3.2-.4-1.1zm-4.6-5.5l.4 1 .6-.7-1-.3zm-2 3l-.9.7.9.4V239z"/><path d="M179.2 235.8l-.2 1.2 1.2-.6-1-.6zm-2.1 2.7v-.9l-1 .4 1 .5zm-5.9-6l-.4-1-.6.9 1 .1zm10.5 7.9l-.8.8 1.2.2-.4-1zm-4.1-7.7l.9.4v-.5l.7.3v-1l-.8.5v-.4l-.8.7zm3.6 6.6l.3-.9-1.1.1.8.8zm-5.7-7.8l-.1.2-.4.7h1l-.2-.6.6.3v-.6l.8 1.4.9-2.2-2.1.1.2.3-.7.4zm5.9 6.5l-.2-1.1-1.1.7 1.3.4zm-7.8-.1l1 .1-.3-1-.7.9zm-2.2-5.2l.8-1.2-1.4-.5.1-.1h-2.8l1.2 2.2 1.4-2 .7 1.6zm4.2-1.7l-1.4-.5.5 1.7.9-1.2zm5.4.6l.1-.7-.6.3.5.4zm-9.9 1.9l-.4.7h.8l-.4-.7zm-1 0l.5-.5-.7-.1.2.6zm-1.2 1.4l.5-.5-.7-.1.2.6zm10.1-.9l.3-.7-.7.2-2.3-.8.3 2.2 2-1.1.4.2z"/><path d="M167.3 232.5l.6-.6-.9-.1.3.7zm8.3.8l-.5.4.6.3-.1-.7zm-.8 1.1l.7-.3-.5-.4-.2.7zm4.5 6.1l1.4-.1-.7-.9-.7 1zm-3.5 1.5l.5-.6-.8-.2.3.8zm-1.5-6.3l-.9.6.9.4v-1zm-.9-2.9l.1.1v-.1l.8.3v-1l-.8.5.4-1.8-2.1.1 1.6 1.9zm6 2.7l.5-.3 1.1.4-.1-1.1-.5.3-.2-.1.3-.8-1.1.1.7.6-.5-.3-.2 1.2zm-.4 6.3l.3-.9-1.1.1.8.8zm-6.9-7.2l1 .1-.4-1-.6.9zm-4.9-2.9l1 .1-.4-1-.6.9zm10.5 8.6v-1l-.9.7.9.3zm3.2-6.7l.1-1.4-.3.1-.3-.9-.7.9.7.1-.9.4 1.4.8zm-14.8-1.6l.7-1h-1.3l.6 1zm6.8 2.1l1 .1-.4-1-.6.9zm140.8-87.2l-1 .4 1 .5v-.9zm4.5-1.1l.4-.6-.6-.1.2.7zm-5.3-8.7l-.2.8.7-.3-.5-.5zm3.1 7.6l-.7-.1.2.6.5-.5zm2.6-1.1l.3-.8h-.7l.4.8zm3-4.6l.6 1.1.7-.9-1.3-.2zm-2.9 6.1l.7-.9-1.3-.2.6 1.1zm1.9-3.1l-1.1.3.9.7.2-1 .2.3.7-.9-1.3-.2.4.8zm-3.9.8l-1 .4 1 .5v-.9z"/><path d="M317 138.9l-.9-.3.2 1.1.7-.8zm.9 5.9l-.4-1.3-.7 1 1.1.3zm-.9-3.6l-1-.3.4 1 .6-.7zm-9.1-.2l-.2 1.1 1-.5-.8-.6zm13.7.1l.6-.8-1.2-.2.6 1zm-8.1 4.7l.2 1.1.2-.3.2.9.7-.8-.8-.2.3-.4-.8-.3zm6-1.8l.7-.9-1.3-.3.6 1.2zm-5.5-4.8l-.1 1.1.9-.5-.8-.6zm.3 10.9l.2-2.2-1.8.5 1.6 1.7zm-5.6-6.8l.2-1.4-1.5.9.3-2.5-2.4.8 2 1.9v-.2l1.4.5zm2.3.9l-1.5.9 1.3.6.2-1.5zm3.9 5.2l.4-.6-.6-.1.2.7zm-5.5-9.4l-.3.8.8-.2-.5-.6zm-.9.2l-.5.3.6.4-.1-.7zm0-2l-.5.3.6.4-.1-.7zm3.8 7.6l.3-.2-.9-.5v.4l-.7-.2.2.8-.4.1 1.5 1.5.8-2.2-.8.3zm-.6.1v.1l-.2.1.2-.2z"/><path d="M315.4 145.8h-.5l-.7-2.2-1.7 1.4 2.2.9.4.6.3-.7zm-9.7-6.9l-.7.3.7.5v-.8zm7.3 4.7l-.7-.2.1.6.6-.4zm-.4-1l-.3.6h.6l-.3-.6zm7-1.4l1.1-.4-1.1-.8v1.2zm-1.2-3.5l-.8.3.8.4v-.7zm-5.4 3.7l.7-.8-.9-.3.2 1.1zm-2.5 2.9l.7-.8-.8-.3v-.1h-.1l-2.4.3 1.5 1.4.9-1.6.2 1.1zm6.3.6l-.7 1 .6.1h-.9l.7.8.4-.8.2.1.2.5.8-.8-1.1-.4-.2-.5zm3.1-6.2l-1.1.3.9.7.2-1zm-9.3 2l-.2 1.1.9-.5-.7-.6zm-5.5-1.2l-.2 1.1.9-.5-.7-.6z"/><path d="M318 141l.7-.8-.9-.3.2 1.1zm-2.6 6.8l-.6-.4-.1 1.1.8-.4.1.3.9-1.1-1.5-.4.4.9zm-11-8l.1-1.2-1.1.4 1 .8zm6.4 2.8l.9-.5-.8-.6-.1 1.1z"/></g><g xmlns="http://www.w3.org/2000/svg" fill="#cc7a5e"><path d="M174.4 263h0l-1.4-7.1c0-.2.1-.5.3-.5s.5.1.5.3l1.4 7c.2.5.8 1.8 1.7 1.9.9 0 1-1.1.9-1.2 0-.2.1-.3.3-.3s.4.2.4.4c0 .1-.1 1.2-.6 1.5-2.2 1.4-3.5-1.9-3.5-2z"/><path d="M177.9 263.9c-.1 0-.1-.1-.1-.2l-1.1-8.7c0-.2.2-.4.4-.5.2 0 .4.2.5.4l1 8.5c.2.2.6.5 1 .5a.55.55 0 0 0 .5-.3c.4-.5.4-.9.2-3.7v-.7c-.2-3.3.4-9.9.4-10.1s.2-.3.4-.4c.2 0 .4.1.4.3 1.5 4.1 2.9 5.6 3.2 5.7.2-.1.4-.3.3-1.1-.1-1.4-1.2-6.5-1.5-8.2-.6-2.8-2.3-4.4-2.3-4.4-.1-.1-.1-.2-.1-.3l-.2-5c0-.2.2-.4.4-.4s.4.2.4.4l.2 4.8c.4.5 1.8 2 2.4 4.7.6 2.9 1.4 7 1.5 8.3s-.3 1.8-.8 2c-.1.1-.3.1-.6 0-.8-.3-1.9-2-3.1-4.6-.2 2.2-.4 6-.3 8.3v.7c.2 2.9.2 3.5-.4 4.3-.4.5-.9.6-1.2.6-.7 0-1.5-.8-1.5-.9z"/></g></g></svg>